G04 #@! TF.GenerationSoftware,KiCad,Pcbnew,(5.0.1)-4*
G04 #@! TF.CreationDate,2019-03-12T16:00:58+08:00*
G04 #@! TF.ProjectId,8051,383035312E6B696361645F7063620000,rev?*
G04 #@! TF.SameCoordinates,Original*
G04 #@! TF.FileFunction,Paste,Top*
G04 #@! TF.FilePolarity,Positive*
%FSLAX46Y46*%
G04 Gerber Fmt 4.6, Leading zero omitted, Abs format (unit mm)*
G04 Created by KiCad (PCBNEW (5.0.1)-4) date 3/12/2019 4:00:58 PM*
%MOMM*%
%LPD*%
G01*
G04 APERTURE LIST*
%ADD10C,0.100000*%
%ADD11C,0.975000*%
%ADD12R,0.450000X1.300000*%
G04 APERTURE END LIST*
D10*
G04 #@! TO.C,R12*
G36*
X32618742Y-26930474D02*
X32642403Y-26933984D01*
X32665607Y-26939796D01*
X32688129Y-26947854D01*
X32709753Y-26958082D01*
X32730270Y-26970379D01*
X32749483Y-26984629D01*
X32767207Y-27000693D01*
X32783271Y-27018417D01*
X32797521Y-27037630D01*
X32809818Y-27058147D01*
X32820046Y-27079771D01*
X32828104Y-27102293D01*
X32833916Y-27125497D01*
X32837426Y-27149158D01*
X32838600Y-27173050D01*
X32838600Y-27660550D01*
X32837426Y-27684442D01*
X32833916Y-27708103D01*
X32828104Y-27731307D01*
X32820046Y-27753829D01*
X32809818Y-27775453D01*
X32797521Y-27795970D01*
X32783271Y-27815183D01*
X32767207Y-27832907D01*
X32749483Y-27848971D01*
X32730270Y-27863221D01*
X32709753Y-27875518D01*
X32688129Y-27885746D01*
X32665607Y-27893804D01*
X32642403Y-27899616D01*
X32618742Y-27903126D01*
X32594850Y-27904300D01*
X31682350Y-27904300D01*
X31658458Y-27903126D01*
X31634797Y-27899616D01*
X31611593Y-27893804D01*
X31589071Y-27885746D01*
X31567447Y-27875518D01*
X31546930Y-27863221D01*
X31527717Y-27848971D01*
X31509993Y-27832907D01*
X31493929Y-27815183D01*
X31479679Y-27795970D01*
X31467382Y-27775453D01*
X31457154Y-27753829D01*
X31449096Y-27731307D01*
X31443284Y-27708103D01*
X31439774Y-27684442D01*
X31438600Y-27660550D01*
X31438600Y-27173050D01*
X31439774Y-27149158D01*
X31443284Y-27125497D01*
X31449096Y-27102293D01*
X31457154Y-27079771D01*
X31467382Y-27058147D01*
X31479679Y-27037630D01*
X31493929Y-27018417D01*
X31509993Y-27000693D01*
X31527717Y-26984629D01*
X31546930Y-26970379D01*
X31567447Y-26958082D01*
X31589071Y-26947854D01*
X31611593Y-26939796D01*
X31634797Y-26933984D01*
X31658458Y-26930474D01*
X31682350Y-26929300D01*
X32594850Y-26929300D01*
X32618742Y-26930474D01*
X32618742Y-26930474D01*
G37*
D11*
X32138600Y-27416800D03*
D10*
G36*
X32618742Y-28805474D02*
X32642403Y-28808984D01*
X32665607Y-28814796D01*
X32688129Y-28822854D01*
X32709753Y-28833082D01*
X32730270Y-28845379D01*
X32749483Y-28859629D01*
X32767207Y-28875693D01*
X32783271Y-28893417D01*
X32797521Y-28912630D01*
X32809818Y-28933147D01*
X32820046Y-28954771D01*
X32828104Y-28977293D01*
X32833916Y-29000497D01*
X32837426Y-29024158D01*
X32838600Y-29048050D01*
X32838600Y-29535550D01*
X32837426Y-29559442D01*
X32833916Y-29583103D01*
X32828104Y-29606307D01*
X32820046Y-29628829D01*
X32809818Y-29650453D01*
X32797521Y-29670970D01*
X32783271Y-29690183D01*
X32767207Y-29707907D01*
X32749483Y-29723971D01*
X32730270Y-29738221D01*
X32709753Y-29750518D01*
X32688129Y-29760746D01*
X32665607Y-29768804D01*
X32642403Y-29774616D01*
X32618742Y-29778126D01*
X32594850Y-29779300D01*
X31682350Y-29779300D01*
X31658458Y-29778126D01*
X31634797Y-29774616D01*
X31611593Y-29768804D01*
X31589071Y-29760746D01*
X31567447Y-29750518D01*
X31546930Y-29738221D01*
X31527717Y-29723971D01*
X31509993Y-29707907D01*
X31493929Y-29690183D01*
X31479679Y-29670970D01*
X31467382Y-29650453D01*
X31457154Y-29628829D01*
X31449096Y-29606307D01*
X31443284Y-29583103D01*
X31439774Y-29559442D01*
X31438600Y-29535550D01*
X31438600Y-29048050D01*
X31439774Y-29024158D01*
X31443284Y-29000497D01*
X31449096Y-28977293D01*
X31457154Y-28954771D01*
X31467382Y-28933147D01*
X31479679Y-28912630D01*
X31493929Y-28893417D01*
X31509993Y-28875693D01*
X31527717Y-28859629D01*
X31546930Y-28845379D01*
X31567447Y-28833082D01*
X31589071Y-28822854D01*
X31611593Y-28814796D01*
X31634797Y-28808984D01*
X31658458Y-28805474D01*
X31682350Y-28804300D01*
X32594850Y-28804300D01*
X32618742Y-28805474D01*
X32618742Y-28805474D01*
G37*
D11*
X32138600Y-29291800D03*
G04 #@! TD*
D10*
G04 #@! TO.C,R9*
G36*
X37673342Y-28805474D02*
X37697003Y-28808984D01*
X37720207Y-28814796D01*
X37742729Y-28822854D01*
X37764353Y-28833082D01*
X37784870Y-28845379D01*
X37804083Y-28859629D01*
X37821807Y-28875693D01*
X37837871Y-28893417D01*
X37852121Y-28912630D01*
X37864418Y-28933147D01*
X37874646Y-28954771D01*
X37882704Y-28977293D01*
X37888516Y-29000497D01*
X37892026Y-29024158D01*
X37893200Y-29048050D01*
X37893200Y-29535550D01*
X37892026Y-29559442D01*
X37888516Y-29583103D01*
X37882704Y-29606307D01*
X37874646Y-29628829D01*
X37864418Y-29650453D01*
X37852121Y-29670970D01*
X37837871Y-29690183D01*
X37821807Y-29707907D01*
X37804083Y-29723971D01*
X37784870Y-29738221D01*
X37764353Y-29750518D01*
X37742729Y-29760746D01*
X37720207Y-29768804D01*
X37697003Y-29774616D01*
X37673342Y-29778126D01*
X37649450Y-29779300D01*
X36736950Y-29779300D01*
X36713058Y-29778126D01*
X36689397Y-29774616D01*
X36666193Y-29768804D01*
X36643671Y-29760746D01*
X36622047Y-29750518D01*
X36601530Y-29738221D01*
X36582317Y-29723971D01*
X36564593Y-29707907D01*
X36548529Y-29690183D01*
X36534279Y-29670970D01*
X36521982Y-29650453D01*
X36511754Y-29628829D01*
X36503696Y-29606307D01*
X36497884Y-29583103D01*
X36494374Y-29559442D01*
X36493200Y-29535550D01*
X36493200Y-29048050D01*
X36494374Y-29024158D01*
X36497884Y-29000497D01*
X36503696Y-28977293D01*
X36511754Y-28954771D01*
X36521982Y-28933147D01*
X36534279Y-28912630D01*
X36548529Y-28893417D01*
X36564593Y-28875693D01*
X36582317Y-28859629D01*
X36601530Y-28845379D01*
X36622047Y-28833082D01*
X36643671Y-28822854D01*
X36666193Y-28814796D01*
X36689397Y-28808984D01*
X36713058Y-28805474D01*
X36736950Y-28804300D01*
X37649450Y-28804300D01*
X37673342Y-28805474D01*
X37673342Y-28805474D01*
G37*
D11*
X37193200Y-29291800D03*
D10*
G36*
X37673342Y-26930474D02*
X37697003Y-26933984D01*
X37720207Y-26939796D01*
X37742729Y-26947854D01*
X37764353Y-26958082D01*
X37784870Y-26970379D01*
X37804083Y-26984629D01*
X37821807Y-27000693D01*
X37837871Y-27018417D01*
X37852121Y-27037630D01*
X37864418Y-27058147D01*
X37874646Y-27079771D01*
X37882704Y-27102293D01*
X37888516Y-27125497D01*
X37892026Y-27149158D01*
X37893200Y-27173050D01*
X37893200Y-27660550D01*
X37892026Y-27684442D01*
X37888516Y-27708103D01*
X37882704Y-27731307D01*
X37874646Y-27753829D01*
X37864418Y-27775453D01*
X37852121Y-27795970D01*
X37837871Y-27815183D01*
X37821807Y-27832907D01*
X37804083Y-27848971D01*
X37784870Y-27863221D01*
X37764353Y-27875518D01*
X37742729Y-27885746D01*
X37720207Y-27893804D01*
X37697003Y-27899616D01*
X37673342Y-27903126D01*
X37649450Y-27904300D01*
X36736950Y-27904300D01*
X36713058Y-27903126D01*
X36689397Y-27899616D01*
X36666193Y-27893804D01*
X36643671Y-27885746D01*
X36622047Y-27875518D01*
X36601530Y-27863221D01*
X36582317Y-27848971D01*
X36564593Y-27832907D01*
X36548529Y-27815183D01*
X36534279Y-27795970D01*
X36521982Y-27775453D01*
X36511754Y-27753829D01*
X36503696Y-27731307D01*
X36497884Y-27708103D01*
X36494374Y-27684442D01*
X36493200Y-27660550D01*
X36493200Y-27173050D01*
X36494374Y-27149158D01*
X36497884Y-27125497D01*
X36503696Y-27102293D01*
X36511754Y-27079771D01*
X36521982Y-27058147D01*
X36534279Y-27037630D01*
X36548529Y-27018417D01*
X36564593Y-27000693D01*
X36582317Y-26984629D01*
X36601530Y-26970379D01*
X36622047Y-26958082D01*
X36643671Y-26947854D01*
X36666193Y-26939796D01*
X36689397Y-26933984D01*
X36713058Y-26930474D01*
X36736950Y-26929300D01*
X37649450Y-26929300D01*
X37673342Y-26930474D01*
X37673342Y-26930474D01*
G37*
D11*
X37193200Y-27416800D03*
G04 #@! TD*
D10*
G04 #@! TO.C,R8*
G36*
X35196842Y-26930474D02*
X35220503Y-26933984D01*
X35243707Y-26939796D01*
X35266229Y-26947854D01*
X35287853Y-26958082D01*
X35308370Y-26970379D01*
X35327583Y-26984629D01*
X35345307Y-27000693D01*
X35361371Y-27018417D01*
X35375621Y-27037630D01*
X35387918Y-27058147D01*
X35398146Y-27079771D01*
X35406204Y-27102293D01*
X35412016Y-27125497D01*
X35415526Y-27149158D01*
X35416700Y-27173050D01*
X35416700Y-27660550D01*
X35415526Y-27684442D01*
X35412016Y-27708103D01*
X35406204Y-27731307D01*
X35398146Y-27753829D01*
X35387918Y-27775453D01*
X35375621Y-27795970D01*
X35361371Y-27815183D01*
X35345307Y-27832907D01*
X35327583Y-27848971D01*
X35308370Y-27863221D01*
X35287853Y-27875518D01*
X35266229Y-27885746D01*
X35243707Y-27893804D01*
X35220503Y-27899616D01*
X35196842Y-27903126D01*
X35172950Y-27904300D01*
X34260450Y-27904300D01*
X34236558Y-27903126D01*
X34212897Y-27899616D01*
X34189693Y-27893804D01*
X34167171Y-27885746D01*
X34145547Y-27875518D01*
X34125030Y-27863221D01*
X34105817Y-27848971D01*
X34088093Y-27832907D01*
X34072029Y-27815183D01*
X34057779Y-27795970D01*
X34045482Y-27775453D01*
X34035254Y-27753829D01*
X34027196Y-27731307D01*
X34021384Y-27708103D01*
X34017874Y-27684442D01*
X34016700Y-27660550D01*
X34016700Y-27173050D01*
X34017874Y-27149158D01*
X34021384Y-27125497D01*
X34027196Y-27102293D01*
X34035254Y-27079771D01*
X34045482Y-27058147D01*
X34057779Y-27037630D01*
X34072029Y-27018417D01*
X34088093Y-27000693D01*
X34105817Y-26984629D01*
X34125030Y-26970379D01*
X34145547Y-26958082D01*
X34167171Y-26947854D01*
X34189693Y-26939796D01*
X34212897Y-26933984D01*
X34236558Y-26930474D01*
X34260450Y-26929300D01*
X35172950Y-26929300D01*
X35196842Y-26930474D01*
X35196842Y-26930474D01*
G37*
D11*
X34716700Y-27416800D03*
D10*
G36*
X35196842Y-28805474D02*
X35220503Y-28808984D01*
X35243707Y-28814796D01*
X35266229Y-28822854D01*
X35287853Y-28833082D01*
X35308370Y-28845379D01*
X35327583Y-28859629D01*
X35345307Y-28875693D01*
X35361371Y-28893417D01*
X35375621Y-28912630D01*
X35387918Y-28933147D01*
X35398146Y-28954771D01*
X35406204Y-28977293D01*
X35412016Y-29000497D01*
X35415526Y-29024158D01*
X35416700Y-29048050D01*
X35416700Y-29535550D01*
X35415526Y-29559442D01*
X35412016Y-29583103D01*
X35406204Y-29606307D01*
X35398146Y-29628829D01*
X35387918Y-29650453D01*
X35375621Y-29670970D01*
X35361371Y-29690183D01*
X35345307Y-29707907D01*
X35327583Y-29723971D01*
X35308370Y-29738221D01*
X35287853Y-29750518D01*
X35266229Y-29760746D01*
X35243707Y-29768804D01*
X35220503Y-29774616D01*
X35196842Y-29778126D01*
X35172950Y-29779300D01*
X34260450Y-29779300D01*
X34236558Y-29778126D01*
X34212897Y-29774616D01*
X34189693Y-29768804D01*
X34167171Y-29760746D01*
X34145547Y-29750518D01*
X34125030Y-29738221D01*
X34105817Y-29723971D01*
X34088093Y-29707907D01*
X34072029Y-29690183D01*
X34057779Y-29670970D01*
X34045482Y-29650453D01*
X34035254Y-29628829D01*
X34027196Y-29606307D01*
X34021384Y-29583103D01*
X34017874Y-29559442D01*
X34016700Y-29535550D01*
X34016700Y-29048050D01*
X34017874Y-29024158D01*
X34021384Y-29000497D01*
X34027196Y-28977293D01*
X34035254Y-28954771D01*
X34045482Y-28933147D01*
X34057779Y-28912630D01*
X34072029Y-28893417D01*
X34088093Y-28875693D01*
X34105817Y-28859629D01*
X34125030Y-28845379D01*
X34145547Y-28833082D01*
X34167171Y-28822854D01*
X34189693Y-28814796D01*
X34212897Y-28808984D01*
X34236558Y-28805474D01*
X34260450Y-28804300D01*
X35172950Y-28804300D01*
X35196842Y-28805474D01*
X35196842Y-28805474D01*
G37*
D11*
X34716700Y-29291800D03*
G04 #@! TD*
D10*
G04 #@! TO.C,R7*
G36*
X30144842Y-21865174D02*
X30168503Y-21868684D01*
X30191707Y-21874496D01*
X30214229Y-21882554D01*
X30235853Y-21892782D01*
X30256370Y-21905079D01*
X30275583Y-21919329D01*
X30293307Y-21935393D01*
X30309371Y-21953117D01*
X30323621Y-21972330D01*
X30335918Y-21992847D01*
X30346146Y-22014471D01*
X30354204Y-22036993D01*
X30360016Y-22060197D01*
X30363526Y-22083858D01*
X30364700Y-22107750D01*
X30364700Y-22595250D01*
X30363526Y-22619142D01*
X30360016Y-22642803D01*
X30354204Y-22666007D01*
X30346146Y-22688529D01*
X30335918Y-22710153D01*
X30323621Y-22730670D01*
X30309371Y-22749883D01*
X30293307Y-22767607D01*
X30275583Y-22783671D01*
X30256370Y-22797921D01*
X30235853Y-22810218D01*
X30214229Y-22820446D01*
X30191707Y-22828504D01*
X30168503Y-22834316D01*
X30144842Y-22837826D01*
X30120950Y-22839000D01*
X29208450Y-22839000D01*
X29184558Y-22837826D01*
X29160897Y-22834316D01*
X29137693Y-22828504D01*
X29115171Y-22820446D01*
X29093547Y-22810218D01*
X29073030Y-22797921D01*
X29053817Y-22783671D01*
X29036093Y-22767607D01*
X29020029Y-22749883D01*
X29005779Y-22730670D01*
X28993482Y-22710153D01*
X28983254Y-22688529D01*
X28975196Y-22666007D01*
X28969384Y-22642803D01*
X28965874Y-22619142D01*
X28964700Y-22595250D01*
X28964700Y-22107750D01*
X28965874Y-22083858D01*
X28969384Y-22060197D01*
X28975196Y-22036993D01*
X28983254Y-22014471D01*
X28993482Y-21992847D01*
X29005779Y-21972330D01*
X29020029Y-21953117D01*
X29036093Y-21935393D01*
X29053817Y-21919329D01*
X29073030Y-21905079D01*
X29093547Y-21892782D01*
X29115171Y-21882554D01*
X29137693Y-21874496D01*
X29160897Y-21868684D01*
X29184558Y-21865174D01*
X29208450Y-21864000D01*
X30120950Y-21864000D01*
X30144842Y-21865174D01*
X30144842Y-21865174D01*
G37*
D11*
X29664700Y-22351500D03*
D10*
G36*
X30144842Y-23740174D02*
X30168503Y-23743684D01*
X30191707Y-23749496D01*
X30214229Y-23757554D01*
X30235853Y-23767782D01*
X30256370Y-23780079D01*
X30275583Y-23794329D01*
X30293307Y-23810393D01*
X30309371Y-23828117D01*
X30323621Y-23847330D01*
X30335918Y-23867847D01*
X30346146Y-23889471D01*
X30354204Y-23911993D01*
X30360016Y-23935197D01*
X30363526Y-23958858D01*
X30364700Y-23982750D01*
X30364700Y-24470250D01*
X30363526Y-24494142D01*
X30360016Y-24517803D01*
X30354204Y-24541007D01*
X30346146Y-24563529D01*
X30335918Y-24585153D01*
X30323621Y-24605670D01*
X30309371Y-24624883D01*
X30293307Y-24642607D01*
X30275583Y-24658671D01*
X30256370Y-24672921D01*
X30235853Y-24685218D01*
X30214229Y-24695446D01*
X30191707Y-24703504D01*
X30168503Y-24709316D01*
X30144842Y-24712826D01*
X30120950Y-24714000D01*
X29208450Y-24714000D01*
X29184558Y-24712826D01*
X29160897Y-24709316D01*
X29137693Y-24703504D01*
X29115171Y-24695446D01*
X29093547Y-24685218D01*
X29073030Y-24672921D01*
X29053817Y-24658671D01*
X29036093Y-24642607D01*
X29020029Y-24624883D01*
X29005779Y-24605670D01*
X28993482Y-24585153D01*
X28983254Y-24563529D01*
X28975196Y-24541007D01*
X28969384Y-24517803D01*
X28965874Y-24494142D01*
X28964700Y-24470250D01*
X28964700Y-23982750D01*
X28965874Y-23958858D01*
X28969384Y-23935197D01*
X28975196Y-23911993D01*
X28983254Y-23889471D01*
X28993482Y-23867847D01*
X29005779Y-23847330D01*
X29020029Y-23828117D01*
X29036093Y-23810393D01*
X29053817Y-23794329D01*
X29073030Y-23780079D01*
X29093547Y-23767782D01*
X29115171Y-23757554D01*
X29137693Y-23749496D01*
X29160897Y-23743684D01*
X29184558Y-23740174D01*
X29208450Y-23739000D01*
X30120950Y-23739000D01*
X30144842Y-23740174D01*
X30144842Y-23740174D01*
G37*
D11*
X29664700Y-24226500D03*
G04 #@! TD*
D10*
G04 #@! TO.C,R16*
G36*
X30099042Y-26930474D02*
X30122703Y-26933984D01*
X30145907Y-26939796D01*
X30168429Y-26947854D01*
X30190053Y-26958082D01*
X30210570Y-26970379D01*
X30229783Y-26984629D01*
X30247507Y-27000693D01*
X30263571Y-27018417D01*
X30277821Y-27037630D01*
X30290118Y-27058147D01*
X30300346Y-27079771D01*
X30308404Y-27102293D01*
X30314216Y-27125497D01*
X30317726Y-27149158D01*
X30318900Y-27173050D01*
X30318900Y-27660550D01*
X30317726Y-27684442D01*
X30314216Y-27708103D01*
X30308404Y-27731307D01*
X30300346Y-27753829D01*
X30290118Y-27775453D01*
X30277821Y-27795970D01*
X30263571Y-27815183D01*
X30247507Y-27832907D01*
X30229783Y-27848971D01*
X30210570Y-27863221D01*
X30190053Y-27875518D01*
X30168429Y-27885746D01*
X30145907Y-27893804D01*
X30122703Y-27899616D01*
X30099042Y-27903126D01*
X30075150Y-27904300D01*
X29162650Y-27904300D01*
X29138758Y-27903126D01*
X29115097Y-27899616D01*
X29091893Y-27893804D01*
X29069371Y-27885746D01*
X29047747Y-27875518D01*
X29027230Y-27863221D01*
X29008017Y-27848971D01*
X28990293Y-27832907D01*
X28974229Y-27815183D01*
X28959979Y-27795970D01*
X28947682Y-27775453D01*
X28937454Y-27753829D01*
X28929396Y-27731307D01*
X28923584Y-27708103D01*
X28920074Y-27684442D01*
X28918900Y-27660550D01*
X28918900Y-27173050D01*
X28920074Y-27149158D01*
X28923584Y-27125497D01*
X28929396Y-27102293D01*
X28937454Y-27079771D01*
X28947682Y-27058147D01*
X28959979Y-27037630D01*
X28974229Y-27018417D01*
X28990293Y-27000693D01*
X29008017Y-26984629D01*
X29027230Y-26970379D01*
X29047747Y-26958082D01*
X29069371Y-26947854D01*
X29091893Y-26939796D01*
X29115097Y-26933984D01*
X29138758Y-26930474D01*
X29162650Y-26929300D01*
X30075150Y-26929300D01*
X30099042Y-26930474D01*
X30099042Y-26930474D01*
G37*
D11*
X29618900Y-27416800D03*
D10*
G36*
X30099042Y-28805474D02*
X30122703Y-28808984D01*
X30145907Y-28814796D01*
X30168429Y-28822854D01*
X30190053Y-28833082D01*
X30210570Y-28845379D01*
X30229783Y-28859629D01*
X30247507Y-28875693D01*
X30263571Y-28893417D01*
X30277821Y-28912630D01*
X30290118Y-28933147D01*
X30300346Y-28954771D01*
X30308404Y-28977293D01*
X30314216Y-29000497D01*
X30317726Y-29024158D01*
X30318900Y-29048050D01*
X30318900Y-29535550D01*
X30317726Y-29559442D01*
X30314216Y-29583103D01*
X30308404Y-29606307D01*
X30300346Y-29628829D01*
X30290118Y-29650453D01*
X30277821Y-29670970D01*
X30263571Y-29690183D01*
X30247507Y-29707907D01*
X30229783Y-29723971D01*
X30210570Y-29738221D01*
X30190053Y-29750518D01*
X30168429Y-29760746D01*
X30145907Y-29768804D01*
X30122703Y-29774616D01*
X30099042Y-29778126D01*
X30075150Y-29779300D01*
X29162650Y-29779300D01*
X29138758Y-29778126D01*
X29115097Y-29774616D01*
X29091893Y-29768804D01*
X29069371Y-29760746D01*
X29047747Y-29750518D01*
X29027230Y-29738221D01*
X29008017Y-29723971D01*
X28990293Y-29707907D01*
X28974229Y-29690183D01*
X28959979Y-29670970D01*
X28947682Y-29650453D01*
X28937454Y-29628829D01*
X28929396Y-29606307D01*
X28923584Y-29583103D01*
X28920074Y-29559442D01*
X28918900Y-29535550D01*
X28918900Y-29048050D01*
X28920074Y-29024158D01*
X28923584Y-29000497D01*
X28929396Y-28977293D01*
X28937454Y-28954771D01*
X28947682Y-28933147D01*
X28959979Y-28912630D01*
X28974229Y-28893417D01*
X28990293Y-28875693D01*
X29008017Y-28859629D01*
X29027230Y-28845379D01*
X29047747Y-28833082D01*
X29069371Y-28822854D01*
X29091893Y-28814796D01*
X29115097Y-28808984D01*
X29138758Y-28805474D01*
X29162650Y-28804300D01*
X30075150Y-28804300D01*
X30099042Y-28805474D01*
X30099042Y-28805474D01*
G37*
D11*
X29618900Y-29291800D03*
G04 #@! TD*
D10*
G04 #@! TO.C,R5*
G36*
X32618742Y-21865174D02*
X32642403Y-21868684D01*
X32665607Y-21874496D01*
X32688129Y-21882554D01*
X32709753Y-21892782D01*
X32730270Y-21905079D01*
X32749483Y-21919329D01*
X32767207Y-21935393D01*
X32783271Y-21953117D01*
X32797521Y-21972330D01*
X32809818Y-21992847D01*
X32820046Y-22014471D01*
X32828104Y-22036993D01*
X32833916Y-22060197D01*
X32837426Y-22083858D01*
X32838600Y-22107750D01*
X32838600Y-22595250D01*
X32837426Y-22619142D01*
X32833916Y-22642803D01*
X32828104Y-22666007D01*
X32820046Y-22688529D01*
X32809818Y-22710153D01*
X32797521Y-22730670D01*
X32783271Y-22749883D01*
X32767207Y-22767607D01*
X32749483Y-22783671D01*
X32730270Y-22797921D01*
X32709753Y-22810218D01*
X32688129Y-22820446D01*
X32665607Y-22828504D01*
X32642403Y-22834316D01*
X32618742Y-22837826D01*
X32594850Y-22839000D01*
X31682350Y-22839000D01*
X31658458Y-22837826D01*
X31634797Y-22834316D01*
X31611593Y-22828504D01*
X31589071Y-22820446D01*
X31567447Y-22810218D01*
X31546930Y-22797921D01*
X31527717Y-22783671D01*
X31509993Y-22767607D01*
X31493929Y-22749883D01*
X31479679Y-22730670D01*
X31467382Y-22710153D01*
X31457154Y-22688529D01*
X31449096Y-22666007D01*
X31443284Y-22642803D01*
X31439774Y-22619142D01*
X31438600Y-22595250D01*
X31438600Y-22107750D01*
X31439774Y-22083858D01*
X31443284Y-22060197D01*
X31449096Y-22036993D01*
X31457154Y-22014471D01*
X31467382Y-21992847D01*
X31479679Y-21972330D01*
X31493929Y-21953117D01*
X31509993Y-21935393D01*
X31527717Y-21919329D01*
X31546930Y-21905079D01*
X31567447Y-21892782D01*
X31589071Y-21882554D01*
X31611593Y-21874496D01*
X31634797Y-21868684D01*
X31658458Y-21865174D01*
X31682350Y-21864000D01*
X32594850Y-21864000D01*
X32618742Y-21865174D01*
X32618742Y-21865174D01*
G37*
D11*
X32138600Y-22351500D03*
D10*
G36*
X32618742Y-23740174D02*
X32642403Y-23743684D01*
X32665607Y-23749496D01*
X32688129Y-23757554D01*
X32709753Y-23767782D01*
X32730270Y-23780079D01*
X32749483Y-23794329D01*
X32767207Y-23810393D01*
X32783271Y-23828117D01*
X32797521Y-23847330D01*
X32809818Y-23867847D01*
X32820046Y-23889471D01*
X32828104Y-23911993D01*
X32833916Y-23935197D01*
X32837426Y-23958858D01*
X32838600Y-23982750D01*
X32838600Y-24470250D01*
X32837426Y-24494142D01*
X32833916Y-24517803D01*
X32828104Y-24541007D01*
X32820046Y-24563529D01*
X32809818Y-24585153D01*
X32797521Y-24605670D01*
X32783271Y-24624883D01*
X32767207Y-24642607D01*
X32749483Y-24658671D01*
X32730270Y-24672921D01*
X32709753Y-24685218D01*
X32688129Y-24695446D01*
X32665607Y-24703504D01*
X32642403Y-24709316D01*
X32618742Y-24712826D01*
X32594850Y-24714000D01*
X31682350Y-24714000D01*
X31658458Y-24712826D01*
X31634797Y-24709316D01*
X31611593Y-24703504D01*
X31589071Y-24695446D01*
X31567447Y-24685218D01*
X31546930Y-24672921D01*
X31527717Y-24658671D01*
X31509993Y-24642607D01*
X31493929Y-24624883D01*
X31479679Y-24605670D01*
X31467382Y-24585153D01*
X31457154Y-24563529D01*
X31449096Y-24541007D01*
X31443284Y-24517803D01*
X31439774Y-24494142D01*
X31438600Y-24470250D01*
X31438600Y-23982750D01*
X31439774Y-23958858D01*
X31443284Y-23935197D01*
X31449096Y-23911993D01*
X31457154Y-23889471D01*
X31467382Y-23867847D01*
X31479679Y-23847330D01*
X31493929Y-23828117D01*
X31509993Y-23810393D01*
X31527717Y-23794329D01*
X31546930Y-23780079D01*
X31567447Y-23767782D01*
X31589071Y-23757554D01*
X31611593Y-23749496D01*
X31634797Y-23743684D01*
X31658458Y-23740174D01*
X31682350Y-23739000D01*
X32594850Y-23739000D01*
X32618742Y-23740174D01*
X32618742Y-23740174D01*
G37*
D11*
X32138600Y-24226500D03*
G04 #@! TD*
D10*
G04 #@! TO.C,R4*
G36*
X35196842Y-23740174D02*
X35220503Y-23743684D01*
X35243707Y-23749496D01*
X35266229Y-23757554D01*
X35287853Y-23767782D01*
X35308370Y-23780079D01*
X35327583Y-23794329D01*
X35345307Y-23810393D01*
X35361371Y-23828117D01*
X35375621Y-23847330D01*
X35387918Y-23867847D01*
X35398146Y-23889471D01*
X35406204Y-23911993D01*
X35412016Y-23935197D01*
X35415526Y-23958858D01*
X35416700Y-23982750D01*
X35416700Y-24470250D01*
X35415526Y-24494142D01*
X35412016Y-24517803D01*
X35406204Y-24541007D01*
X35398146Y-24563529D01*
X35387918Y-24585153D01*
X35375621Y-24605670D01*
X35361371Y-24624883D01*
X35345307Y-24642607D01*
X35327583Y-24658671D01*
X35308370Y-24672921D01*
X35287853Y-24685218D01*
X35266229Y-24695446D01*
X35243707Y-24703504D01*
X35220503Y-24709316D01*
X35196842Y-24712826D01*
X35172950Y-24714000D01*
X34260450Y-24714000D01*
X34236558Y-24712826D01*
X34212897Y-24709316D01*
X34189693Y-24703504D01*
X34167171Y-24695446D01*
X34145547Y-24685218D01*
X34125030Y-24672921D01*
X34105817Y-24658671D01*
X34088093Y-24642607D01*
X34072029Y-24624883D01*
X34057779Y-24605670D01*
X34045482Y-24585153D01*
X34035254Y-24563529D01*
X34027196Y-24541007D01*
X34021384Y-24517803D01*
X34017874Y-24494142D01*
X34016700Y-24470250D01*
X34016700Y-23982750D01*
X34017874Y-23958858D01*
X34021384Y-23935197D01*
X34027196Y-23911993D01*
X34035254Y-23889471D01*
X34045482Y-23867847D01*
X34057779Y-23847330D01*
X34072029Y-23828117D01*
X34088093Y-23810393D01*
X34105817Y-23794329D01*
X34125030Y-23780079D01*
X34145547Y-23767782D01*
X34167171Y-23757554D01*
X34189693Y-23749496D01*
X34212897Y-23743684D01*
X34236558Y-23740174D01*
X34260450Y-23739000D01*
X35172950Y-23739000D01*
X35196842Y-23740174D01*
X35196842Y-23740174D01*
G37*
D11*
X34716700Y-24226500D03*
D10*
G36*
X35196842Y-21865174D02*
X35220503Y-21868684D01*
X35243707Y-21874496D01*
X35266229Y-21882554D01*
X35287853Y-21892782D01*
X35308370Y-21905079D01*
X35327583Y-21919329D01*
X35345307Y-21935393D01*
X35361371Y-21953117D01*
X35375621Y-21972330D01*
X35387918Y-21992847D01*
X35398146Y-22014471D01*
X35406204Y-22036993D01*
X35412016Y-22060197D01*
X35415526Y-22083858D01*
X35416700Y-22107750D01*
X35416700Y-22595250D01*
X35415526Y-22619142D01*
X35412016Y-22642803D01*
X35406204Y-22666007D01*
X35398146Y-22688529D01*
X35387918Y-22710153D01*
X35375621Y-22730670D01*
X35361371Y-22749883D01*
X35345307Y-22767607D01*
X35327583Y-22783671D01*
X35308370Y-22797921D01*
X35287853Y-22810218D01*
X35266229Y-22820446D01*
X35243707Y-22828504D01*
X35220503Y-22834316D01*
X35196842Y-22837826D01*
X35172950Y-22839000D01*
X34260450Y-22839000D01*
X34236558Y-22837826D01*
X34212897Y-22834316D01*
X34189693Y-22828504D01*
X34167171Y-22820446D01*
X34145547Y-22810218D01*
X34125030Y-22797921D01*
X34105817Y-22783671D01*
X34088093Y-22767607D01*
X34072029Y-22749883D01*
X34057779Y-22730670D01*
X34045482Y-22710153D01*
X34035254Y-22688529D01*
X34027196Y-22666007D01*
X34021384Y-22642803D01*
X34017874Y-22619142D01*
X34016700Y-22595250D01*
X34016700Y-22107750D01*
X34017874Y-22083858D01*
X34021384Y-22060197D01*
X34027196Y-22036993D01*
X34035254Y-22014471D01*
X34045482Y-21992847D01*
X34057779Y-21972330D01*
X34072029Y-21953117D01*
X34088093Y-21935393D01*
X34105817Y-21919329D01*
X34125030Y-21905079D01*
X34145547Y-21892782D01*
X34167171Y-21882554D01*
X34189693Y-21874496D01*
X34212897Y-21868684D01*
X34236558Y-21865174D01*
X34260450Y-21864000D01*
X35172950Y-21864000D01*
X35196842Y-21865174D01*
X35196842Y-21865174D01*
G37*
D11*
X34716700Y-22351500D03*
G04 #@! TD*
D10*
G04 #@! TO.C,R6*
G36*
X37673342Y-21865174D02*
X37697003Y-21868684D01*
X37720207Y-21874496D01*
X37742729Y-21882554D01*
X37764353Y-21892782D01*
X37784870Y-21905079D01*
X37804083Y-21919329D01*
X37821807Y-21935393D01*
X37837871Y-21953117D01*
X37852121Y-21972330D01*
X37864418Y-21992847D01*
X37874646Y-22014471D01*
X37882704Y-22036993D01*
X37888516Y-22060197D01*
X37892026Y-22083858D01*
X37893200Y-22107750D01*
X37893200Y-22595250D01*
X37892026Y-22619142D01*
X37888516Y-22642803D01*
X37882704Y-22666007D01*
X37874646Y-22688529D01*
X37864418Y-22710153D01*
X37852121Y-22730670D01*
X37837871Y-22749883D01*
X37821807Y-22767607D01*
X37804083Y-22783671D01*
X37784870Y-22797921D01*
X37764353Y-22810218D01*
X37742729Y-22820446D01*
X37720207Y-22828504D01*
X37697003Y-22834316D01*
X37673342Y-22837826D01*
X37649450Y-22839000D01*
X36736950Y-22839000D01*
X36713058Y-22837826D01*
X36689397Y-22834316D01*
X36666193Y-22828504D01*
X36643671Y-22820446D01*
X36622047Y-22810218D01*
X36601530Y-22797921D01*
X36582317Y-22783671D01*
X36564593Y-22767607D01*
X36548529Y-22749883D01*
X36534279Y-22730670D01*
X36521982Y-22710153D01*
X36511754Y-22688529D01*
X36503696Y-22666007D01*
X36497884Y-22642803D01*
X36494374Y-22619142D01*
X36493200Y-22595250D01*
X36493200Y-22107750D01*
X36494374Y-22083858D01*
X36497884Y-22060197D01*
X36503696Y-22036993D01*
X36511754Y-22014471D01*
X36521982Y-21992847D01*
X36534279Y-21972330D01*
X36548529Y-21953117D01*
X36564593Y-21935393D01*
X36582317Y-21919329D01*
X36601530Y-21905079D01*
X36622047Y-21892782D01*
X36643671Y-21882554D01*
X36666193Y-21874496D01*
X36689397Y-21868684D01*
X36713058Y-21865174D01*
X36736950Y-21864000D01*
X37649450Y-21864000D01*
X37673342Y-21865174D01*
X37673342Y-21865174D01*
G37*
D11*
X37193200Y-22351500D03*
D10*
G36*
X37673342Y-23740174D02*
X37697003Y-23743684D01*
X37720207Y-23749496D01*
X37742729Y-23757554D01*
X37764353Y-23767782D01*
X37784870Y-23780079D01*
X37804083Y-23794329D01*
X37821807Y-23810393D01*
X37837871Y-23828117D01*
X37852121Y-23847330D01*
X37864418Y-23867847D01*
X37874646Y-23889471D01*
X37882704Y-23911993D01*
X37888516Y-23935197D01*
X37892026Y-23958858D01*
X37893200Y-23982750D01*
X37893200Y-24470250D01*
X37892026Y-24494142D01*
X37888516Y-24517803D01*
X37882704Y-24541007D01*
X37874646Y-24563529D01*
X37864418Y-24585153D01*
X37852121Y-24605670D01*
X37837871Y-24624883D01*
X37821807Y-24642607D01*
X37804083Y-24658671D01*
X37784870Y-24672921D01*
X37764353Y-24685218D01*
X37742729Y-24695446D01*
X37720207Y-24703504D01*
X37697003Y-24709316D01*
X37673342Y-24712826D01*
X37649450Y-24714000D01*
X36736950Y-24714000D01*
X36713058Y-24712826D01*
X36689397Y-24709316D01*
X36666193Y-24703504D01*
X36643671Y-24695446D01*
X36622047Y-24685218D01*
X36601530Y-24672921D01*
X36582317Y-24658671D01*
X36564593Y-24642607D01*
X36548529Y-24624883D01*
X36534279Y-24605670D01*
X36521982Y-24585153D01*
X36511754Y-24563529D01*
X36503696Y-24541007D01*
X36497884Y-24517803D01*
X36494374Y-24494142D01*
X36493200Y-24470250D01*
X36493200Y-23982750D01*
X36494374Y-23958858D01*
X36497884Y-23935197D01*
X36503696Y-23911993D01*
X36511754Y-23889471D01*
X36521982Y-23867847D01*
X36534279Y-23847330D01*
X36548529Y-23828117D01*
X36564593Y-23810393D01*
X36582317Y-23794329D01*
X36601530Y-23780079D01*
X36622047Y-23767782D01*
X36643671Y-23757554D01*
X36666193Y-23749496D01*
X36689397Y-23743684D01*
X36713058Y-23740174D01*
X36736950Y-23739000D01*
X37649450Y-23739000D01*
X37673342Y-23740174D01*
X37673342Y-23740174D01*
G37*
D11*
X37193200Y-24226500D03*
G04 #@! TD*
D10*
G04 #@! TO.C,C22*
G36*
X86840142Y-32533674D02*
X86863803Y-32537184D01*
X86887007Y-32542996D01*
X86909529Y-32551054D01*
X86931153Y-32561282D01*
X86951670Y-32573579D01*
X86970883Y-32587829D01*
X86988607Y-32603893D01*
X87004671Y-32621617D01*
X87018921Y-32640830D01*
X87031218Y-32661347D01*
X87041446Y-32682971D01*
X87049504Y-32705493D01*
X87055316Y-32728697D01*
X87058826Y-32752358D01*
X87060000Y-32776250D01*
X87060000Y-33263750D01*
X87058826Y-33287642D01*
X87055316Y-33311303D01*
X87049504Y-33334507D01*
X87041446Y-33357029D01*
X87031218Y-33378653D01*
X87018921Y-33399170D01*
X87004671Y-33418383D01*
X86988607Y-33436107D01*
X86970883Y-33452171D01*
X86951670Y-33466421D01*
X86931153Y-33478718D01*
X86909529Y-33488946D01*
X86887007Y-33497004D01*
X86863803Y-33502816D01*
X86840142Y-33506326D01*
X86816250Y-33507500D01*
X85903750Y-33507500D01*
X85879858Y-33506326D01*
X85856197Y-33502816D01*
X85832993Y-33497004D01*
X85810471Y-33488946D01*
X85788847Y-33478718D01*
X85768330Y-33466421D01*
X85749117Y-33452171D01*
X85731393Y-33436107D01*
X85715329Y-33418383D01*
X85701079Y-33399170D01*
X85688782Y-33378653D01*
X85678554Y-33357029D01*
X85670496Y-33334507D01*
X85664684Y-33311303D01*
X85661174Y-33287642D01*
X85660000Y-33263750D01*
X85660000Y-32776250D01*
X85661174Y-32752358D01*
X85664684Y-32728697D01*
X85670496Y-32705493D01*
X85678554Y-32682971D01*
X85688782Y-32661347D01*
X85701079Y-32640830D01*
X85715329Y-32621617D01*
X85731393Y-32603893D01*
X85749117Y-32587829D01*
X85768330Y-32573579D01*
X85788847Y-32561282D01*
X85810471Y-32551054D01*
X85832993Y-32542996D01*
X85856197Y-32537184D01*
X85879858Y-32533674D01*
X85903750Y-32532500D01*
X86816250Y-32532500D01*
X86840142Y-32533674D01*
X86840142Y-32533674D01*
G37*
D11*
X86360000Y-33020000D03*
D10*
G36*
X86840142Y-30658674D02*
X86863803Y-30662184D01*
X86887007Y-30667996D01*
X86909529Y-30676054D01*
X86931153Y-30686282D01*
X86951670Y-30698579D01*
X86970883Y-30712829D01*
X86988607Y-30728893D01*
X87004671Y-30746617D01*
X87018921Y-30765830D01*
X87031218Y-30786347D01*
X87041446Y-30807971D01*
X87049504Y-30830493D01*
X87055316Y-30853697D01*
X87058826Y-30877358D01*
X87060000Y-30901250D01*
X87060000Y-31388750D01*
X87058826Y-31412642D01*
X87055316Y-31436303D01*
X87049504Y-31459507D01*
X87041446Y-31482029D01*
X87031218Y-31503653D01*
X87018921Y-31524170D01*
X87004671Y-31543383D01*
X86988607Y-31561107D01*
X86970883Y-31577171D01*
X86951670Y-31591421D01*
X86931153Y-31603718D01*
X86909529Y-31613946D01*
X86887007Y-31622004D01*
X86863803Y-31627816D01*
X86840142Y-31631326D01*
X86816250Y-31632500D01*
X85903750Y-31632500D01*
X85879858Y-31631326D01*
X85856197Y-31627816D01*
X85832993Y-31622004D01*
X85810471Y-31613946D01*
X85788847Y-31603718D01*
X85768330Y-31591421D01*
X85749117Y-31577171D01*
X85731393Y-31561107D01*
X85715329Y-31543383D01*
X85701079Y-31524170D01*
X85688782Y-31503653D01*
X85678554Y-31482029D01*
X85670496Y-31459507D01*
X85664684Y-31436303D01*
X85661174Y-31412642D01*
X85660000Y-31388750D01*
X85660000Y-30901250D01*
X85661174Y-30877358D01*
X85664684Y-30853697D01*
X85670496Y-30830493D01*
X85678554Y-30807971D01*
X85688782Y-30786347D01*
X85701079Y-30765830D01*
X85715329Y-30746617D01*
X85731393Y-30728893D01*
X85749117Y-30712829D01*
X85768330Y-30698579D01*
X85788847Y-30686282D01*
X85810471Y-30676054D01*
X85832993Y-30667996D01*
X85856197Y-30662184D01*
X85879858Y-30658674D01*
X85903750Y-30657500D01*
X86816250Y-30657500D01*
X86840142Y-30658674D01*
X86840142Y-30658674D01*
G37*
D11*
X86360000Y-31145000D03*
G04 #@! TD*
D10*
G04 #@! TO.C,C5*
G36*
X25123242Y-73725074D02*
X25146903Y-73728584D01*
X25170107Y-73734396D01*
X25192629Y-73742454D01*
X25214253Y-73752682D01*
X25234770Y-73764979D01*
X25253983Y-73779229D01*
X25271707Y-73795293D01*
X25287771Y-73813017D01*
X25302021Y-73832230D01*
X25314318Y-73852747D01*
X25324546Y-73874371D01*
X25332604Y-73896893D01*
X25338416Y-73920097D01*
X25341926Y-73943758D01*
X25343100Y-73967650D01*
X25343100Y-74455150D01*
X25341926Y-74479042D01*
X25338416Y-74502703D01*
X25332604Y-74525907D01*
X25324546Y-74548429D01*
X25314318Y-74570053D01*
X25302021Y-74590570D01*
X25287771Y-74609783D01*
X25271707Y-74627507D01*
X25253983Y-74643571D01*
X25234770Y-74657821D01*
X25214253Y-74670118D01*
X25192629Y-74680346D01*
X25170107Y-74688404D01*
X25146903Y-74694216D01*
X25123242Y-74697726D01*
X25099350Y-74698900D01*
X24186850Y-74698900D01*
X24162958Y-74697726D01*
X24139297Y-74694216D01*
X24116093Y-74688404D01*
X24093571Y-74680346D01*
X24071947Y-74670118D01*
X24051430Y-74657821D01*
X24032217Y-74643571D01*
X24014493Y-74627507D01*
X23998429Y-74609783D01*
X23984179Y-74590570D01*
X23971882Y-74570053D01*
X23961654Y-74548429D01*
X23953596Y-74525907D01*
X23947784Y-74502703D01*
X23944274Y-74479042D01*
X23943100Y-74455150D01*
X23943100Y-73967650D01*
X23944274Y-73943758D01*
X23947784Y-73920097D01*
X23953596Y-73896893D01*
X23961654Y-73874371D01*
X23971882Y-73852747D01*
X23984179Y-73832230D01*
X23998429Y-73813017D01*
X24014493Y-73795293D01*
X24032217Y-73779229D01*
X24051430Y-73764979D01*
X24071947Y-73752682D01*
X24093571Y-73742454D01*
X24116093Y-73734396D01*
X24139297Y-73728584D01*
X24162958Y-73725074D01*
X24186850Y-73723900D01*
X25099350Y-73723900D01*
X25123242Y-73725074D01*
X25123242Y-73725074D01*
G37*
D11*
X24643100Y-74211400D03*
D10*
G36*
X25123242Y-71850074D02*
X25146903Y-71853584D01*
X25170107Y-71859396D01*
X25192629Y-71867454D01*
X25214253Y-71877682D01*
X25234770Y-71889979D01*
X25253983Y-71904229D01*
X25271707Y-71920293D01*
X25287771Y-71938017D01*
X25302021Y-71957230D01*
X25314318Y-71977747D01*
X25324546Y-71999371D01*
X25332604Y-72021893D01*
X25338416Y-72045097D01*
X25341926Y-72068758D01*
X25343100Y-72092650D01*
X25343100Y-72580150D01*
X25341926Y-72604042D01*
X25338416Y-72627703D01*
X25332604Y-72650907D01*
X25324546Y-72673429D01*
X25314318Y-72695053D01*
X25302021Y-72715570D01*
X25287771Y-72734783D01*
X25271707Y-72752507D01*
X25253983Y-72768571D01*
X25234770Y-72782821D01*
X25214253Y-72795118D01*
X25192629Y-72805346D01*
X25170107Y-72813404D01*
X25146903Y-72819216D01*
X25123242Y-72822726D01*
X25099350Y-72823900D01*
X24186850Y-72823900D01*
X24162958Y-72822726D01*
X24139297Y-72819216D01*
X24116093Y-72813404D01*
X24093571Y-72805346D01*
X24071947Y-72795118D01*
X24051430Y-72782821D01*
X24032217Y-72768571D01*
X24014493Y-72752507D01*
X23998429Y-72734783D01*
X23984179Y-72715570D01*
X23971882Y-72695053D01*
X23961654Y-72673429D01*
X23953596Y-72650907D01*
X23947784Y-72627703D01*
X23944274Y-72604042D01*
X23943100Y-72580150D01*
X23943100Y-72092650D01*
X23944274Y-72068758D01*
X23947784Y-72045097D01*
X23953596Y-72021893D01*
X23961654Y-71999371D01*
X23971882Y-71977747D01*
X23984179Y-71957230D01*
X23998429Y-71938017D01*
X24014493Y-71920293D01*
X24032217Y-71904229D01*
X24051430Y-71889979D01*
X24071947Y-71877682D01*
X24093571Y-71867454D01*
X24116093Y-71859396D01*
X24139297Y-71853584D01*
X24162958Y-71850074D01*
X24186850Y-71848900D01*
X25099350Y-71848900D01*
X25123242Y-71850074D01*
X25123242Y-71850074D01*
G37*
D11*
X24643100Y-72336400D03*
G04 #@! TD*
D10*
G04 #@! TO.C,C17*
G36*
X78750842Y-50604074D02*
X78774503Y-50607584D01*
X78797707Y-50613396D01*
X78820229Y-50621454D01*
X78841853Y-50631682D01*
X78862370Y-50643979D01*
X78881583Y-50658229D01*
X78899307Y-50674293D01*
X78915371Y-50692017D01*
X78929621Y-50711230D01*
X78941918Y-50731747D01*
X78952146Y-50753371D01*
X78960204Y-50775893D01*
X78966016Y-50799097D01*
X78969526Y-50822758D01*
X78970700Y-50846650D01*
X78970700Y-51759150D01*
X78969526Y-51783042D01*
X78966016Y-51806703D01*
X78960204Y-51829907D01*
X78952146Y-51852429D01*
X78941918Y-51874053D01*
X78929621Y-51894570D01*
X78915371Y-51913783D01*
X78899307Y-51931507D01*
X78881583Y-51947571D01*
X78862370Y-51961821D01*
X78841853Y-51974118D01*
X78820229Y-51984346D01*
X78797707Y-51992404D01*
X78774503Y-51998216D01*
X78750842Y-52001726D01*
X78726950Y-52002900D01*
X78239450Y-52002900D01*
X78215558Y-52001726D01*
X78191897Y-51998216D01*
X78168693Y-51992404D01*
X78146171Y-51984346D01*
X78124547Y-51974118D01*
X78104030Y-51961821D01*
X78084817Y-51947571D01*
X78067093Y-51931507D01*
X78051029Y-51913783D01*
X78036779Y-51894570D01*
X78024482Y-51874053D01*
X78014254Y-51852429D01*
X78006196Y-51829907D01*
X78000384Y-51806703D01*
X77996874Y-51783042D01*
X77995700Y-51759150D01*
X77995700Y-50846650D01*
X77996874Y-50822758D01*
X78000384Y-50799097D01*
X78006196Y-50775893D01*
X78014254Y-50753371D01*
X78024482Y-50731747D01*
X78036779Y-50711230D01*
X78051029Y-50692017D01*
X78067093Y-50674293D01*
X78084817Y-50658229D01*
X78104030Y-50643979D01*
X78124547Y-50631682D01*
X78146171Y-50621454D01*
X78168693Y-50613396D01*
X78191897Y-50607584D01*
X78215558Y-50604074D01*
X78239450Y-50602900D01*
X78726950Y-50602900D01*
X78750842Y-50604074D01*
X78750842Y-50604074D01*
G37*
D11*
X78483200Y-51302900D03*
D10*
G36*
X80625842Y-50604074D02*
X80649503Y-50607584D01*
X80672707Y-50613396D01*
X80695229Y-50621454D01*
X80716853Y-50631682D01*
X80737370Y-50643979D01*
X80756583Y-50658229D01*
X80774307Y-50674293D01*
X80790371Y-50692017D01*
X80804621Y-50711230D01*
X80816918Y-50731747D01*
X80827146Y-50753371D01*
X80835204Y-50775893D01*
X80841016Y-50799097D01*
X80844526Y-50822758D01*
X80845700Y-50846650D01*
X80845700Y-51759150D01*
X80844526Y-51783042D01*
X80841016Y-51806703D01*
X80835204Y-51829907D01*
X80827146Y-51852429D01*
X80816918Y-51874053D01*
X80804621Y-51894570D01*
X80790371Y-51913783D01*
X80774307Y-51931507D01*
X80756583Y-51947571D01*
X80737370Y-51961821D01*
X80716853Y-51974118D01*
X80695229Y-51984346D01*
X80672707Y-51992404D01*
X80649503Y-51998216D01*
X80625842Y-52001726D01*
X80601950Y-52002900D01*
X80114450Y-52002900D01*
X80090558Y-52001726D01*
X80066897Y-51998216D01*
X80043693Y-51992404D01*
X80021171Y-51984346D01*
X79999547Y-51974118D01*
X79979030Y-51961821D01*
X79959817Y-51947571D01*
X79942093Y-51931507D01*
X79926029Y-51913783D01*
X79911779Y-51894570D01*
X79899482Y-51874053D01*
X79889254Y-51852429D01*
X79881196Y-51829907D01*
X79875384Y-51806703D01*
X79871874Y-51783042D01*
X79870700Y-51759150D01*
X79870700Y-50846650D01*
X79871874Y-50822758D01*
X79875384Y-50799097D01*
X79881196Y-50775893D01*
X79889254Y-50753371D01*
X79899482Y-50731747D01*
X79911779Y-50711230D01*
X79926029Y-50692017D01*
X79942093Y-50674293D01*
X79959817Y-50658229D01*
X79979030Y-50643979D01*
X79999547Y-50631682D01*
X80021171Y-50621454D01*
X80043693Y-50613396D01*
X80066897Y-50607584D01*
X80090558Y-50604074D01*
X80114450Y-50602900D01*
X80601950Y-50602900D01*
X80625842Y-50604074D01*
X80625842Y-50604074D01*
G37*
D11*
X80358200Y-51302900D03*
G04 #@! TD*
D10*
G04 #@! TO.C,C16*
G36*
X112919142Y-51025774D02*
X112942803Y-51029284D01*
X112966007Y-51035096D01*
X112988529Y-51043154D01*
X113010153Y-51053382D01*
X113030670Y-51065679D01*
X113049883Y-51079929D01*
X113067607Y-51095993D01*
X113083671Y-51113717D01*
X113097921Y-51132930D01*
X113110218Y-51153447D01*
X113120446Y-51175071D01*
X113128504Y-51197593D01*
X113134316Y-51220797D01*
X113137826Y-51244458D01*
X113139000Y-51268350D01*
X113139000Y-52180850D01*
X113137826Y-52204742D01*
X113134316Y-52228403D01*
X113128504Y-52251607D01*
X113120446Y-52274129D01*
X113110218Y-52295753D01*
X113097921Y-52316270D01*
X113083671Y-52335483D01*
X113067607Y-52353207D01*
X113049883Y-52369271D01*
X113030670Y-52383521D01*
X113010153Y-52395818D01*
X112988529Y-52406046D01*
X112966007Y-52414104D01*
X112942803Y-52419916D01*
X112919142Y-52423426D01*
X112895250Y-52424600D01*
X112407750Y-52424600D01*
X112383858Y-52423426D01*
X112360197Y-52419916D01*
X112336993Y-52414104D01*
X112314471Y-52406046D01*
X112292847Y-52395818D01*
X112272330Y-52383521D01*
X112253117Y-52369271D01*
X112235393Y-52353207D01*
X112219329Y-52335483D01*
X112205079Y-52316270D01*
X112192782Y-52295753D01*
X112182554Y-52274129D01*
X112174496Y-52251607D01*
X112168684Y-52228403D01*
X112165174Y-52204742D01*
X112164000Y-52180850D01*
X112164000Y-51268350D01*
X112165174Y-51244458D01*
X112168684Y-51220797D01*
X112174496Y-51197593D01*
X112182554Y-51175071D01*
X112192782Y-51153447D01*
X112205079Y-51132930D01*
X112219329Y-51113717D01*
X112235393Y-51095993D01*
X112253117Y-51079929D01*
X112272330Y-51065679D01*
X112292847Y-51053382D01*
X112314471Y-51043154D01*
X112336993Y-51035096D01*
X112360197Y-51029284D01*
X112383858Y-51025774D01*
X112407750Y-51024600D01*
X112895250Y-51024600D01*
X112919142Y-51025774D01*
X112919142Y-51025774D01*
G37*
D11*
X112651500Y-51724600D03*
D10*
G36*
X111044142Y-51025774D02*
X111067803Y-51029284D01*
X111091007Y-51035096D01*
X111113529Y-51043154D01*
X111135153Y-51053382D01*
X111155670Y-51065679D01*
X111174883Y-51079929D01*
X111192607Y-51095993D01*
X111208671Y-51113717D01*
X111222921Y-51132930D01*
X111235218Y-51153447D01*
X111245446Y-51175071D01*
X111253504Y-51197593D01*
X111259316Y-51220797D01*
X111262826Y-51244458D01*
X111264000Y-51268350D01*
X111264000Y-52180850D01*
X111262826Y-52204742D01*
X111259316Y-52228403D01*
X111253504Y-52251607D01*
X111245446Y-52274129D01*
X111235218Y-52295753D01*
X111222921Y-52316270D01*
X111208671Y-52335483D01*
X111192607Y-52353207D01*
X111174883Y-52369271D01*
X111155670Y-52383521D01*
X111135153Y-52395818D01*
X111113529Y-52406046D01*
X111091007Y-52414104D01*
X111067803Y-52419916D01*
X111044142Y-52423426D01*
X111020250Y-52424600D01*
X110532750Y-52424600D01*
X110508858Y-52423426D01*
X110485197Y-52419916D01*
X110461993Y-52414104D01*
X110439471Y-52406046D01*
X110417847Y-52395818D01*
X110397330Y-52383521D01*
X110378117Y-52369271D01*
X110360393Y-52353207D01*
X110344329Y-52335483D01*
X110330079Y-52316270D01*
X110317782Y-52295753D01*
X110307554Y-52274129D01*
X110299496Y-52251607D01*
X110293684Y-52228403D01*
X110290174Y-52204742D01*
X110289000Y-52180850D01*
X110289000Y-51268350D01*
X110290174Y-51244458D01*
X110293684Y-51220797D01*
X110299496Y-51197593D01*
X110307554Y-51175071D01*
X110317782Y-51153447D01*
X110330079Y-51132930D01*
X110344329Y-51113717D01*
X110360393Y-51095993D01*
X110378117Y-51079929D01*
X110397330Y-51065679D01*
X110417847Y-51053382D01*
X110439471Y-51043154D01*
X110461993Y-51035096D01*
X110485197Y-51029284D01*
X110508858Y-51025774D01*
X110532750Y-51024600D01*
X111020250Y-51024600D01*
X111044142Y-51025774D01*
X111044142Y-51025774D01*
G37*
D11*
X110776500Y-51724600D03*
G04 #@! TD*
D10*
G04 #@! TO.C,C15*
G36*
X94104542Y-106273174D02*
X94128203Y-106276684D01*
X94151407Y-106282496D01*
X94173929Y-106290554D01*
X94195553Y-106300782D01*
X94216070Y-106313079D01*
X94235283Y-106327329D01*
X94253007Y-106343393D01*
X94269071Y-106361117D01*
X94283321Y-106380330D01*
X94295618Y-106400847D01*
X94305846Y-106422471D01*
X94313904Y-106444993D01*
X94319716Y-106468197D01*
X94323226Y-106491858D01*
X94324400Y-106515750D01*
X94324400Y-107003250D01*
X94323226Y-107027142D01*
X94319716Y-107050803D01*
X94313904Y-107074007D01*
X94305846Y-107096529D01*
X94295618Y-107118153D01*
X94283321Y-107138670D01*
X94269071Y-107157883D01*
X94253007Y-107175607D01*
X94235283Y-107191671D01*
X94216070Y-107205921D01*
X94195553Y-107218218D01*
X94173929Y-107228446D01*
X94151407Y-107236504D01*
X94128203Y-107242316D01*
X94104542Y-107245826D01*
X94080650Y-107247000D01*
X93168150Y-107247000D01*
X93144258Y-107245826D01*
X93120597Y-107242316D01*
X93097393Y-107236504D01*
X93074871Y-107228446D01*
X93053247Y-107218218D01*
X93032730Y-107205921D01*
X93013517Y-107191671D01*
X92995793Y-107175607D01*
X92979729Y-107157883D01*
X92965479Y-107138670D01*
X92953182Y-107118153D01*
X92942954Y-107096529D01*
X92934896Y-107074007D01*
X92929084Y-107050803D01*
X92925574Y-107027142D01*
X92924400Y-107003250D01*
X92924400Y-106515750D01*
X92925574Y-106491858D01*
X92929084Y-106468197D01*
X92934896Y-106444993D01*
X92942954Y-106422471D01*
X92953182Y-106400847D01*
X92965479Y-106380330D01*
X92979729Y-106361117D01*
X92995793Y-106343393D01*
X93013517Y-106327329D01*
X93032730Y-106313079D01*
X93053247Y-106300782D01*
X93074871Y-106290554D01*
X93097393Y-106282496D01*
X93120597Y-106276684D01*
X93144258Y-106273174D01*
X93168150Y-106272000D01*
X94080650Y-106272000D01*
X94104542Y-106273174D01*
X94104542Y-106273174D01*
G37*
D11*
X93624400Y-106759500D03*
D10*
G36*
X94104542Y-104398174D02*
X94128203Y-104401684D01*
X94151407Y-104407496D01*
X94173929Y-104415554D01*
X94195553Y-104425782D01*
X94216070Y-104438079D01*
X94235283Y-104452329D01*
X94253007Y-104468393D01*
X94269071Y-104486117D01*
X94283321Y-104505330D01*
X94295618Y-104525847D01*
X94305846Y-104547471D01*
X94313904Y-104569993D01*
X94319716Y-104593197D01*
X94323226Y-104616858D01*
X94324400Y-104640750D01*
X94324400Y-105128250D01*
X94323226Y-105152142D01*
X94319716Y-105175803D01*
X94313904Y-105199007D01*
X94305846Y-105221529D01*
X94295618Y-105243153D01*
X94283321Y-105263670D01*
X94269071Y-105282883D01*
X94253007Y-105300607D01*
X94235283Y-105316671D01*
X94216070Y-105330921D01*
X94195553Y-105343218D01*
X94173929Y-105353446D01*
X94151407Y-105361504D01*
X94128203Y-105367316D01*
X94104542Y-105370826D01*
X94080650Y-105372000D01*
X93168150Y-105372000D01*
X93144258Y-105370826D01*
X93120597Y-105367316D01*
X93097393Y-105361504D01*
X93074871Y-105353446D01*
X93053247Y-105343218D01*
X93032730Y-105330921D01*
X93013517Y-105316671D01*
X92995793Y-105300607D01*
X92979729Y-105282883D01*
X92965479Y-105263670D01*
X92953182Y-105243153D01*
X92942954Y-105221529D01*
X92934896Y-105199007D01*
X92929084Y-105175803D01*
X92925574Y-105152142D01*
X92924400Y-105128250D01*
X92924400Y-104640750D01*
X92925574Y-104616858D01*
X92929084Y-104593197D01*
X92934896Y-104569993D01*
X92942954Y-104547471D01*
X92953182Y-104525847D01*
X92965479Y-104505330D01*
X92979729Y-104486117D01*
X92995793Y-104468393D01*
X93013517Y-104452329D01*
X93032730Y-104438079D01*
X93053247Y-104425782D01*
X93074871Y-104415554D01*
X93097393Y-104407496D01*
X93120597Y-104401684D01*
X93144258Y-104398174D01*
X93168150Y-104397000D01*
X94080650Y-104397000D01*
X94104542Y-104398174D01*
X94104542Y-104398174D01*
G37*
D11*
X93624400Y-104884500D03*
G04 #@! TD*
D10*
G04 #@! TO.C,C13*
G36*
X68044142Y-34408674D02*
X68067803Y-34412184D01*
X68091007Y-34417996D01*
X68113529Y-34426054D01*
X68135153Y-34436282D01*
X68155670Y-34448579D01*
X68174883Y-34462829D01*
X68192607Y-34478893D01*
X68208671Y-34496617D01*
X68222921Y-34515830D01*
X68235218Y-34536347D01*
X68245446Y-34557971D01*
X68253504Y-34580493D01*
X68259316Y-34603697D01*
X68262826Y-34627358D01*
X68264000Y-34651250D01*
X68264000Y-35138750D01*
X68262826Y-35162642D01*
X68259316Y-35186303D01*
X68253504Y-35209507D01*
X68245446Y-35232029D01*
X68235218Y-35253653D01*
X68222921Y-35274170D01*
X68208671Y-35293383D01*
X68192607Y-35311107D01*
X68174883Y-35327171D01*
X68155670Y-35341421D01*
X68135153Y-35353718D01*
X68113529Y-35363946D01*
X68091007Y-35372004D01*
X68067803Y-35377816D01*
X68044142Y-35381326D01*
X68020250Y-35382500D01*
X67107750Y-35382500D01*
X67083858Y-35381326D01*
X67060197Y-35377816D01*
X67036993Y-35372004D01*
X67014471Y-35363946D01*
X66992847Y-35353718D01*
X66972330Y-35341421D01*
X66953117Y-35327171D01*
X66935393Y-35311107D01*
X66919329Y-35293383D01*
X66905079Y-35274170D01*
X66892782Y-35253653D01*
X66882554Y-35232029D01*
X66874496Y-35209507D01*
X66868684Y-35186303D01*
X66865174Y-35162642D01*
X66864000Y-35138750D01*
X66864000Y-34651250D01*
X66865174Y-34627358D01*
X66868684Y-34603697D01*
X66874496Y-34580493D01*
X66882554Y-34557971D01*
X66892782Y-34536347D01*
X66905079Y-34515830D01*
X66919329Y-34496617D01*
X66935393Y-34478893D01*
X66953117Y-34462829D01*
X66972330Y-34448579D01*
X66992847Y-34436282D01*
X67014471Y-34426054D01*
X67036993Y-34417996D01*
X67060197Y-34412184D01*
X67083858Y-34408674D01*
X67107750Y-34407500D01*
X68020250Y-34407500D01*
X68044142Y-34408674D01*
X68044142Y-34408674D01*
G37*
D11*
X67564000Y-34895000D03*
D10*
G36*
X68044142Y-32533674D02*
X68067803Y-32537184D01*
X68091007Y-32542996D01*
X68113529Y-32551054D01*
X68135153Y-32561282D01*
X68155670Y-32573579D01*
X68174883Y-32587829D01*
X68192607Y-32603893D01*
X68208671Y-32621617D01*
X68222921Y-32640830D01*
X68235218Y-32661347D01*
X68245446Y-32682971D01*
X68253504Y-32705493D01*
X68259316Y-32728697D01*
X68262826Y-32752358D01*
X68264000Y-32776250D01*
X68264000Y-33263750D01*
X68262826Y-33287642D01*
X68259316Y-33311303D01*
X68253504Y-33334507D01*
X68245446Y-33357029D01*
X68235218Y-33378653D01*
X68222921Y-33399170D01*
X68208671Y-33418383D01*
X68192607Y-33436107D01*
X68174883Y-33452171D01*
X68155670Y-33466421D01*
X68135153Y-33478718D01*
X68113529Y-33488946D01*
X68091007Y-33497004D01*
X68067803Y-33502816D01*
X68044142Y-33506326D01*
X68020250Y-33507500D01*
X67107750Y-33507500D01*
X67083858Y-33506326D01*
X67060197Y-33502816D01*
X67036993Y-33497004D01*
X67014471Y-33488946D01*
X66992847Y-33478718D01*
X66972330Y-33466421D01*
X66953117Y-33452171D01*
X66935393Y-33436107D01*
X66919329Y-33418383D01*
X66905079Y-33399170D01*
X66892782Y-33378653D01*
X66882554Y-33357029D01*
X66874496Y-33334507D01*
X66868684Y-33311303D01*
X66865174Y-33287642D01*
X66864000Y-33263750D01*
X66864000Y-32776250D01*
X66865174Y-32752358D01*
X66868684Y-32728697D01*
X66874496Y-32705493D01*
X66882554Y-32682971D01*
X66892782Y-32661347D01*
X66905079Y-32640830D01*
X66919329Y-32621617D01*
X66935393Y-32603893D01*
X66953117Y-32587829D01*
X66972330Y-32573579D01*
X66992847Y-32561282D01*
X67014471Y-32551054D01*
X67036993Y-32542996D01*
X67060197Y-32537184D01*
X67083858Y-32533674D01*
X67107750Y-32532500D01*
X68020250Y-32532500D01*
X68044142Y-32533674D01*
X68044142Y-32533674D01*
G37*
D11*
X67564000Y-33020000D03*
G04 #@! TD*
D10*
G04 #@! TO.C,C12*
G36*
X82545342Y-59184174D02*
X82569003Y-59187684D01*
X82592207Y-59193496D01*
X82614729Y-59201554D01*
X82636353Y-59211782D01*
X82656870Y-59224079D01*
X82676083Y-59238329D01*
X82693807Y-59254393D01*
X82709871Y-59272117D01*
X82724121Y-59291330D01*
X82736418Y-59311847D01*
X82746646Y-59333471D01*
X82754704Y-59355993D01*
X82760516Y-59379197D01*
X82764026Y-59402858D01*
X82765200Y-59426750D01*
X82765200Y-60339250D01*
X82764026Y-60363142D01*
X82760516Y-60386803D01*
X82754704Y-60410007D01*
X82746646Y-60432529D01*
X82736418Y-60454153D01*
X82724121Y-60474670D01*
X82709871Y-60493883D01*
X82693807Y-60511607D01*
X82676083Y-60527671D01*
X82656870Y-60541921D01*
X82636353Y-60554218D01*
X82614729Y-60564446D01*
X82592207Y-60572504D01*
X82569003Y-60578316D01*
X82545342Y-60581826D01*
X82521450Y-60583000D01*
X82033950Y-60583000D01*
X82010058Y-60581826D01*
X81986397Y-60578316D01*
X81963193Y-60572504D01*
X81940671Y-60564446D01*
X81919047Y-60554218D01*
X81898530Y-60541921D01*
X81879317Y-60527671D01*
X81861593Y-60511607D01*
X81845529Y-60493883D01*
X81831279Y-60474670D01*
X81818982Y-60454153D01*
X81808754Y-60432529D01*
X81800696Y-60410007D01*
X81794884Y-60386803D01*
X81791374Y-60363142D01*
X81790200Y-60339250D01*
X81790200Y-59426750D01*
X81791374Y-59402858D01*
X81794884Y-59379197D01*
X81800696Y-59355993D01*
X81808754Y-59333471D01*
X81818982Y-59311847D01*
X81831279Y-59291330D01*
X81845529Y-59272117D01*
X81861593Y-59254393D01*
X81879317Y-59238329D01*
X81898530Y-59224079D01*
X81919047Y-59211782D01*
X81940671Y-59201554D01*
X81963193Y-59193496D01*
X81986397Y-59187684D01*
X82010058Y-59184174D01*
X82033950Y-59183000D01*
X82521450Y-59183000D01*
X82545342Y-59184174D01*
X82545342Y-59184174D01*
G37*
D11*
X82277700Y-59883000D03*
D10*
G36*
X84420342Y-59184174D02*
X84444003Y-59187684D01*
X84467207Y-59193496D01*
X84489729Y-59201554D01*
X84511353Y-59211782D01*
X84531870Y-59224079D01*
X84551083Y-59238329D01*
X84568807Y-59254393D01*
X84584871Y-59272117D01*
X84599121Y-59291330D01*
X84611418Y-59311847D01*
X84621646Y-59333471D01*
X84629704Y-59355993D01*
X84635516Y-59379197D01*
X84639026Y-59402858D01*
X84640200Y-59426750D01*
X84640200Y-60339250D01*
X84639026Y-60363142D01*
X84635516Y-60386803D01*
X84629704Y-60410007D01*
X84621646Y-60432529D01*
X84611418Y-60454153D01*
X84599121Y-60474670D01*
X84584871Y-60493883D01*
X84568807Y-60511607D01*
X84551083Y-60527671D01*
X84531870Y-60541921D01*
X84511353Y-60554218D01*
X84489729Y-60564446D01*
X84467207Y-60572504D01*
X84444003Y-60578316D01*
X84420342Y-60581826D01*
X84396450Y-60583000D01*
X83908950Y-60583000D01*
X83885058Y-60581826D01*
X83861397Y-60578316D01*
X83838193Y-60572504D01*
X83815671Y-60564446D01*
X83794047Y-60554218D01*
X83773530Y-60541921D01*
X83754317Y-60527671D01*
X83736593Y-60511607D01*
X83720529Y-60493883D01*
X83706279Y-60474670D01*
X83693982Y-60454153D01*
X83683754Y-60432529D01*
X83675696Y-60410007D01*
X83669884Y-60386803D01*
X83666374Y-60363142D01*
X83665200Y-60339250D01*
X83665200Y-59426750D01*
X83666374Y-59402858D01*
X83669884Y-59379197D01*
X83675696Y-59355993D01*
X83683754Y-59333471D01*
X83693982Y-59311847D01*
X83706279Y-59291330D01*
X83720529Y-59272117D01*
X83736593Y-59254393D01*
X83754317Y-59238329D01*
X83773530Y-59224079D01*
X83794047Y-59211782D01*
X83815671Y-59201554D01*
X83838193Y-59193496D01*
X83861397Y-59187684D01*
X83885058Y-59184174D01*
X83908950Y-59183000D01*
X84396450Y-59183000D01*
X84420342Y-59184174D01*
X84420342Y-59184174D01*
G37*
D11*
X84152700Y-59883000D03*
G04 #@! TD*
D10*
G04 #@! TO.C,C19*
G36*
X92294142Y-37401174D02*
X92317803Y-37404684D01*
X92341007Y-37410496D01*
X92363529Y-37418554D01*
X92385153Y-37428782D01*
X92405670Y-37441079D01*
X92424883Y-37455329D01*
X92442607Y-37471393D01*
X92458671Y-37489117D01*
X92472921Y-37508330D01*
X92485218Y-37528847D01*
X92495446Y-37550471D01*
X92503504Y-37572993D01*
X92509316Y-37596197D01*
X92512826Y-37619858D01*
X92514000Y-37643750D01*
X92514000Y-38556250D01*
X92512826Y-38580142D01*
X92509316Y-38603803D01*
X92503504Y-38627007D01*
X92495446Y-38649529D01*
X92485218Y-38671153D01*
X92472921Y-38691670D01*
X92458671Y-38710883D01*
X92442607Y-38728607D01*
X92424883Y-38744671D01*
X92405670Y-38758921D01*
X92385153Y-38771218D01*
X92363529Y-38781446D01*
X92341007Y-38789504D01*
X92317803Y-38795316D01*
X92294142Y-38798826D01*
X92270250Y-38800000D01*
X91782750Y-38800000D01*
X91758858Y-38798826D01*
X91735197Y-38795316D01*
X91711993Y-38789504D01*
X91689471Y-38781446D01*
X91667847Y-38771218D01*
X91647330Y-38758921D01*
X91628117Y-38744671D01*
X91610393Y-38728607D01*
X91594329Y-38710883D01*
X91580079Y-38691670D01*
X91567782Y-38671153D01*
X91557554Y-38649529D01*
X91549496Y-38627007D01*
X91543684Y-38603803D01*
X91540174Y-38580142D01*
X91539000Y-38556250D01*
X91539000Y-37643750D01*
X91540174Y-37619858D01*
X91543684Y-37596197D01*
X91549496Y-37572993D01*
X91557554Y-37550471D01*
X91567782Y-37528847D01*
X91580079Y-37508330D01*
X91594329Y-37489117D01*
X91610393Y-37471393D01*
X91628117Y-37455329D01*
X91647330Y-37441079D01*
X91667847Y-37428782D01*
X91689471Y-37418554D01*
X91711993Y-37410496D01*
X91735197Y-37404684D01*
X91758858Y-37401174D01*
X91782750Y-37400000D01*
X92270250Y-37400000D01*
X92294142Y-37401174D01*
X92294142Y-37401174D01*
G37*
D11*
X92026500Y-38100000D03*
D10*
G36*
X94169142Y-37401174D02*
X94192803Y-37404684D01*
X94216007Y-37410496D01*
X94238529Y-37418554D01*
X94260153Y-37428782D01*
X94280670Y-37441079D01*
X94299883Y-37455329D01*
X94317607Y-37471393D01*
X94333671Y-37489117D01*
X94347921Y-37508330D01*
X94360218Y-37528847D01*
X94370446Y-37550471D01*
X94378504Y-37572993D01*
X94384316Y-37596197D01*
X94387826Y-37619858D01*
X94389000Y-37643750D01*
X94389000Y-38556250D01*
X94387826Y-38580142D01*
X94384316Y-38603803D01*
X94378504Y-38627007D01*
X94370446Y-38649529D01*
X94360218Y-38671153D01*
X94347921Y-38691670D01*
X94333671Y-38710883D01*
X94317607Y-38728607D01*
X94299883Y-38744671D01*
X94280670Y-38758921D01*
X94260153Y-38771218D01*
X94238529Y-38781446D01*
X94216007Y-38789504D01*
X94192803Y-38795316D01*
X94169142Y-38798826D01*
X94145250Y-38800000D01*
X93657750Y-38800000D01*
X93633858Y-38798826D01*
X93610197Y-38795316D01*
X93586993Y-38789504D01*
X93564471Y-38781446D01*
X93542847Y-38771218D01*
X93522330Y-38758921D01*
X93503117Y-38744671D01*
X93485393Y-38728607D01*
X93469329Y-38710883D01*
X93455079Y-38691670D01*
X93442782Y-38671153D01*
X93432554Y-38649529D01*
X93424496Y-38627007D01*
X93418684Y-38603803D01*
X93415174Y-38580142D01*
X93414000Y-38556250D01*
X93414000Y-37643750D01*
X93415174Y-37619858D01*
X93418684Y-37596197D01*
X93424496Y-37572993D01*
X93432554Y-37550471D01*
X93442782Y-37528847D01*
X93455079Y-37508330D01*
X93469329Y-37489117D01*
X93485393Y-37471393D01*
X93503117Y-37455329D01*
X93522330Y-37441079D01*
X93542847Y-37428782D01*
X93564471Y-37418554D01*
X93586993Y-37410496D01*
X93610197Y-37404684D01*
X93633858Y-37401174D01*
X93657750Y-37400000D01*
X94145250Y-37400000D01*
X94169142Y-37401174D01*
X94169142Y-37401174D01*
G37*
D11*
X93901500Y-38100000D03*
G04 #@! TD*
D10*
G04 #@! TO.C,C11*
G36*
X96315242Y-32318674D02*
X96338903Y-32322184D01*
X96362107Y-32327996D01*
X96384629Y-32336054D01*
X96406253Y-32346282D01*
X96426770Y-32358579D01*
X96445983Y-32372829D01*
X96463707Y-32388893D01*
X96479771Y-32406617D01*
X96494021Y-32425830D01*
X96506318Y-32446347D01*
X96516546Y-32467971D01*
X96524604Y-32490493D01*
X96530416Y-32513697D01*
X96533926Y-32537358D01*
X96535100Y-32561250D01*
X96535100Y-33473750D01*
X96533926Y-33497642D01*
X96530416Y-33521303D01*
X96524604Y-33544507D01*
X96516546Y-33567029D01*
X96506318Y-33588653D01*
X96494021Y-33609170D01*
X96479771Y-33628383D01*
X96463707Y-33646107D01*
X96445983Y-33662171D01*
X96426770Y-33676421D01*
X96406253Y-33688718D01*
X96384629Y-33698946D01*
X96362107Y-33707004D01*
X96338903Y-33712816D01*
X96315242Y-33716326D01*
X96291350Y-33717500D01*
X95803850Y-33717500D01*
X95779958Y-33716326D01*
X95756297Y-33712816D01*
X95733093Y-33707004D01*
X95710571Y-33698946D01*
X95688947Y-33688718D01*
X95668430Y-33676421D01*
X95649217Y-33662171D01*
X95631493Y-33646107D01*
X95615429Y-33628383D01*
X95601179Y-33609170D01*
X95588882Y-33588653D01*
X95578654Y-33567029D01*
X95570596Y-33544507D01*
X95564784Y-33521303D01*
X95561274Y-33497642D01*
X95560100Y-33473750D01*
X95560100Y-32561250D01*
X95561274Y-32537358D01*
X95564784Y-32513697D01*
X95570596Y-32490493D01*
X95578654Y-32467971D01*
X95588882Y-32446347D01*
X95601179Y-32425830D01*
X95615429Y-32406617D01*
X95631493Y-32388893D01*
X95649217Y-32372829D01*
X95668430Y-32358579D01*
X95688947Y-32346282D01*
X95710571Y-32336054D01*
X95733093Y-32327996D01*
X95756297Y-32322184D01*
X95779958Y-32318674D01*
X95803850Y-32317500D01*
X96291350Y-32317500D01*
X96315242Y-32318674D01*
X96315242Y-32318674D01*
G37*
D11*
X96047600Y-33017500D03*
D10*
G36*
X94440242Y-32318674D02*
X94463903Y-32322184D01*
X94487107Y-32327996D01*
X94509629Y-32336054D01*
X94531253Y-32346282D01*
X94551770Y-32358579D01*
X94570983Y-32372829D01*
X94588707Y-32388893D01*
X94604771Y-32406617D01*
X94619021Y-32425830D01*
X94631318Y-32446347D01*
X94641546Y-32467971D01*
X94649604Y-32490493D01*
X94655416Y-32513697D01*
X94658926Y-32537358D01*
X94660100Y-32561250D01*
X94660100Y-33473750D01*
X94658926Y-33497642D01*
X94655416Y-33521303D01*
X94649604Y-33544507D01*
X94641546Y-33567029D01*
X94631318Y-33588653D01*
X94619021Y-33609170D01*
X94604771Y-33628383D01*
X94588707Y-33646107D01*
X94570983Y-33662171D01*
X94551770Y-33676421D01*
X94531253Y-33688718D01*
X94509629Y-33698946D01*
X94487107Y-33707004D01*
X94463903Y-33712816D01*
X94440242Y-33716326D01*
X94416350Y-33717500D01*
X93928850Y-33717500D01*
X93904958Y-33716326D01*
X93881297Y-33712816D01*
X93858093Y-33707004D01*
X93835571Y-33698946D01*
X93813947Y-33688718D01*
X93793430Y-33676421D01*
X93774217Y-33662171D01*
X93756493Y-33646107D01*
X93740429Y-33628383D01*
X93726179Y-33609170D01*
X93713882Y-33588653D01*
X93703654Y-33567029D01*
X93695596Y-33544507D01*
X93689784Y-33521303D01*
X93686274Y-33497642D01*
X93685100Y-33473750D01*
X93685100Y-32561250D01*
X93686274Y-32537358D01*
X93689784Y-32513697D01*
X93695596Y-32490493D01*
X93703654Y-32467971D01*
X93713882Y-32446347D01*
X93726179Y-32425830D01*
X93740429Y-32406617D01*
X93756493Y-32388893D01*
X93774217Y-32372829D01*
X93793430Y-32358579D01*
X93813947Y-32346282D01*
X93835571Y-32336054D01*
X93858093Y-32327996D01*
X93881297Y-32322184D01*
X93904958Y-32318674D01*
X93928850Y-32317500D01*
X94416350Y-32317500D01*
X94440242Y-32318674D01*
X94440242Y-32318674D01*
G37*
D11*
X94172600Y-33017500D03*
G04 #@! TD*
D10*
G04 #@! TO.C,C18*
G36*
X35636242Y-43926074D02*
X35659903Y-43929584D01*
X35683107Y-43935396D01*
X35705629Y-43943454D01*
X35727253Y-43953682D01*
X35747770Y-43965979D01*
X35766983Y-43980229D01*
X35784707Y-43996293D01*
X35800771Y-44014017D01*
X35815021Y-44033230D01*
X35827318Y-44053747D01*
X35837546Y-44075371D01*
X35845604Y-44097893D01*
X35851416Y-44121097D01*
X35854926Y-44144758D01*
X35856100Y-44168650D01*
X35856100Y-44656150D01*
X35854926Y-44680042D01*
X35851416Y-44703703D01*
X35845604Y-44726907D01*
X35837546Y-44749429D01*
X35827318Y-44771053D01*
X35815021Y-44791570D01*
X35800771Y-44810783D01*
X35784707Y-44828507D01*
X35766983Y-44844571D01*
X35747770Y-44858821D01*
X35727253Y-44871118D01*
X35705629Y-44881346D01*
X35683107Y-44889404D01*
X35659903Y-44895216D01*
X35636242Y-44898726D01*
X35612350Y-44899900D01*
X34699850Y-44899900D01*
X34675958Y-44898726D01*
X34652297Y-44895216D01*
X34629093Y-44889404D01*
X34606571Y-44881346D01*
X34584947Y-44871118D01*
X34564430Y-44858821D01*
X34545217Y-44844571D01*
X34527493Y-44828507D01*
X34511429Y-44810783D01*
X34497179Y-44791570D01*
X34484882Y-44771053D01*
X34474654Y-44749429D01*
X34466596Y-44726907D01*
X34460784Y-44703703D01*
X34457274Y-44680042D01*
X34456100Y-44656150D01*
X34456100Y-44168650D01*
X34457274Y-44144758D01*
X34460784Y-44121097D01*
X34466596Y-44097893D01*
X34474654Y-44075371D01*
X34484882Y-44053747D01*
X34497179Y-44033230D01*
X34511429Y-44014017D01*
X34527493Y-43996293D01*
X34545217Y-43980229D01*
X34564430Y-43965979D01*
X34584947Y-43953682D01*
X34606571Y-43943454D01*
X34629093Y-43935396D01*
X34652297Y-43929584D01*
X34675958Y-43926074D01*
X34699850Y-43924900D01*
X35612350Y-43924900D01*
X35636242Y-43926074D01*
X35636242Y-43926074D01*
G37*
D11*
X35156100Y-44412400D03*
D10*
G36*
X35636242Y-42051074D02*
X35659903Y-42054584D01*
X35683107Y-42060396D01*
X35705629Y-42068454D01*
X35727253Y-42078682D01*
X35747770Y-42090979D01*
X35766983Y-42105229D01*
X35784707Y-42121293D01*
X35800771Y-42139017D01*
X35815021Y-42158230D01*
X35827318Y-42178747D01*
X35837546Y-42200371D01*
X35845604Y-42222893D01*
X35851416Y-42246097D01*
X35854926Y-42269758D01*
X35856100Y-42293650D01*
X35856100Y-42781150D01*
X35854926Y-42805042D01*
X35851416Y-42828703D01*
X35845604Y-42851907D01*
X35837546Y-42874429D01*
X35827318Y-42896053D01*
X35815021Y-42916570D01*
X35800771Y-42935783D01*
X35784707Y-42953507D01*
X35766983Y-42969571D01*
X35747770Y-42983821D01*
X35727253Y-42996118D01*
X35705629Y-43006346D01*
X35683107Y-43014404D01*
X35659903Y-43020216D01*
X35636242Y-43023726D01*
X35612350Y-43024900D01*
X34699850Y-43024900D01*
X34675958Y-43023726D01*
X34652297Y-43020216D01*
X34629093Y-43014404D01*
X34606571Y-43006346D01*
X34584947Y-42996118D01*
X34564430Y-42983821D01*
X34545217Y-42969571D01*
X34527493Y-42953507D01*
X34511429Y-42935783D01*
X34497179Y-42916570D01*
X34484882Y-42896053D01*
X34474654Y-42874429D01*
X34466596Y-42851907D01*
X34460784Y-42828703D01*
X34457274Y-42805042D01*
X34456100Y-42781150D01*
X34456100Y-42293650D01*
X34457274Y-42269758D01*
X34460784Y-42246097D01*
X34466596Y-42222893D01*
X34474654Y-42200371D01*
X34484882Y-42178747D01*
X34497179Y-42158230D01*
X34511429Y-42139017D01*
X34527493Y-42121293D01*
X34545217Y-42105229D01*
X34564430Y-42090979D01*
X34584947Y-42078682D01*
X34606571Y-42068454D01*
X34629093Y-42060396D01*
X34652297Y-42054584D01*
X34675958Y-42051074D01*
X34699850Y-42049900D01*
X35612350Y-42049900D01*
X35636242Y-42051074D01*
X35636242Y-42051074D01*
G37*
D11*
X35156100Y-42537400D03*
G04 #@! TD*
D10*
G04 #@! TO.C,C9*
G36*
X70528642Y-105981174D02*
X70552303Y-105984684D01*
X70575507Y-105990496D01*
X70598029Y-105998554D01*
X70619653Y-106008782D01*
X70640170Y-106021079D01*
X70659383Y-106035329D01*
X70677107Y-106051393D01*
X70693171Y-106069117D01*
X70707421Y-106088330D01*
X70719718Y-106108847D01*
X70729946Y-106130471D01*
X70738004Y-106152993D01*
X70743816Y-106176197D01*
X70747326Y-106199858D01*
X70748500Y-106223750D01*
X70748500Y-107136250D01*
X70747326Y-107160142D01*
X70743816Y-107183803D01*
X70738004Y-107207007D01*
X70729946Y-107229529D01*
X70719718Y-107251153D01*
X70707421Y-107271670D01*
X70693171Y-107290883D01*
X70677107Y-107308607D01*
X70659383Y-107324671D01*
X70640170Y-107338921D01*
X70619653Y-107351218D01*
X70598029Y-107361446D01*
X70575507Y-107369504D01*
X70552303Y-107375316D01*
X70528642Y-107378826D01*
X70504750Y-107380000D01*
X70017250Y-107380000D01*
X69993358Y-107378826D01*
X69969697Y-107375316D01*
X69946493Y-107369504D01*
X69923971Y-107361446D01*
X69902347Y-107351218D01*
X69881830Y-107338921D01*
X69862617Y-107324671D01*
X69844893Y-107308607D01*
X69828829Y-107290883D01*
X69814579Y-107271670D01*
X69802282Y-107251153D01*
X69792054Y-107229529D01*
X69783996Y-107207007D01*
X69778184Y-107183803D01*
X69774674Y-107160142D01*
X69773500Y-107136250D01*
X69773500Y-106223750D01*
X69774674Y-106199858D01*
X69778184Y-106176197D01*
X69783996Y-106152993D01*
X69792054Y-106130471D01*
X69802282Y-106108847D01*
X69814579Y-106088330D01*
X69828829Y-106069117D01*
X69844893Y-106051393D01*
X69862617Y-106035329D01*
X69881830Y-106021079D01*
X69902347Y-106008782D01*
X69923971Y-105998554D01*
X69946493Y-105990496D01*
X69969697Y-105984684D01*
X69993358Y-105981174D01*
X70017250Y-105980000D01*
X70504750Y-105980000D01*
X70528642Y-105981174D01*
X70528642Y-105981174D01*
G37*
D11*
X70261000Y-106680000D03*
D10*
G36*
X72403642Y-105981174D02*
X72427303Y-105984684D01*
X72450507Y-105990496D01*
X72473029Y-105998554D01*
X72494653Y-106008782D01*
X72515170Y-106021079D01*
X72534383Y-106035329D01*
X72552107Y-106051393D01*
X72568171Y-106069117D01*
X72582421Y-106088330D01*
X72594718Y-106108847D01*
X72604946Y-106130471D01*
X72613004Y-106152993D01*
X72618816Y-106176197D01*
X72622326Y-106199858D01*
X72623500Y-106223750D01*
X72623500Y-107136250D01*
X72622326Y-107160142D01*
X72618816Y-107183803D01*
X72613004Y-107207007D01*
X72604946Y-107229529D01*
X72594718Y-107251153D01*
X72582421Y-107271670D01*
X72568171Y-107290883D01*
X72552107Y-107308607D01*
X72534383Y-107324671D01*
X72515170Y-107338921D01*
X72494653Y-107351218D01*
X72473029Y-107361446D01*
X72450507Y-107369504D01*
X72427303Y-107375316D01*
X72403642Y-107378826D01*
X72379750Y-107380000D01*
X71892250Y-107380000D01*
X71868358Y-107378826D01*
X71844697Y-107375316D01*
X71821493Y-107369504D01*
X71798971Y-107361446D01*
X71777347Y-107351218D01*
X71756830Y-107338921D01*
X71737617Y-107324671D01*
X71719893Y-107308607D01*
X71703829Y-107290883D01*
X71689579Y-107271670D01*
X71677282Y-107251153D01*
X71667054Y-107229529D01*
X71658996Y-107207007D01*
X71653184Y-107183803D01*
X71649674Y-107160142D01*
X71648500Y-107136250D01*
X71648500Y-106223750D01*
X71649674Y-106199858D01*
X71653184Y-106176197D01*
X71658996Y-106152993D01*
X71667054Y-106130471D01*
X71677282Y-106108847D01*
X71689579Y-106088330D01*
X71703829Y-106069117D01*
X71719893Y-106051393D01*
X71737617Y-106035329D01*
X71756830Y-106021079D01*
X71777347Y-106008782D01*
X71798971Y-105998554D01*
X71821493Y-105990496D01*
X71844697Y-105984684D01*
X71868358Y-105981174D01*
X71892250Y-105980000D01*
X72379750Y-105980000D01*
X72403642Y-105981174D01*
X72403642Y-105981174D01*
G37*
D11*
X72136000Y-106680000D03*
G04 #@! TD*
D10*
G04 #@! TO.C,C8*
G36*
X59076542Y-100827174D02*
X59100203Y-100830684D01*
X59123407Y-100836496D01*
X59145929Y-100844554D01*
X59167553Y-100854782D01*
X59188070Y-100867079D01*
X59207283Y-100881329D01*
X59225007Y-100897393D01*
X59241071Y-100915117D01*
X59255321Y-100934330D01*
X59267618Y-100954847D01*
X59277846Y-100976471D01*
X59285904Y-100998993D01*
X59291716Y-101022197D01*
X59295226Y-101045858D01*
X59296400Y-101069750D01*
X59296400Y-101982250D01*
X59295226Y-102006142D01*
X59291716Y-102029803D01*
X59285904Y-102053007D01*
X59277846Y-102075529D01*
X59267618Y-102097153D01*
X59255321Y-102117670D01*
X59241071Y-102136883D01*
X59225007Y-102154607D01*
X59207283Y-102170671D01*
X59188070Y-102184921D01*
X59167553Y-102197218D01*
X59145929Y-102207446D01*
X59123407Y-102215504D01*
X59100203Y-102221316D01*
X59076542Y-102224826D01*
X59052650Y-102226000D01*
X58565150Y-102226000D01*
X58541258Y-102224826D01*
X58517597Y-102221316D01*
X58494393Y-102215504D01*
X58471871Y-102207446D01*
X58450247Y-102197218D01*
X58429730Y-102184921D01*
X58410517Y-102170671D01*
X58392793Y-102154607D01*
X58376729Y-102136883D01*
X58362479Y-102117670D01*
X58350182Y-102097153D01*
X58339954Y-102075529D01*
X58331896Y-102053007D01*
X58326084Y-102029803D01*
X58322574Y-102006142D01*
X58321400Y-101982250D01*
X58321400Y-101069750D01*
X58322574Y-101045858D01*
X58326084Y-101022197D01*
X58331896Y-100998993D01*
X58339954Y-100976471D01*
X58350182Y-100954847D01*
X58362479Y-100934330D01*
X58376729Y-100915117D01*
X58392793Y-100897393D01*
X58410517Y-100881329D01*
X58429730Y-100867079D01*
X58450247Y-100854782D01*
X58471871Y-100844554D01*
X58494393Y-100836496D01*
X58517597Y-100830684D01*
X58541258Y-100827174D01*
X58565150Y-100826000D01*
X59052650Y-100826000D01*
X59076542Y-100827174D01*
X59076542Y-100827174D01*
G37*
D11*
X58808900Y-101526000D03*
D10*
G36*
X57201542Y-100827174D02*
X57225203Y-100830684D01*
X57248407Y-100836496D01*
X57270929Y-100844554D01*
X57292553Y-100854782D01*
X57313070Y-100867079D01*
X57332283Y-100881329D01*
X57350007Y-100897393D01*
X57366071Y-100915117D01*
X57380321Y-100934330D01*
X57392618Y-100954847D01*
X57402846Y-100976471D01*
X57410904Y-100998993D01*
X57416716Y-101022197D01*
X57420226Y-101045858D01*
X57421400Y-101069750D01*
X57421400Y-101982250D01*
X57420226Y-102006142D01*
X57416716Y-102029803D01*
X57410904Y-102053007D01*
X57402846Y-102075529D01*
X57392618Y-102097153D01*
X57380321Y-102117670D01*
X57366071Y-102136883D01*
X57350007Y-102154607D01*
X57332283Y-102170671D01*
X57313070Y-102184921D01*
X57292553Y-102197218D01*
X57270929Y-102207446D01*
X57248407Y-102215504D01*
X57225203Y-102221316D01*
X57201542Y-102224826D01*
X57177650Y-102226000D01*
X56690150Y-102226000D01*
X56666258Y-102224826D01*
X56642597Y-102221316D01*
X56619393Y-102215504D01*
X56596871Y-102207446D01*
X56575247Y-102197218D01*
X56554730Y-102184921D01*
X56535517Y-102170671D01*
X56517793Y-102154607D01*
X56501729Y-102136883D01*
X56487479Y-102117670D01*
X56475182Y-102097153D01*
X56464954Y-102075529D01*
X56456896Y-102053007D01*
X56451084Y-102029803D01*
X56447574Y-102006142D01*
X56446400Y-101982250D01*
X56446400Y-101069750D01*
X56447574Y-101045858D01*
X56451084Y-101022197D01*
X56456896Y-100998993D01*
X56464954Y-100976471D01*
X56475182Y-100954847D01*
X56487479Y-100934330D01*
X56501729Y-100915117D01*
X56517793Y-100897393D01*
X56535517Y-100881329D01*
X56554730Y-100867079D01*
X56575247Y-100854782D01*
X56596871Y-100844554D01*
X56619393Y-100836496D01*
X56642597Y-100830684D01*
X56666258Y-100827174D01*
X56690150Y-100826000D01*
X57177650Y-100826000D01*
X57201542Y-100827174D01*
X57201542Y-100827174D01*
G37*
D11*
X56933900Y-101526000D03*
G04 #@! TD*
D10*
G04 #@! TO.C,C7*
G36*
X75664142Y-101035174D02*
X75687803Y-101038684D01*
X75711007Y-101044496D01*
X75733529Y-101052554D01*
X75755153Y-101062782D01*
X75775670Y-101075079D01*
X75794883Y-101089329D01*
X75812607Y-101105393D01*
X75828671Y-101123117D01*
X75842921Y-101142330D01*
X75855218Y-101162847D01*
X75865446Y-101184471D01*
X75873504Y-101206993D01*
X75879316Y-101230197D01*
X75882826Y-101253858D01*
X75884000Y-101277750D01*
X75884000Y-101765250D01*
X75882826Y-101789142D01*
X75879316Y-101812803D01*
X75873504Y-101836007D01*
X75865446Y-101858529D01*
X75855218Y-101880153D01*
X75842921Y-101900670D01*
X75828671Y-101919883D01*
X75812607Y-101937607D01*
X75794883Y-101953671D01*
X75775670Y-101967921D01*
X75755153Y-101980218D01*
X75733529Y-101990446D01*
X75711007Y-101998504D01*
X75687803Y-102004316D01*
X75664142Y-102007826D01*
X75640250Y-102009000D01*
X74727750Y-102009000D01*
X74703858Y-102007826D01*
X74680197Y-102004316D01*
X74656993Y-101998504D01*
X74634471Y-101990446D01*
X74612847Y-101980218D01*
X74592330Y-101967921D01*
X74573117Y-101953671D01*
X74555393Y-101937607D01*
X74539329Y-101919883D01*
X74525079Y-101900670D01*
X74512782Y-101880153D01*
X74502554Y-101858529D01*
X74494496Y-101836007D01*
X74488684Y-101812803D01*
X74485174Y-101789142D01*
X74484000Y-101765250D01*
X74484000Y-101277750D01*
X74485174Y-101253858D01*
X74488684Y-101230197D01*
X74494496Y-101206993D01*
X74502554Y-101184471D01*
X74512782Y-101162847D01*
X74525079Y-101142330D01*
X74539329Y-101123117D01*
X74555393Y-101105393D01*
X74573117Y-101089329D01*
X74592330Y-101075079D01*
X74612847Y-101062782D01*
X74634471Y-101052554D01*
X74656993Y-101044496D01*
X74680197Y-101038684D01*
X74703858Y-101035174D01*
X74727750Y-101034000D01*
X75640250Y-101034000D01*
X75664142Y-101035174D01*
X75664142Y-101035174D01*
G37*
D11*
X75184000Y-101521500D03*
D10*
G36*
X75664142Y-99160174D02*
X75687803Y-99163684D01*
X75711007Y-99169496D01*
X75733529Y-99177554D01*
X75755153Y-99187782D01*
X75775670Y-99200079D01*
X75794883Y-99214329D01*
X75812607Y-99230393D01*
X75828671Y-99248117D01*
X75842921Y-99267330D01*
X75855218Y-99287847D01*
X75865446Y-99309471D01*
X75873504Y-99331993D01*
X75879316Y-99355197D01*
X75882826Y-99378858D01*
X75884000Y-99402750D01*
X75884000Y-99890250D01*
X75882826Y-99914142D01*
X75879316Y-99937803D01*
X75873504Y-99961007D01*
X75865446Y-99983529D01*
X75855218Y-100005153D01*
X75842921Y-100025670D01*
X75828671Y-100044883D01*
X75812607Y-100062607D01*
X75794883Y-100078671D01*
X75775670Y-100092921D01*
X75755153Y-100105218D01*
X75733529Y-100115446D01*
X75711007Y-100123504D01*
X75687803Y-100129316D01*
X75664142Y-100132826D01*
X75640250Y-100134000D01*
X74727750Y-100134000D01*
X74703858Y-100132826D01*
X74680197Y-100129316D01*
X74656993Y-100123504D01*
X74634471Y-100115446D01*
X74612847Y-100105218D01*
X74592330Y-100092921D01*
X74573117Y-100078671D01*
X74555393Y-100062607D01*
X74539329Y-100044883D01*
X74525079Y-100025670D01*
X74512782Y-100005153D01*
X74502554Y-99983529D01*
X74494496Y-99961007D01*
X74488684Y-99937803D01*
X74485174Y-99914142D01*
X74484000Y-99890250D01*
X74484000Y-99402750D01*
X74485174Y-99378858D01*
X74488684Y-99355197D01*
X74494496Y-99331993D01*
X74502554Y-99309471D01*
X74512782Y-99287847D01*
X74525079Y-99267330D01*
X74539329Y-99248117D01*
X74555393Y-99230393D01*
X74573117Y-99214329D01*
X74592330Y-99200079D01*
X74612847Y-99187782D01*
X74634471Y-99177554D01*
X74656993Y-99169496D01*
X74680197Y-99163684D01*
X74703858Y-99160174D01*
X74727750Y-99159000D01*
X75640250Y-99159000D01*
X75664142Y-99160174D01*
X75664142Y-99160174D01*
G37*
D11*
X75184000Y-99646500D03*
G04 #@! TD*
D10*
G04 #@! TO.C,C6*
G36*
X70293142Y-114109174D02*
X70316803Y-114112684D01*
X70340007Y-114118496D01*
X70362529Y-114126554D01*
X70384153Y-114136782D01*
X70404670Y-114149079D01*
X70423883Y-114163329D01*
X70441607Y-114179393D01*
X70457671Y-114197117D01*
X70471921Y-114216330D01*
X70484218Y-114236847D01*
X70494446Y-114258471D01*
X70502504Y-114280993D01*
X70508316Y-114304197D01*
X70511826Y-114327858D01*
X70513000Y-114351750D01*
X70513000Y-115264250D01*
X70511826Y-115288142D01*
X70508316Y-115311803D01*
X70502504Y-115335007D01*
X70494446Y-115357529D01*
X70484218Y-115379153D01*
X70471921Y-115399670D01*
X70457671Y-115418883D01*
X70441607Y-115436607D01*
X70423883Y-115452671D01*
X70404670Y-115466921D01*
X70384153Y-115479218D01*
X70362529Y-115489446D01*
X70340007Y-115497504D01*
X70316803Y-115503316D01*
X70293142Y-115506826D01*
X70269250Y-115508000D01*
X69781750Y-115508000D01*
X69757858Y-115506826D01*
X69734197Y-115503316D01*
X69710993Y-115497504D01*
X69688471Y-115489446D01*
X69666847Y-115479218D01*
X69646330Y-115466921D01*
X69627117Y-115452671D01*
X69609393Y-115436607D01*
X69593329Y-115418883D01*
X69579079Y-115399670D01*
X69566782Y-115379153D01*
X69556554Y-115357529D01*
X69548496Y-115335007D01*
X69542684Y-115311803D01*
X69539174Y-115288142D01*
X69538000Y-115264250D01*
X69538000Y-114351750D01*
X69539174Y-114327858D01*
X69542684Y-114304197D01*
X69548496Y-114280993D01*
X69556554Y-114258471D01*
X69566782Y-114236847D01*
X69579079Y-114216330D01*
X69593329Y-114197117D01*
X69609393Y-114179393D01*
X69627117Y-114163329D01*
X69646330Y-114149079D01*
X69666847Y-114136782D01*
X69688471Y-114126554D01*
X69710993Y-114118496D01*
X69734197Y-114112684D01*
X69757858Y-114109174D01*
X69781750Y-114108000D01*
X70269250Y-114108000D01*
X70293142Y-114109174D01*
X70293142Y-114109174D01*
G37*
D11*
X70025500Y-114808000D03*
D10*
G36*
X68418142Y-114109174D02*
X68441803Y-114112684D01*
X68465007Y-114118496D01*
X68487529Y-114126554D01*
X68509153Y-114136782D01*
X68529670Y-114149079D01*
X68548883Y-114163329D01*
X68566607Y-114179393D01*
X68582671Y-114197117D01*
X68596921Y-114216330D01*
X68609218Y-114236847D01*
X68619446Y-114258471D01*
X68627504Y-114280993D01*
X68633316Y-114304197D01*
X68636826Y-114327858D01*
X68638000Y-114351750D01*
X68638000Y-115264250D01*
X68636826Y-115288142D01*
X68633316Y-115311803D01*
X68627504Y-115335007D01*
X68619446Y-115357529D01*
X68609218Y-115379153D01*
X68596921Y-115399670D01*
X68582671Y-115418883D01*
X68566607Y-115436607D01*
X68548883Y-115452671D01*
X68529670Y-115466921D01*
X68509153Y-115479218D01*
X68487529Y-115489446D01*
X68465007Y-115497504D01*
X68441803Y-115503316D01*
X68418142Y-115506826D01*
X68394250Y-115508000D01*
X67906750Y-115508000D01*
X67882858Y-115506826D01*
X67859197Y-115503316D01*
X67835993Y-115497504D01*
X67813471Y-115489446D01*
X67791847Y-115479218D01*
X67771330Y-115466921D01*
X67752117Y-115452671D01*
X67734393Y-115436607D01*
X67718329Y-115418883D01*
X67704079Y-115399670D01*
X67691782Y-115379153D01*
X67681554Y-115357529D01*
X67673496Y-115335007D01*
X67667684Y-115311803D01*
X67664174Y-115288142D01*
X67663000Y-115264250D01*
X67663000Y-114351750D01*
X67664174Y-114327858D01*
X67667684Y-114304197D01*
X67673496Y-114280993D01*
X67681554Y-114258471D01*
X67691782Y-114236847D01*
X67704079Y-114216330D01*
X67718329Y-114197117D01*
X67734393Y-114179393D01*
X67752117Y-114163329D01*
X67771330Y-114149079D01*
X67791847Y-114136782D01*
X67813471Y-114126554D01*
X67835993Y-114118496D01*
X67859197Y-114112684D01*
X67882858Y-114109174D01*
X67906750Y-114108000D01*
X68394250Y-114108000D01*
X68418142Y-114109174D01*
X68418142Y-114109174D01*
G37*
D11*
X68150500Y-114808000D03*
G04 #@! TD*
D10*
G04 #@! TO.C,C20*
G36*
X78857342Y-48193674D02*
X78881003Y-48197184D01*
X78904207Y-48202996D01*
X78926729Y-48211054D01*
X78948353Y-48221282D01*
X78968870Y-48233579D01*
X78988083Y-48247829D01*
X79005807Y-48263893D01*
X79021871Y-48281617D01*
X79036121Y-48300830D01*
X79048418Y-48321347D01*
X79058646Y-48342971D01*
X79066704Y-48365493D01*
X79072516Y-48388697D01*
X79076026Y-48412358D01*
X79077200Y-48436250D01*
X79077200Y-49348750D01*
X79076026Y-49372642D01*
X79072516Y-49396303D01*
X79066704Y-49419507D01*
X79058646Y-49442029D01*
X79048418Y-49463653D01*
X79036121Y-49484170D01*
X79021871Y-49503383D01*
X79005807Y-49521107D01*
X78988083Y-49537171D01*
X78968870Y-49551421D01*
X78948353Y-49563718D01*
X78926729Y-49573946D01*
X78904207Y-49582004D01*
X78881003Y-49587816D01*
X78857342Y-49591326D01*
X78833450Y-49592500D01*
X78345950Y-49592500D01*
X78322058Y-49591326D01*
X78298397Y-49587816D01*
X78275193Y-49582004D01*
X78252671Y-49573946D01*
X78231047Y-49563718D01*
X78210530Y-49551421D01*
X78191317Y-49537171D01*
X78173593Y-49521107D01*
X78157529Y-49503383D01*
X78143279Y-49484170D01*
X78130982Y-49463653D01*
X78120754Y-49442029D01*
X78112696Y-49419507D01*
X78106884Y-49396303D01*
X78103374Y-49372642D01*
X78102200Y-49348750D01*
X78102200Y-48436250D01*
X78103374Y-48412358D01*
X78106884Y-48388697D01*
X78112696Y-48365493D01*
X78120754Y-48342971D01*
X78130982Y-48321347D01*
X78143279Y-48300830D01*
X78157529Y-48281617D01*
X78173593Y-48263893D01*
X78191317Y-48247829D01*
X78210530Y-48233579D01*
X78231047Y-48221282D01*
X78252671Y-48211054D01*
X78275193Y-48202996D01*
X78298397Y-48197184D01*
X78322058Y-48193674D01*
X78345950Y-48192500D01*
X78833450Y-48192500D01*
X78857342Y-48193674D01*
X78857342Y-48193674D01*
G37*
D11*
X78589700Y-48892500D03*
D10*
G36*
X80732342Y-48193674D02*
X80756003Y-48197184D01*
X80779207Y-48202996D01*
X80801729Y-48211054D01*
X80823353Y-48221282D01*
X80843870Y-48233579D01*
X80863083Y-48247829D01*
X80880807Y-48263893D01*
X80896871Y-48281617D01*
X80911121Y-48300830D01*
X80923418Y-48321347D01*
X80933646Y-48342971D01*
X80941704Y-48365493D01*
X80947516Y-48388697D01*
X80951026Y-48412358D01*
X80952200Y-48436250D01*
X80952200Y-49348750D01*
X80951026Y-49372642D01*
X80947516Y-49396303D01*
X80941704Y-49419507D01*
X80933646Y-49442029D01*
X80923418Y-49463653D01*
X80911121Y-49484170D01*
X80896871Y-49503383D01*
X80880807Y-49521107D01*
X80863083Y-49537171D01*
X80843870Y-49551421D01*
X80823353Y-49563718D01*
X80801729Y-49573946D01*
X80779207Y-49582004D01*
X80756003Y-49587816D01*
X80732342Y-49591326D01*
X80708450Y-49592500D01*
X80220950Y-49592500D01*
X80197058Y-49591326D01*
X80173397Y-49587816D01*
X80150193Y-49582004D01*
X80127671Y-49573946D01*
X80106047Y-49563718D01*
X80085530Y-49551421D01*
X80066317Y-49537171D01*
X80048593Y-49521107D01*
X80032529Y-49503383D01*
X80018279Y-49484170D01*
X80005982Y-49463653D01*
X79995754Y-49442029D01*
X79987696Y-49419507D01*
X79981884Y-49396303D01*
X79978374Y-49372642D01*
X79977200Y-49348750D01*
X79977200Y-48436250D01*
X79978374Y-48412358D01*
X79981884Y-48388697D01*
X79987696Y-48365493D01*
X79995754Y-48342971D01*
X80005982Y-48321347D01*
X80018279Y-48300830D01*
X80032529Y-48281617D01*
X80048593Y-48263893D01*
X80066317Y-48247829D01*
X80085530Y-48233579D01*
X80106047Y-48221282D01*
X80127671Y-48211054D01*
X80150193Y-48202996D01*
X80173397Y-48197184D01*
X80197058Y-48193674D01*
X80220950Y-48192500D01*
X80708450Y-48192500D01*
X80732342Y-48193674D01*
X80732342Y-48193674D01*
G37*
D11*
X80464700Y-48892500D03*
G04 #@! TD*
D10*
G04 #@! TO.C,C10*
G36*
X62266542Y-58980974D02*
X62290203Y-58984484D01*
X62313407Y-58990296D01*
X62335929Y-58998354D01*
X62357553Y-59008582D01*
X62378070Y-59020879D01*
X62397283Y-59035129D01*
X62415007Y-59051193D01*
X62431071Y-59068917D01*
X62445321Y-59088130D01*
X62457618Y-59108647D01*
X62467846Y-59130271D01*
X62475904Y-59152793D01*
X62481716Y-59175997D01*
X62485226Y-59199658D01*
X62486400Y-59223550D01*
X62486400Y-60136050D01*
X62485226Y-60159942D01*
X62481716Y-60183603D01*
X62475904Y-60206807D01*
X62467846Y-60229329D01*
X62457618Y-60250953D01*
X62445321Y-60271470D01*
X62431071Y-60290683D01*
X62415007Y-60308407D01*
X62397283Y-60324471D01*
X62378070Y-60338721D01*
X62357553Y-60351018D01*
X62335929Y-60361246D01*
X62313407Y-60369304D01*
X62290203Y-60375116D01*
X62266542Y-60378626D01*
X62242650Y-60379800D01*
X61755150Y-60379800D01*
X61731258Y-60378626D01*
X61707597Y-60375116D01*
X61684393Y-60369304D01*
X61661871Y-60361246D01*
X61640247Y-60351018D01*
X61619730Y-60338721D01*
X61600517Y-60324471D01*
X61582793Y-60308407D01*
X61566729Y-60290683D01*
X61552479Y-60271470D01*
X61540182Y-60250953D01*
X61529954Y-60229329D01*
X61521896Y-60206807D01*
X61516084Y-60183603D01*
X61512574Y-60159942D01*
X61511400Y-60136050D01*
X61511400Y-59223550D01*
X61512574Y-59199658D01*
X61516084Y-59175997D01*
X61521896Y-59152793D01*
X61529954Y-59130271D01*
X61540182Y-59108647D01*
X61552479Y-59088130D01*
X61566729Y-59068917D01*
X61582793Y-59051193D01*
X61600517Y-59035129D01*
X61619730Y-59020879D01*
X61640247Y-59008582D01*
X61661871Y-58998354D01*
X61684393Y-58990296D01*
X61707597Y-58984484D01*
X61731258Y-58980974D01*
X61755150Y-58979800D01*
X62242650Y-58979800D01*
X62266542Y-58980974D01*
X62266542Y-58980974D01*
G37*
D11*
X61998900Y-59679800D03*
D10*
G36*
X60391542Y-58980974D02*
X60415203Y-58984484D01*
X60438407Y-58990296D01*
X60460929Y-58998354D01*
X60482553Y-59008582D01*
X60503070Y-59020879D01*
X60522283Y-59035129D01*
X60540007Y-59051193D01*
X60556071Y-59068917D01*
X60570321Y-59088130D01*
X60582618Y-59108647D01*
X60592846Y-59130271D01*
X60600904Y-59152793D01*
X60606716Y-59175997D01*
X60610226Y-59199658D01*
X60611400Y-59223550D01*
X60611400Y-60136050D01*
X60610226Y-60159942D01*
X60606716Y-60183603D01*
X60600904Y-60206807D01*
X60592846Y-60229329D01*
X60582618Y-60250953D01*
X60570321Y-60271470D01*
X60556071Y-60290683D01*
X60540007Y-60308407D01*
X60522283Y-60324471D01*
X60503070Y-60338721D01*
X60482553Y-60351018D01*
X60460929Y-60361246D01*
X60438407Y-60369304D01*
X60415203Y-60375116D01*
X60391542Y-60378626D01*
X60367650Y-60379800D01*
X59880150Y-60379800D01*
X59856258Y-60378626D01*
X59832597Y-60375116D01*
X59809393Y-60369304D01*
X59786871Y-60361246D01*
X59765247Y-60351018D01*
X59744730Y-60338721D01*
X59725517Y-60324471D01*
X59707793Y-60308407D01*
X59691729Y-60290683D01*
X59677479Y-60271470D01*
X59665182Y-60250953D01*
X59654954Y-60229329D01*
X59646896Y-60206807D01*
X59641084Y-60183603D01*
X59637574Y-60159942D01*
X59636400Y-60136050D01*
X59636400Y-59223550D01*
X59637574Y-59199658D01*
X59641084Y-59175997D01*
X59646896Y-59152793D01*
X59654954Y-59130271D01*
X59665182Y-59108647D01*
X59677479Y-59088130D01*
X59691729Y-59068917D01*
X59707793Y-59051193D01*
X59725517Y-59035129D01*
X59744730Y-59020879D01*
X59765247Y-59008582D01*
X59786871Y-58998354D01*
X59809393Y-58990296D01*
X59832597Y-58984484D01*
X59856258Y-58980974D01*
X59880150Y-58979800D01*
X60367650Y-58979800D01*
X60391542Y-58980974D01*
X60391542Y-58980974D01*
G37*
D11*
X60123900Y-59679800D03*
G04 #@! TD*
D10*
G04 #@! TO.C,C14*
G36*
X65451642Y-41935074D02*
X65475303Y-41938584D01*
X65498507Y-41944396D01*
X65521029Y-41952454D01*
X65542653Y-41962682D01*
X65563170Y-41974979D01*
X65582383Y-41989229D01*
X65600107Y-42005293D01*
X65616171Y-42023017D01*
X65630421Y-42042230D01*
X65642718Y-42062747D01*
X65652946Y-42084371D01*
X65661004Y-42106893D01*
X65666816Y-42130097D01*
X65670326Y-42153758D01*
X65671500Y-42177650D01*
X65671500Y-43090150D01*
X65670326Y-43114042D01*
X65666816Y-43137703D01*
X65661004Y-43160907D01*
X65652946Y-43183429D01*
X65642718Y-43205053D01*
X65630421Y-43225570D01*
X65616171Y-43244783D01*
X65600107Y-43262507D01*
X65582383Y-43278571D01*
X65563170Y-43292821D01*
X65542653Y-43305118D01*
X65521029Y-43315346D01*
X65498507Y-43323404D01*
X65475303Y-43329216D01*
X65451642Y-43332726D01*
X65427750Y-43333900D01*
X64940250Y-43333900D01*
X64916358Y-43332726D01*
X64892697Y-43329216D01*
X64869493Y-43323404D01*
X64846971Y-43315346D01*
X64825347Y-43305118D01*
X64804830Y-43292821D01*
X64785617Y-43278571D01*
X64767893Y-43262507D01*
X64751829Y-43244783D01*
X64737579Y-43225570D01*
X64725282Y-43205053D01*
X64715054Y-43183429D01*
X64706996Y-43160907D01*
X64701184Y-43137703D01*
X64697674Y-43114042D01*
X64696500Y-43090150D01*
X64696500Y-42177650D01*
X64697674Y-42153758D01*
X64701184Y-42130097D01*
X64706996Y-42106893D01*
X64715054Y-42084371D01*
X64725282Y-42062747D01*
X64737579Y-42042230D01*
X64751829Y-42023017D01*
X64767893Y-42005293D01*
X64785617Y-41989229D01*
X64804830Y-41974979D01*
X64825347Y-41962682D01*
X64846971Y-41952454D01*
X64869493Y-41944396D01*
X64892697Y-41938584D01*
X64916358Y-41935074D01*
X64940250Y-41933900D01*
X65427750Y-41933900D01*
X65451642Y-41935074D01*
X65451642Y-41935074D01*
G37*
D11*
X65184000Y-42633900D03*
D10*
G36*
X63576642Y-41935074D02*
X63600303Y-41938584D01*
X63623507Y-41944396D01*
X63646029Y-41952454D01*
X63667653Y-41962682D01*
X63688170Y-41974979D01*
X63707383Y-41989229D01*
X63725107Y-42005293D01*
X63741171Y-42023017D01*
X63755421Y-42042230D01*
X63767718Y-42062747D01*
X63777946Y-42084371D01*
X63786004Y-42106893D01*
X63791816Y-42130097D01*
X63795326Y-42153758D01*
X63796500Y-42177650D01*
X63796500Y-43090150D01*
X63795326Y-43114042D01*
X63791816Y-43137703D01*
X63786004Y-43160907D01*
X63777946Y-43183429D01*
X63767718Y-43205053D01*
X63755421Y-43225570D01*
X63741171Y-43244783D01*
X63725107Y-43262507D01*
X63707383Y-43278571D01*
X63688170Y-43292821D01*
X63667653Y-43305118D01*
X63646029Y-43315346D01*
X63623507Y-43323404D01*
X63600303Y-43329216D01*
X63576642Y-43332726D01*
X63552750Y-43333900D01*
X63065250Y-43333900D01*
X63041358Y-43332726D01*
X63017697Y-43329216D01*
X62994493Y-43323404D01*
X62971971Y-43315346D01*
X62950347Y-43305118D01*
X62929830Y-43292821D01*
X62910617Y-43278571D01*
X62892893Y-43262507D01*
X62876829Y-43244783D01*
X62862579Y-43225570D01*
X62850282Y-43205053D01*
X62840054Y-43183429D01*
X62831996Y-43160907D01*
X62826184Y-43137703D01*
X62822674Y-43114042D01*
X62821500Y-43090150D01*
X62821500Y-42177650D01*
X62822674Y-42153758D01*
X62826184Y-42130097D01*
X62831996Y-42106893D01*
X62840054Y-42084371D01*
X62850282Y-42062747D01*
X62862579Y-42042230D01*
X62876829Y-42023017D01*
X62892893Y-42005293D01*
X62910617Y-41989229D01*
X62929830Y-41974979D01*
X62950347Y-41962682D01*
X62971971Y-41952454D01*
X62994493Y-41944396D01*
X63017697Y-41938584D01*
X63041358Y-41935074D01*
X63065250Y-41933900D01*
X63552750Y-41933900D01*
X63576642Y-41935074D01*
X63576642Y-41935074D01*
G37*
D11*
X63309000Y-42633900D03*
G04 #@! TD*
D10*
G04 #@! TO.C,C3*
G36*
X20038142Y-25833174D02*
X20061803Y-25836684D01*
X20085007Y-25842496D01*
X20107529Y-25850554D01*
X20129153Y-25860782D01*
X20149670Y-25873079D01*
X20168883Y-25887329D01*
X20186607Y-25903393D01*
X20202671Y-25921117D01*
X20216921Y-25940330D01*
X20229218Y-25960847D01*
X20239446Y-25982471D01*
X20247504Y-26004993D01*
X20253316Y-26028197D01*
X20256826Y-26051858D01*
X20258000Y-26075750D01*
X20258000Y-26563250D01*
X20256826Y-26587142D01*
X20253316Y-26610803D01*
X20247504Y-26634007D01*
X20239446Y-26656529D01*
X20229218Y-26678153D01*
X20216921Y-26698670D01*
X20202671Y-26717883D01*
X20186607Y-26735607D01*
X20168883Y-26751671D01*
X20149670Y-26765921D01*
X20129153Y-26778218D01*
X20107529Y-26788446D01*
X20085007Y-26796504D01*
X20061803Y-26802316D01*
X20038142Y-26805826D01*
X20014250Y-26807000D01*
X19101750Y-26807000D01*
X19077858Y-26805826D01*
X19054197Y-26802316D01*
X19030993Y-26796504D01*
X19008471Y-26788446D01*
X18986847Y-26778218D01*
X18966330Y-26765921D01*
X18947117Y-26751671D01*
X18929393Y-26735607D01*
X18913329Y-26717883D01*
X18899079Y-26698670D01*
X18886782Y-26678153D01*
X18876554Y-26656529D01*
X18868496Y-26634007D01*
X18862684Y-26610803D01*
X18859174Y-26587142D01*
X18858000Y-26563250D01*
X18858000Y-26075750D01*
X18859174Y-26051858D01*
X18862684Y-26028197D01*
X18868496Y-26004993D01*
X18876554Y-25982471D01*
X18886782Y-25960847D01*
X18899079Y-25940330D01*
X18913329Y-25921117D01*
X18929393Y-25903393D01*
X18947117Y-25887329D01*
X18966330Y-25873079D01*
X18986847Y-25860782D01*
X19008471Y-25850554D01*
X19030993Y-25842496D01*
X19054197Y-25836684D01*
X19077858Y-25833174D01*
X19101750Y-25832000D01*
X20014250Y-25832000D01*
X20038142Y-25833174D01*
X20038142Y-25833174D01*
G37*
D11*
X19558000Y-26319500D03*
D10*
G36*
X20038142Y-27708174D02*
X20061803Y-27711684D01*
X20085007Y-27717496D01*
X20107529Y-27725554D01*
X20129153Y-27735782D01*
X20149670Y-27748079D01*
X20168883Y-27762329D01*
X20186607Y-27778393D01*
X20202671Y-27796117D01*
X20216921Y-27815330D01*
X20229218Y-27835847D01*
X20239446Y-27857471D01*
X20247504Y-27879993D01*
X20253316Y-27903197D01*
X20256826Y-27926858D01*
X20258000Y-27950750D01*
X20258000Y-28438250D01*
X20256826Y-28462142D01*
X20253316Y-28485803D01*
X20247504Y-28509007D01*
X20239446Y-28531529D01*
X20229218Y-28553153D01*
X20216921Y-28573670D01*
X20202671Y-28592883D01*
X20186607Y-28610607D01*
X20168883Y-28626671D01*
X20149670Y-28640921D01*
X20129153Y-28653218D01*
X20107529Y-28663446D01*
X20085007Y-28671504D01*
X20061803Y-28677316D01*
X20038142Y-28680826D01*
X20014250Y-28682000D01*
X19101750Y-28682000D01*
X19077858Y-28680826D01*
X19054197Y-28677316D01*
X19030993Y-28671504D01*
X19008471Y-28663446D01*
X18986847Y-28653218D01*
X18966330Y-28640921D01*
X18947117Y-28626671D01*
X18929393Y-28610607D01*
X18913329Y-28592883D01*
X18899079Y-28573670D01*
X18886782Y-28553153D01*
X18876554Y-28531529D01*
X18868496Y-28509007D01*
X18862684Y-28485803D01*
X18859174Y-28462142D01*
X18858000Y-28438250D01*
X18858000Y-27950750D01*
X18859174Y-27926858D01*
X18862684Y-27903197D01*
X18868496Y-27879993D01*
X18876554Y-27857471D01*
X18886782Y-27835847D01*
X18899079Y-27815330D01*
X18913329Y-27796117D01*
X18929393Y-27778393D01*
X18947117Y-27762329D01*
X18966330Y-27748079D01*
X18986847Y-27735782D01*
X19008471Y-27725554D01*
X19030993Y-27717496D01*
X19054197Y-27711684D01*
X19077858Y-27708174D01*
X19101750Y-27707000D01*
X20014250Y-27707000D01*
X20038142Y-27708174D01*
X20038142Y-27708174D01*
G37*
D11*
X19558000Y-28194500D03*
G04 #@! TD*
D10*
G04 #@! TO.C,D10*
G36*
X80822842Y-22005574D02*
X80846503Y-22009084D01*
X80869707Y-22014896D01*
X80892229Y-22022954D01*
X80913853Y-22033182D01*
X80934370Y-22045479D01*
X80953583Y-22059729D01*
X80971307Y-22075793D01*
X80987371Y-22093517D01*
X81001621Y-22112730D01*
X81013918Y-22133247D01*
X81024146Y-22154871D01*
X81032204Y-22177393D01*
X81038016Y-22200597D01*
X81041526Y-22224258D01*
X81042700Y-22248150D01*
X81042700Y-22735650D01*
X81041526Y-22759542D01*
X81038016Y-22783203D01*
X81032204Y-22806407D01*
X81024146Y-22828929D01*
X81013918Y-22850553D01*
X81001621Y-22871070D01*
X80987371Y-22890283D01*
X80971307Y-22908007D01*
X80953583Y-22924071D01*
X80934370Y-22938321D01*
X80913853Y-22950618D01*
X80892229Y-22960846D01*
X80869707Y-22968904D01*
X80846503Y-22974716D01*
X80822842Y-22978226D01*
X80798950Y-22979400D01*
X79886450Y-22979400D01*
X79862558Y-22978226D01*
X79838897Y-22974716D01*
X79815693Y-22968904D01*
X79793171Y-22960846D01*
X79771547Y-22950618D01*
X79751030Y-22938321D01*
X79731817Y-22924071D01*
X79714093Y-22908007D01*
X79698029Y-22890283D01*
X79683779Y-22871070D01*
X79671482Y-22850553D01*
X79661254Y-22828929D01*
X79653196Y-22806407D01*
X79647384Y-22783203D01*
X79643874Y-22759542D01*
X79642700Y-22735650D01*
X79642700Y-22248150D01*
X79643874Y-22224258D01*
X79647384Y-22200597D01*
X79653196Y-22177393D01*
X79661254Y-22154871D01*
X79671482Y-22133247D01*
X79683779Y-22112730D01*
X79698029Y-22093517D01*
X79714093Y-22075793D01*
X79731817Y-22059729D01*
X79751030Y-22045479D01*
X79771547Y-22033182D01*
X79793171Y-22022954D01*
X79815693Y-22014896D01*
X79838897Y-22009084D01*
X79862558Y-22005574D01*
X79886450Y-22004400D01*
X80798950Y-22004400D01*
X80822842Y-22005574D01*
X80822842Y-22005574D01*
G37*
D11*
X80342700Y-22491900D03*
D10*
G36*
X80822842Y-20130574D02*
X80846503Y-20134084D01*
X80869707Y-20139896D01*
X80892229Y-20147954D01*
X80913853Y-20158182D01*
X80934370Y-20170479D01*
X80953583Y-20184729D01*
X80971307Y-20200793D01*
X80987371Y-20218517D01*
X81001621Y-20237730D01*
X81013918Y-20258247D01*
X81024146Y-20279871D01*
X81032204Y-20302393D01*
X81038016Y-20325597D01*
X81041526Y-20349258D01*
X81042700Y-20373150D01*
X81042700Y-20860650D01*
X81041526Y-20884542D01*
X81038016Y-20908203D01*
X81032204Y-20931407D01*
X81024146Y-20953929D01*
X81013918Y-20975553D01*
X81001621Y-20996070D01*
X80987371Y-21015283D01*
X80971307Y-21033007D01*
X80953583Y-21049071D01*
X80934370Y-21063321D01*
X80913853Y-21075618D01*
X80892229Y-21085846D01*
X80869707Y-21093904D01*
X80846503Y-21099716D01*
X80822842Y-21103226D01*
X80798950Y-21104400D01*
X79886450Y-21104400D01*
X79862558Y-21103226D01*
X79838897Y-21099716D01*
X79815693Y-21093904D01*
X79793171Y-21085846D01*
X79771547Y-21075618D01*
X79751030Y-21063321D01*
X79731817Y-21049071D01*
X79714093Y-21033007D01*
X79698029Y-21015283D01*
X79683779Y-20996070D01*
X79671482Y-20975553D01*
X79661254Y-20953929D01*
X79653196Y-20931407D01*
X79647384Y-20908203D01*
X79643874Y-20884542D01*
X79642700Y-20860650D01*
X79642700Y-20373150D01*
X79643874Y-20349258D01*
X79647384Y-20325597D01*
X79653196Y-20302393D01*
X79661254Y-20279871D01*
X79671482Y-20258247D01*
X79683779Y-20237730D01*
X79698029Y-20218517D01*
X79714093Y-20200793D01*
X79731817Y-20184729D01*
X79751030Y-20170479D01*
X79771547Y-20158182D01*
X79793171Y-20147954D01*
X79815693Y-20139896D01*
X79838897Y-20134084D01*
X79862558Y-20130574D01*
X79886450Y-20129400D01*
X80798950Y-20129400D01*
X80822842Y-20130574D01*
X80822842Y-20130574D01*
G37*
D11*
X80342700Y-20616900D03*
G04 #@! TD*
D10*
G04 #@! TO.C,R21*
G36*
X114095142Y-60357674D02*
X114118803Y-60361184D01*
X114142007Y-60366996D01*
X114164529Y-60375054D01*
X114186153Y-60385282D01*
X114206670Y-60397579D01*
X114225883Y-60411829D01*
X114243607Y-60427893D01*
X114259671Y-60445617D01*
X114273921Y-60464830D01*
X114286218Y-60485347D01*
X114296446Y-60506971D01*
X114304504Y-60529493D01*
X114310316Y-60552697D01*
X114313826Y-60576358D01*
X114315000Y-60600250D01*
X114315000Y-61512750D01*
X114313826Y-61536642D01*
X114310316Y-61560303D01*
X114304504Y-61583507D01*
X114296446Y-61606029D01*
X114286218Y-61627653D01*
X114273921Y-61648170D01*
X114259671Y-61667383D01*
X114243607Y-61685107D01*
X114225883Y-61701171D01*
X114206670Y-61715421D01*
X114186153Y-61727718D01*
X114164529Y-61737946D01*
X114142007Y-61746004D01*
X114118803Y-61751816D01*
X114095142Y-61755326D01*
X114071250Y-61756500D01*
X113583750Y-61756500D01*
X113559858Y-61755326D01*
X113536197Y-61751816D01*
X113512993Y-61746004D01*
X113490471Y-61737946D01*
X113468847Y-61727718D01*
X113448330Y-61715421D01*
X113429117Y-61701171D01*
X113411393Y-61685107D01*
X113395329Y-61667383D01*
X113381079Y-61648170D01*
X113368782Y-61627653D01*
X113358554Y-61606029D01*
X113350496Y-61583507D01*
X113344684Y-61560303D01*
X113341174Y-61536642D01*
X113340000Y-61512750D01*
X113340000Y-60600250D01*
X113341174Y-60576358D01*
X113344684Y-60552697D01*
X113350496Y-60529493D01*
X113358554Y-60506971D01*
X113368782Y-60485347D01*
X113381079Y-60464830D01*
X113395329Y-60445617D01*
X113411393Y-60427893D01*
X113429117Y-60411829D01*
X113448330Y-60397579D01*
X113468847Y-60385282D01*
X113490471Y-60375054D01*
X113512993Y-60366996D01*
X113536197Y-60361184D01*
X113559858Y-60357674D01*
X113583750Y-60356500D01*
X114071250Y-60356500D01*
X114095142Y-60357674D01*
X114095142Y-60357674D01*
G37*
D11*
X113827500Y-61056500D03*
D10*
G36*
X112220142Y-60357674D02*
X112243803Y-60361184D01*
X112267007Y-60366996D01*
X112289529Y-60375054D01*
X112311153Y-60385282D01*
X112331670Y-60397579D01*
X112350883Y-60411829D01*
X112368607Y-60427893D01*
X112384671Y-60445617D01*
X112398921Y-60464830D01*
X112411218Y-60485347D01*
X112421446Y-60506971D01*
X112429504Y-60529493D01*
X112435316Y-60552697D01*
X112438826Y-60576358D01*
X112440000Y-60600250D01*
X112440000Y-61512750D01*
X112438826Y-61536642D01*
X112435316Y-61560303D01*
X112429504Y-61583507D01*
X112421446Y-61606029D01*
X112411218Y-61627653D01*
X112398921Y-61648170D01*
X112384671Y-61667383D01*
X112368607Y-61685107D01*
X112350883Y-61701171D01*
X112331670Y-61715421D01*
X112311153Y-61727718D01*
X112289529Y-61737946D01*
X112267007Y-61746004D01*
X112243803Y-61751816D01*
X112220142Y-61755326D01*
X112196250Y-61756500D01*
X111708750Y-61756500D01*
X111684858Y-61755326D01*
X111661197Y-61751816D01*
X111637993Y-61746004D01*
X111615471Y-61737946D01*
X111593847Y-61727718D01*
X111573330Y-61715421D01*
X111554117Y-61701171D01*
X111536393Y-61685107D01*
X111520329Y-61667383D01*
X111506079Y-61648170D01*
X111493782Y-61627653D01*
X111483554Y-61606029D01*
X111475496Y-61583507D01*
X111469684Y-61560303D01*
X111466174Y-61536642D01*
X111465000Y-61512750D01*
X111465000Y-60600250D01*
X111466174Y-60576358D01*
X111469684Y-60552697D01*
X111475496Y-60529493D01*
X111483554Y-60506971D01*
X111493782Y-60485347D01*
X111506079Y-60464830D01*
X111520329Y-60445617D01*
X111536393Y-60427893D01*
X111554117Y-60411829D01*
X111573330Y-60397579D01*
X111593847Y-60385282D01*
X111615471Y-60375054D01*
X111637993Y-60366996D01*
X111661197Y-60361184D01*
X111684858Y-60357674D01*
X111708750Y-60356500D01*
X112196250Y-60356500D01*
X112220142Y-60357674D01*
X112220142Y-60357674D01*
G37*
D11*
X111952500Y-61056500D03*
G04 #@! TD*
D10*
G04 #@! TO.C,R25*
G36*
X101516142Y-51117174D02*
X101539803Y-51120684D01*
X101563007Y-51126496D01*
X101585529Y-51134554D01*
X101607153Y-51144782D01*
X101627670Y-51157079D01*
X101646883Y-51171329D01*
X101664607Y-51187393D01*
X101680671Y-51205117D01*
X101694921Y-51224330D01*
X101707218Y-51244847D01*
X101717446Y-51266471D01*
X101725504Y-51288993D01*
X101731316Y-51312197D01*
X101734826Y-51335858D01*
X101736000Y-51359750D01*
X101736000Y-52272250D01*
X101734826Y-52296142D01*
X101731316Y-52319803D01*
X101725504Y-52343007D01*
X101717446Y-52365529D01*
X101707218Y-52387153D01*
X101694921Y-52407670D01*
X101680671Y-52426883D01*
X101664607Y-52444607D01*
X101646883Y-52460671D01*
X101627670Y-52474921D01*
X101607153Y-52487218D01*
X101585529Y-52497446D01*
X101563007Y-52505504D01*
X101539803Y-52511316D01*
X101516142Y-52514826D01*
X101492250Y-52516000D01*
X101004750Y-52516000D01*
X100980858Y-52514826D01*
X100957197Y-52511316D01*
X100933993Y-52505504D01*
X100911471Y-52497446D01*
X100889847Y-52487218D01*
X100869330Y-52474921D01*
X100850117Y-52460671D01*
X100832393Y-52444607D01*
X100816329Y-52426883D01*
X100802079Y-52407670D01*
X100789782Y-52387153D01*
X100779554Y-52365529D01*
X100771496Y-52343007D01*
X100765684Y-52319803D01*
X100762174Y-52296142D01*
X100761000Y-52272250D01*
X100761000Y-51359750D01*
X100762174Y-51335858D01*
X100765684Y-51312197D01*
X100771496Y-51288993D01*
X100779554Y-51266471D01*
X100789782Y-51244847D01*
X100802079Y-51224330D01*
X100816329Y-51205117D01*
X100832393Y-51187393D01*
X100850117Y-51171329D01*
X100869330Y-51157079D01*
X100889847Y-51144782D01*
X100911471Y-51134554D01*
X100933993Y-51126496D01*
X100957197Y-51120684D01*
X100980858Y-51117174D01*
X101004750Y-51116000D01*
X101492250Y-51116000D01*
X101516142Y-51117174D01*
X101516142Y-51117174D01*
G37*
D11*
X101248500Y-51816000D03*
D10*
G36*
X103391142Y-51117174D02*
X103414803Y-51120684D01*
X103438007Y-51126496D01*
X103460529Y-51134554D01*
X103482153Y-51144782D01*
X103502670Y-51157079D01*
X103521883Y-51171329D01*
X103539607Y-51187393D01*
X103555671Y-51205117D01*
X103569921Y-51224330D01*
X103582218Y-51244847D01*
X103592446Y-51266471D01*
X103600504Y-51288993D01*
X103606316Y-51312197D01*
X103609826Y-51335858D01*
X103611000Y-51359750D01*
X103611000Y-52272250D01*
X103609826Y-52296142D01*
X103606316Y-52319803D01*
X103600504Y-52343007D01*
X103592446Y-52365529D01*
X103582218Y-52387153D01*
X103569921Y-52407670D01*
X103555671Y-52426883D01*
X103539607Y-52444607D01*
X103521883Y-52460671D01*
X103502670Y-52474921D01*
X103482153Y-52487218D01*
X103460529Y-52497446D01*
X103438007Y-52505504D01*
X103414803Y-52511316D01*
X103391142Y-52514826D01*
X103367250Y-52516000D01*
X102879750Y-52516000D01*
X102855858Y-52514826D01*
X102832197Y-52511316D01*
X102808993Y-52505504D01*
X102786471Y-52497446D01*
X102764847Y-52487218D01*
X102744330Y-52474921D01*
X102725117Y-52460671D01*
X102707393Y-52444607D01*
X102691329Y-52426883D01*
X102677079Y-52407670D01*
X102664782Y-52387153D01*
X102654554Y-52365529D01*
X102646496Y-52343007D01*
X102640684Y-52319803D01*
X102637174Y-52296142D01*
X102636000Y-52272250D01*
X102636000Y-51359750D01*
X102637174Y-51335858D01*
X102640684Y-51312197D01*
X102646496Y-51288993D01*
X102654554Y-51266471D01*
X102664782Y-51244847D01*
X102677079Y-51224330D01*
X102691329Y-51205117D01*
X102707393Y-51187393D01*
X102725117Y-51171329D01*
X102744330Y-51157079D01*
X102764847Y-51144782D01*
X102786471Y-51134554D01*
X102808993Y-51126496D01*
X102832197Y-51120684D01*
X102855858Y-51117174D01*
X102879750Y-51116000D01*
X103367250Y-51116000D01*
X103391142Y-51117174D01*
X103391142Y-51117174D01*
G37*
D11*
X103123500Y-51816000D03*
G04 #@! TD*
D10*
G04 #@! TO.C,R24*
G36*
X80827942Y-18543874D02*
X80851603Y-18547384D01*
X80874807Y-18553196D01*
X80897329Y-18561254D01*
X80918953Y-18571482D01*
X80939470Y-18583779D01*
X80958683Y-18598029D01*
X80976407Y-18614093D01*
X80992471Y-18631817D01*
X81006721Y-18651030D01*
X81019018Y-18671547D01*
X81029246Y-18693171D01*
X81037304Y-18715693D01*
X81043116Y-18738897D01*
X81046626Y-18762558D01*
X81047800Y-18786450D01*
X81047800Y-19273950D01*
X81046626Y-19297842D01*
X81043116Y-19321503D01*
X81037304Y-19344707D01*
X81029246Y-19367229D01*
X81019018Y-19388853D01*
X81006721Y-19409370D01*
X80992471Y-19428583D01*
X80976407Y-19446307D01*
X80958683Y-19462371D01*
X80939470Y-19476621D01*
X80918953Y-19488918D01*
X80897329Y-19499146D01*
X80874807Y-19507204D01*
X80851603Y-19513016D01*
X80827942Y-19516526D01*
X80804050Y-19517700D01*
X79891550Y-19517700D01*
X79867658Y-19516526D01*
X79843997Y-19513016D01*
X79820793Y-19507204D01*
X79798271Y-19499146D01*
X79776647Y-19488918D01*
X79756130Y-19476621D01*
X79736917Y-19462371D01*
X79719193Y-19446307D01*
X79703129Y-19428583D01*
X79688879Y-19409370D01*
X79676582Y-19388853D01*
X79666354Y-19367229D01*
X79658296Y-19344707D01*
X79652484Y-19321503D01*
X79648974Y-19297842D01*
X79647800Y-19273950D01*
X79647800Y-18786450D01*
X79648974Y-18762558D01*
X79652484Y-18738897D01*
X79658296Y-18715693D01*
X79666354Y-18693171D01*
X79676582Y-18671547D01*
X79688879Y-18651030D01*
X79703129Y-18631817D01*
X79719193Y-18614093D01*
X79736917Y-18598029D01*
X79756130Y-18583779D01*
X79776647Y-18571482D01*
X79798271Y-18561254D01*
X79820793Y-18553196D01*
X79843997Y-18547384D01*
X79867658Y-18543874D01*
X79891550Y-18542700D01*
X80804050Y-18542700D01*
X80827942Y-18543874D01*
X80827942Y-18543874D01*
G37*
D11*
X80347800Y-19030200D03*
D10*
G36*
X80827942Y-16668874D02*
X80851603Y-16672384D01*
X80874807Y-16678196D01*
X80897329Y-16686254D01*
X80918953Y-16696482D01*
X80939470Y-16708779D01*
X80958683Y-16723029D01*
X80976407Y-16739093D01*
X80992471Y-16756817D01*
X81006721Y-16776030D01*
X81019018Y-16796547D01*
X81029246Y-16818171D01*
X81037304Y-16840693D01*
X81043116Y-16863897D01*
X81046626Y-16887558D01*
X81047800Y-16911450D01*
X81047800Y-17398950D01*
X81046626Y-17422842D01*
X81043116Y-17446503D01*
X81037304Y-17469707D01*
X81029246Y-17492229D01*
X81019018Y-17513853D01*
X81006721Y-17534370D01*
X80992471Y-17553583D01*
X80976407Y-17571307D01*
X80958683Y-17587371D01*
X80939470Y-17601621D01*
X80918953Y-17613918D01*
X80897329Y-17624146D01*
X80874807Y-17632204D01*
X80851603Y-17638016D01*
X80827942Y-17641526D01*
X80804050Y-17642700D01*
X79891550Y-17642700D01*
X79867658Y-17641526D01*
X79843997Y-17638016D01*
X79820793Y-17632204D01*
X79798271Y-17624146D01*
X79776647Y-17613918D01*
X79756130Y-17601621D01*
X79736917Y-17587371D01*
X79719193Y-17571307D01*
X79703129Y-17553583D01*
X79688879Y-17534370D01*
X79676582Y-17513853D01*
X79666354Y-17492229D01*
X79658296Y-17469707D01*
X79652484Y-17446503D01*
X79648974Y-17422842D01*
X79647800Y-17398950D01*
X79647800Y-16911450D01*
X79648974Y-16887558D01*
X79652484Y-16863897D01*
X79658296Y-16840693D01*
X79666354Y-16818171D01*
X79676582Y-16796547D01*
X79688879Y-16776030D01*
X79703129Y-16756817D01*
X79719193Y-16739093D01*
X79736917Y-16723029D01*
X79756130Y-16708779D01*
X79776647Y-16696482D01*
X79798271Y-16686254D01*
X79820793Y-16678196D01*
X79843997Y-16672384D01*
X79867658Y-16668874D01*
X79891550Y-16667700D01*
X80804050Y-16667700D01*
X80827942Y-16668874D01*
X80827942Y-16668874D01*
G37*
D11*
X80347800Y-17155200D03*
G04 #@! TD*
D10*
G04 #@! TO.C,R22*
G36*
X112220142Y-58325674D02*
X112243803Y-58329184D01*
X112267007Y-58334996D01*
X112289529Y-58343054D01*
X112311153Y-58353282D01*
X112331670Y-58365579D01*
X112350883Y-58379829D01*
X112368607Y-58395893D01*
X112384671Y-58413617D01*
X112398921Y-58432830D01*
X112411218Y-58453347D01*
X112421446Y-58474971D01*
X112429504Y-58497493D01*
X112435316Y-58520697D01*
X112438826Y-58544358D01*
X112440000Y-58568250D01*
X112440000Y-59480750D01*
X112438826Y-59504642D01*
X112435316Y-59528303D01*
X112429504Y-59551507D01*
X112421446Y-59574029D01*
X112411218Y-59595653D01*
X112398921Y-59616170D01*
X112384671Y-59635383D01*
X112368607Y-59653107D01*
X112350883Y-59669171D01*
X112331670Y-59683421D01*
X112311153Y-59695718D01*
X112289529Y-59705946D01*
X112267007Y-59714004D01*
X112243803Y-59719816D01*
X112220142Y-59723326D01*
X112196250Y-59724500D01*
X111708750Y-59724500D01*
X111684858Y-59723326D01*
X111661197Y-59719816D01*
X111637993Y-59714004D01*
X111615471Y-59705946D01*
X111593847Y-59695718D01*
X111573330Y-59683421D01*
X111554117Y-59669171D01*
X111536393Y-59653107D01*
X111520329Y-59635383D01*
X111506079Y-59616170D01*
X111493782Y-59595653D01*
X111483554Y-59574029D01*
X111475496Y-59551507D01*
X111469684Y-59528303D01*
X111466174Y-59504642D01*
X111465000Y-59480750D01*
X111465000Y-58568250D01*
X111466174Y-58544358D01*
X111469684Y-58520697D01*
X111475496Y-58497493D01*
X111483554Y-58474971D01*
X111493782Y-58453347D01*
X111506079Y-58432830D01*
X111520329Y-58413617D01*
X111536393Y-58395893D01*
X111554117Y-58379829D01*
X111573330Y-58365579D01*
X111593847Y-58353282D01*
X111615471Y-58343054D01*
X111637993Y-58334996D01*
X111661197Y-58329184D01*
X111684858Y-58325674D01*
X111708750Y-58324500D01*
X112196250Y-58324500D01*
X112220142Y-58325674D01*
X112220142Y-58325674D01*
G37*
D11*
X111952500Y-59024500D03*
D10*
G36*
X114095142Y-58325674D02*
X114118803Y-58329184D01*
X114142007Y-58334996D01*
X114164529Y-58343054D01*
X114186153Y-58353282D01*
X114206670Y-58365579D01*
X114225883Y-58379829D01*
X114243607Y-58395893D01*
X114259671Y-58413617D01*
X114273921Y-58432830D01*
X114286218Y-58453347D01*
X114296446Y-58474971D01*
X114304504Y-58497493D01*
X114310316Y-58520697D01*
X114313826Y-58544358D01*
X114315000Y-58568250D01*
X114315000Y-59480750D01*
X114313826Y-59504642D01*
X114310316Y-59528303D01*
X114304504Y-59551507D01*
X114296446Y-59574029D01*
X114286218Y-59595653D01*
X114273921Y-59616170D01*
X114259671Y-59635383D01*
X114243607Y-59653107D01*
X114225883Y-59669171D01*
X114206670Y-59683421D01*
X114186153Y-59695718D01*
X114164529Y-59705946D01*
X114142007Y-59714004D01*
X114118803Y-59719816D01*
X114095142Y-59723326D01*
X114071250Y-59724500D01*
X113583750Y-59724500D01*
X113559858Y-59723326D01*
X113536197Y-59719816D01*
X113512993Y-59714004D01*
X113490471Y-59705946D01*
X113468847Y-59695718D01*
X113448330Y-59683421D01*
X113429117Y-59669171D01*
X113411393Y-59653107D01*
X113395329Y-59635383D01*
X113381079Y-59616170D01*
X113368782Y-59595653D01*
X113358554Y-59574029D01*
X113350496Y-59551507D01*
X113344684Y-59528303D01*
X113341174Y-59504642D01*
X113340000Y-59480750D01*
X113340000Y-58568250D01*
X113341174Y-58544358D01*
X113344684Y-58520697D01*
X113350496Y-58497493D01*
X113358554Y-58474971D01*
X113368782Y-58453347D01*
X113381079Y-58432830D01*
X113395329Y-58413617D01*
X113411393Y-58395893D01*
X113429117Y-58379829D01*
X113448330Y-58365579D01*
X113468847Y-58353282D01*
X113490471Y-58343054D01*
X113512993Y-58334996D01*
X113536197Y-58329184D01*
X113559858Y-58325674D01*
X113583750Y-58324500D01*
X114071250Y-58324500D01*
X114095142Y-58325674D01*
X114095142Y-58325674D01*
G37*
D11*
X113827500Y-59024500D03*
G04 #@! TD*
D10*
G04 #@! TO.C,R20*
G36*
X114095142Y-62389674D02*
X114118803Y-62393184D01*
X114142007Y-62398996D01*
X114164529Y-62407054D01*
X114186153Y-62417282D01*
X114206670Y-62429579D01*
X114225883Y-62443829D01*
X114243607Y-62459893D01*
X114259671Y-62477617D01*
X114273921Y-62496830D01*
X114286218Y-62517347D01*
X114296446Y-62538971D01*
X114304504Y-62561493D01*
X114310316Y-62584697D01*
X114313826Y-62608358D01*
X114315000Y-62632250D01*
X114315000Y-63544750D01*
X114313826Y-63568642D01*
X114310316Y-63592303D01*
X114304504Y-63615507D01*
X114296446Y-63638029D01*
X114286218Y-63659653D01*
X114273921Y-63680170D01*
X114259671Y-63699383D01*
X114243607Y-63717107D01*
X114225883Y-63733171D01*
X114206670Y-63747421D01*
X114186153Y-63759718D01*
X114164529Y-63769946D01*
X114142007Y-63778004D01*
X114118803Y-63783816D01*
X114095142Y-63787326D01*
X114071250Y-63788500D01*
X113583750Y-63788500D01*
X113559858Y-63787326D01*
X113536197Y-63783816D01*
X113512993Y-63778004D01*
X113490471Y-63769946D01*
X113468847Y-63759718D01*
X113448330Y-63747421D01*
X113429117Y-63733171D01*
X113411393Y-63717107D01*
X113395329Y-63699383D01*
X113381079Y-63680170D01*
X113368782Y-63659653D01*
X113358554Y-63638029D01*
X113350496Y-63615507D01*
X113344684Y-63592303D01*
X113341174Y-63568642D01*
X113340000Y-63544750D01*
X113340000Y-62632250D01*
X113341174Y-62608358D01*
X113344684Y-62584697D01*
X113350496Y-62561493D01*
X113358554Y-62538971D01*
X113368782Y-62517347D01*
X113381079Y-62496830D01*
X113395329Y-62477617D01*
X113411393Y-62459893D01*
X113429117Y-62443829D01*
X113448330Y-62429579D01*
X113468847Y-62417282D01*
X113490471Y-62407054D01*
X113512993Y-62398996D01*
X113536197Y-62393184D01*
X113559858Y-62389674D01*
X113583750Y-62388500D01*
X114071250Y-62388500D01*
X114095142Y-62389674D01*
X114095142Y-62389674D01*
G37*
D11*
X113827500Y-63088500D03*
D10*
G36*
X112220142Y-62389674D02*
X112243803Y-62393184D01*
X112267007Y-62398996D01*
X112289529Y-62407054D01*
X112311153Y-62417282D01*
X112331670Y-62429579D01*
X112350883Y-62443829D01*
X112368607Y-62459893D01*
X112384671Y-62477617D01*
X112398921Y-62496830D01*
X112411218Y-62517347D01*
X112421446Y-62538971D01*
X112429504Y-62561493D01*
X112435316Y-62584697D01*
X112438826Y-62608358D01*
X112440000Y-62632250D01*
X112440000Y-63544750D01*
X112438826Y-63568642D01*
X112435316Y-63592303D01*
X112429504Y-63615507D01*
X112421446Y-63638029D01*
X112411218Y-63659653D01*
X112398921Y-63680170D01*
X112384671Y-63699383D01*
X112368607Y-63717107D01*
X112350883Y-63733171D01*
X112331670Y-63747421D01*
X112311153Y-63759718D01*
X112289529Y-63769946D01*
X112267007Y-63778004D01*
X112243803Y-63783816D01*
X112220142Y-63787326D01*
X112196250Y-63788500D01*
X111708750Y-63788500D01*
X111684858Y-63787326D01*
X111661197Y-63783816D01*
X111637993Y-63778004D01*
X111615471Y-63769946D01*
X111593847Y-63759718D01*
X111573330Y-63747421D01*
X111554117Y-63733171D01*
X111536393Y-63717107D01*
X111520329Y-63699383D01*
X111506079Y-63680170D01*
X111493782Y-63659653D01*
X111483554Y-63638029D01*
X111475496Y-63615507D01*
X111469684Y-63592303D01*
X111466174Y-63568642D01*
X111465000Y-63544750D01*
X111465000Y-62632250D01*
X111466174Y-62608358D01*
X111469684Y-62584697D01*
X111475496Y-62561493D01*
X111483554Y-62538971D01*
X111493782Y-62517347D01*
X111506079Y-62496830D01*
X111520329Y-62477617D01*
X111536393Y-62459893D01*
X111554117Y-62443829D01*
X111573330Y-62429579D01*
X111593847Y-62417282D01*
X111615471Y-62407054D01*
X111637993Y-62398996D01*
X111661197Y-62393184D01*
X111684858Y-62389674D01*
X111708750Y-62388500D01*
X112196250Y-62388500D01*
X112220142Y-62389674D01*
X112220142Y-62389674D01*
G37*
D11*
X111952500Y-63088500D03*
G04 #@! TD*
D10*
G04 #@! TO.C,R23*
G36*
X112220142Y-56293674D02*
X112243803Y-56297184D01*
X112267007Y-56302996D01*
X112289529Y-56311054D01*
X112311153Y-56321282D01*
X112331670Y-56333579D01*
X112350883Y-56347829D01*
X112368607Y-56363893D01*
X112384671Y-56381617D01*
X112398921Y-56400830D01*
X112411218Y-56421347D01*
X112421446Y-56442971D01*
X112429504Y-56465493D01*
X112435316Y-56488697D01*
X112438826Y-56512358D01*
X112440000Y-56536250D01*
X112440000Y-57448750D01*
X112438826Y-57472642D01*
X112435316Y-57496303D01*
X112429504Y-57519507D01*
X112421446Y-57542029D01*
X112411218Y-57563653D01*
X112398921Y-57584170D01*
X112384671Y-57603383D01*
X112368607Y-57621107D01*
X112350883Y-57637171D01*
X112331670Y-57651421D01*
X112311153Y-57663718D01*
X112289529Y-57673946D01*
X112267007Y-57682004D01*
X112243803Y-57687816D01*
X112220142Y-57691326D01*
X112196250Y-57692500D01*
X111708750Y-57692500D01*
X111684858Y-57691326D01*
X111661197Y-57687816D01*
X111637993Y-57682004D01*
X111615471Y-57673946D01*
X111593847Y-57663718D01*
X111573330Y-57651421D01*
X111554117Y-57637171D01*
X111536393Y-57621107D01*
X111520329Y-57603383D01*
X111506079Y-57584170D01*
X111493782Y-57563653D01*
X111483554Y-57542029D01*
X111475496Y-57519507D01*
X111469684Y-57496303D01*
X111466174Y-57472642D01*
X111465000Y-57448750D01*
X111465000Y-56536250D01*
X111466174Y-56512358D01*
X111469684Y-56488697D01*
X111475496Y-56465493D01*
X111483554Y-56442971D01*
X111493782Y-56421347D01*
X111506079Y-56400830D01*
X111520329Y-56381617D01*
X111536393Y-56363893D01*
X111554117Y-56347829D01*
X111573330Y-56333579D01*
X111593847Y-56321282D01*
X111615471Y-56311054D01*
X111637993Y-56302996D01*
X111661197Y-56297184D01*
X111684858Y-56293674D01*
X111708750Y-56292500D01*
X112196250Y-56292500D01*
X112220142Y-56293674D01*
X112220142Y-56293674D01*
G37*
D11*
X111952500Y-56992500D03*
D10*
G36*
X114095142Y-56293674D02*
X114118803Y-56297184D01*
X114142007Y-56302996D01*
X114164529Y-56311054D01*
X114186153Y-56321282D01*
X114206670Y-56333579D01*
X114225883Y-56347829D01*
X114243607Y-56363893D01*
X114259671Y-56381617D01*
X114273921Y-56400830D01*
X114286218Y-56421347D01*
X114296446Y-56442971D01*
X114304504Y-56465493D01*
X114310316Y-56488697D01*
X114313826Y-56512358D01*
X114315000Y-56536250D01*
X114315000Y-57448750D01*
X114313826Y-57472642D01*
X114310316Y-57496303D01*
X114304504Y-57519507D01*
X114296446Y-57542029D01*
X114286218Y-57563653D01*
X114273921Y-57584170D01*
X114259671Y-57603383D01*
X114243607Y-57621107D01*
X114225883Y-57637171D01*
X114206670Y-57651421D01*
X114186153Y-57663718D01*
X114164529Y-57673946D01*
X114142007Y-57682004D01*
X114118803Y-57687816D01*
X114095142Y-57691326D01*
X114071250Y-57692500D01*
X113583750Y-57692500D01*
X113559858Y-57691326D01*
X113536197Y-57687816D01*
X113512993Y-57682004D01*
X113490471Y-57673946D01*
X113468847Y-57663718D01*
X113448330Y-57651421D01*
X113429117Y-57637171D01*
X113411393Y-57621107D01*
X113395329Y-57603383D01*
X113381079Y-57584170D01*
X113368782Y-57563653D01*
X113358554Y-57542029D01*
X113350496Y-57519507D01*
X113344684Y-57496303D01*
X113341174Y-57472642D01*
X113340000Y-57448750D01*
X113340000Y-56536250D01*
X113341174Y-56512358D01*
X113344684Y-56488697D01*
X113350496Y-56465493D01*
X113358554Y-56442971D01*
X113368782Y-56421347D01*
X113381079Y-56400830D01*
X113395329Y-56381617D01*
X113411393Y-56363893D01*
X113429117Y-56347829D01*
X113448330Y-56333579D01*
X113468847Y-56321282D01*
X113490471Y-56311054D01*
X113512993Y-56302996D01*
X113536197Y-56297184D01*
X113559858Y-56293674D01*
X113583750Y-56292500D01*
X114071250Y-56292500D01*
X114095142Y-56293674D01*
X114095142Y-56293674D01*
G37*
D11*
X113827500Y-56992500D03*
G04 #@! TD*
D12*
G04 #@! TO.C,J1*
X110385000Y-23081100D03*
X109735000Y-23081100D03*
X109085000Y-23081100D03*
X108435000Y-23081100D03*
X107785000Y-23081100D03*
G04 #@! TD*
D10*
G04 #@! TO.C,D4*
G36*
X82821942Y-22008174D02*
X82845603Y-22011684D01*
X82868807Y-22017496D01*
X82891329Y-22025554D01*
X82912953Y-22035782D01*
X82933470Y-22048079D01*
X82952683Y-22062329D01*
X82970407Y-22078393D01*
X82986471Y-22096117D01*
X83000721Y-22115330D01*
X83013018Y-22135847D01*
X83023246Y-22157471D01*
X83031304Y-22179993D01*
X83037116Y-22203197D01*
X83040626Y-22226858D01*
X83041800Y-22250750D01*
X83041800Y-22738250D01*
X83040626Y-22762142D01*
X83037116Y-22785803D01*
X83031304Y-22809007D01*
X83023246Y-22831529D01*
X83013018Y-22853153D01*
X83000721Y-22873670D01*
X82986471Y-22892883D01*
X82970407Y-22910607D01*
X82952683Y-22926671D01*
X82933470Y-22940921D01*
X82912953Y-22953218D01*
X82891329Y-22963446D01*
X82868807Y-22971504D01*
X82845603Y-22977316D01*
X82821942Y-22980826D01*
X82798050Y-22982000D01*
X81885550Y-22982000D01*
X81861658Y-22980826D01*
X81837997Y-22977316D01*
X81814793Y-22971504D01*
X81792271Y-22963446D01*
X81770647Y-22953218D01*
X81750130Y-22940921D01*
X81730917Y-22926671D01*
X81713193Y-22910607D01*
X81697129Y-22892883D01*
X81682879Y-22873670D01*
X81670582Y-22853153D01*
X81660354Y-22831529D01*
X81652296Y-22809007D01*
X81646484Y-22785803D01*
X81642974Y-22762142D01*
X81641800Y-22738250D01*
X81641800Y-22250750D01*
X81642974Y-22226858D01*
X81646484Y-22203197D01*
X81652296Y-22179993D01*
X81660354Y-22157471D01*
X81670582Y-22135847D01*
X81682879Y-22115330D01*
X81697129Y-22096117D01*
X81713193Y-22078393D01*
X81730917Y-22062329D01*
X81750130Y-22048079D01*
X81770647Y-22035782D01*
X81792271Y-22025554D01*
X81814793Y-22017496D01*
X81837997Y-22011684D01*
X81861658Y-22008174D01*
X81885550Y-22007000D01*
X82798050Y-22007000D01*
X82821942Y-22008174D01*
X82821942Y-22008174D01*
G37*
D11*
X82341800Y-22494500D03*
D10*
G36*
X82821942Y-20133174D02*
X82845603Y-20136684D01*
X82868807Y-20142496D01*
X82891329Y-20150554D01*
X82912953Y-20160782D01*
X82933470Y-20173079D01*
X82952683Y-20187329D01*
X82970407Y-20203393D01*
X82986471Y-20221117D01*
X83000721Y-20240330D01*
X83013018Y-20260847D01*
X83023246Y-20282471D01*
X83031304Y-20304993D01*
X83037116Y-20328197D01*
X83040626Y-20351858D01*
X83041800Y-20375750D01*
X83041800Y-20863250D01*
X83040626Y-20887142D01*
X83037116Y-20910803D01*
X83031304Y-20934007D01*
X83023246Y-20956529D01*
X83013018Y-20978153D01*
X83000721Y-20998670D01*
X82986471Y-21017883D01*
X82970407Y-21035607D01*
X82952683Y-21051671D01*
X82933470Y-21065921D01*
X82912953Y-21078218D01*
X82891329Y-21088446D01*
X82868807Y-21096504D01*
X82845603Y-21102316D01*
X82821942Y-21105826D01*
X82798050Y-21107000D01*
X81885550Y-21107000D01*
X81861658Y-21105826D01*
X81837997Y-21102316D01*
X81814793Y-21096504D01*
X81792271Y-21088446D01*
X81770647Y-21078218D01*
X81750130Y-21065921D01*
X81730917Y-21051671D01*
X81713193Y-21035607D01*
X81697129Y-21017883D01*
X81682879Y-20998670D01*
X81670582Y-20978153D01*
X81660354Y-20956529D01*
X81652296Y-20934007D01*
X81646484Y-20910803D01*
X81642974Y-20887142D01*
X81641800Y-20863250D01*
X81641800Y-20375750D01*
X81642974Y-20351858D01*
X81646484Y-20328197D01*
X81652296Y-20304993D01*
X81660354Y-20282471D01*
X81670582Y-20260847D01*
X81682879Y-20240330D01*
X81697129Y-20221117D01*
X81713193Y-20203393D01*
X81730917Y-20187329D01*
X81750130Y-20173079D01*
X81770647Y-20160782D01*
X81792271Y-20150554D01*
X81814793Y-20142496D01*
X81837997Y-20136684D01*
X81861658Y-20133174D01*
X81885550Y-20132000D01*
X82798050Y-20132000D01*
X82821942Y-20133174D01*
X82821942Y-20133174D01*
G37*
D11*
X82341800Y-20619500D03*
G04 #@! TD*
D10*
G04 #@! TO.C,D3*
G36*
X87070642Y-20133174D02*
X87094303Y-20136684D01*
X87117507Y-20142496D01*
X87140029Y-20150554D01*
X87161653Y-20160782D01*
X87182170Y-20173079D01*
X87201383Y-20187329D01*
X87219107Y-20203393D01*
X87235171Y-20221117D01*
X87249421Y-20240330D01*
X87261718Y-20260847D01*
X87271946Y-20282471D01*
X87280004Y-20304993D01*
X87285816Y-20328197D01*
X87289326Y-20351858D01*
X87290500Y-20375750D01*
X87290500Y-20863250D01*
X87289326Y-20887142D01*
X87285816Y-20910803D01*
X87280004Y-20934007D01*
X87271946Y-20956529D01*
X87261718Y-20978153D01*
X87249421Y-20998670D01*
X87235171Y-21017883D01*
X87219107Y-21035607D01*
X87201383Y-21051671D01*
X87182170Y-21065921D01*
X87161653Y-21078218D01*
X87140029Y-21088446D01*
X87117507Y-21096504D01*
X87094303Y-21102316D01*
X87070642Y-21105826D01*
X87046750Y-21107000D01*
X86134250Y-21107000D01*
X86110358Y-21105826D01*
X86086697Y-21102316D01*
X86063493Y-21096504D01*
X86040971Y-21088446D01*
X86019347Y-21078218D01*
X85998830Y-21065921D01*
X85979617Y-21051671D01*
X85961893Y-21035607D01*
X85945829Y-21017883D01*
X85931579Y-20998670D01*
X85919282Y-20978153D01*
X85909054Y-20956529D01*
X85900996Y-20934007D01*
X85895184Y-20910803D01*
X85891674Y-20887142D01*
X85890500Y-20863250D01*
X85890500Y-20375750D01*
X85891674Y-20351858D01*
X85895184Y-20328197D01*
X85900996Y-20304993D01*
X85909054Y-20282471D01*
X85919282Y-20260847D01*
X85931579Y-20240330D01*
X85945829Y-20221117D01*
X85961893Y-20203393D01*
X85979617Y-20187329D01*
X85998830Y-20173079D01*
X86019347Y-20160782D01*
X86040971Y-20150554D01*
X86063493Y-20142496D01*
X86086697Y-20136684D01*
X86110358Y-20133174D01*
X86134250Y-20132000D01*
X87046750Y-20132000D01*
X87070642Y-20133174D01*
X87070642Y-20133174D01*
G37*
D11*
X86590500Y-20619500D03*
D10*
G36*
X87070642Y-22008174D02*
X87094303Y-22011684D01*
X87117507Y-22017496D01*
X87140029Y-22025554D01*
X87161653Y-22035782D01*
X87182170Y-22048079D01*
X87201383Y-22062329D01*
X87219107Y-22078393D01*
X87235171Y-22096117D01*
X87249421Y-22115330D01*
X87261718Y-22135847D01*
X87271946Y-22157471D01*
X87280004Y-22179993D01*
X87285816Y-22203197D01*
X87289326Y-22226858D01*
X87290500Y-22250750D01*
X87290500Y-22738250D01*
X87289326Y-22762142D01*
X87285816Y-22785803D01*
X87280004Y-22809007D01*
X87271946Y-22831529D01*
X87261718Y-22853153D01*
X87249421Y-22873670D01*
X87235171Y-22892883D01*
X87219107Y-22910607D01*
X87201383Y-22926671D01*
X87182170Y-22940921D01*
X87161653Y-22953218D01*
X87140029Y-22963446D01*
X87117507Y-22971504D01*
X87094303Y-22977316D01*
X87070642Y-22980826D01*
X87046750Y-22982000D01*
X86134250Y-22982000D01*
X86110358Y-22980826D01*
X86086697Y-22977316D01*
X86063493Y-22971504D01*
X86040971Y-22963446D01*
X86019347Y-22953218D01*
X85998830Y-22940921D01*
X85979617Y-22926671D01*
X85961893Y-22910607D01*
X85945829Y-22892883D01*
X85931579Y-22873670D01*
X85919282Y-22853153D01*
X85909054Y-22831529D01*
X85900996Y-22809007D01*
X85895184Y-22785803D01*
X85891674Y-22762142D01*
X85890500Y-22738250D01*
X85890500Y-22250750D01*
X85891674Y-22226858D01*
X85895184Y-22203197D01*
X85900996Y-22179993D01*
X85909054Y-22157471D01*
X85919282Y-22135847D01*
X85931579Y-22115330D01*
X85945829Y-22096117D01*
X85961893Y-22078393D01*
X85979617Y-22062329D01*
X85998830Y-22048079D01*
X86019347Y-22035782D01*
X86040971Y-22025554D01*
X86063493Y-22017496D01*
X86086697Y-22011684D01*
X86110358Y-22008174D01*
X86134250Y-22007000D01*
X87046750Y-22007000D01*
X87070642Y-22008174D01*
X87070642Y-22008174D01*
G37*
D11*
X86590500Y-22494500D03*
G04 #@! TD*
D10*
G04 #@! TO.C,R13*
G36*
X84952142Y-16666374D02*
X84975803Y-16669884D01*
X84999007Y-16675696D01*
X85021529Y-16683754D01*
X85043153Y-16693982D01*
X85063670Y-16706279D01*
X85082883Y-16720529D01*
X85100607Y-16736593D01*
X85116671Y-16754317D01*
X85130921Y-16773530D01*
X85143218Y-16794047D01*
X85153446Y-16815671D01*
X85161504Y-16838193D01*
X85167316Y-16861397D01*
X85170826Y-16885058D01*
X85172000Y-16908950D01*
X85172000Y-17396450D01*
X85170826Y-17420342D01*
X85167316Y-17444003D01*
X85161504Y-17467207D01*
X85153446Y-17489729D01*
X85143218Y-17511353D01*
X85130921Y-17531870D01*
X85116671Y-17551083D01*
X85100607Y-17568807D01*
X85082883Y-17584871D01*
X85063670Y-17599121D01*
X85043153Y-17611418D01*
X85021529Y-17621646D01*
X84999007Y-17629704D01*
X84975803Y-17635516D01*
X84952142Y-17639026D01*
X84928250Y-17640200D01*
X84015750Y-17640200D01*
X83991858Y-17639026D01*
X83968197Y-17635516D01*
X83944993Y-17629704D01*
X83922471Y-17621646D01*
X83900847Y-17611418D01*
X83880330Y-17599121D01*
X83861117Y-17584871D01*
X83843393Y-17568807D01*
X83827329Y-17551083D01*
X83813079Y-17531870D01*
X83800782Y-17511353D01*
X83790554Y-17489729D01*
X83782496Y-17467207D01*
X83776684Y-17444003D01*
X83773174Y-17420342D01*
X83772000Y-17396450D01*
X83772000Y-16908950D01*
X83773174Y-16885058D01*
X83776684Y-16861397D01*
X83782496Y-16838193D01*
X83790554Y-16815671D01*
X83800782Y-16794047D01*
X83813079Y-16773530D01*
X83827329Y-16754317D01*
X83843393Y-16736593D01*
X83861117Y-16720529D01*
X83880330Y-16706279D01*
X83900847Y-16693982D01*
X83922471Y-16683754D01*
X83944993Y-16675696D01*
X83968197Y-16669884D01*
X83991858Y-16666374D01*
X84015750Y-16665200D01*
X84928250Y-16665200D01*
X84952142Y-16666374D01*
X84952142Y-16666374D01*
G37*
D11*
X84472000Y-17152700D03*
D10*
G36*
X84952142Y-18541374D02*
X84975803Y-18544884D01*
X84999007Y-18550696D01*
X85021529Y-18558754D01*
X85043153Y-18568982D01*
X85063670Y-18581279D01*
X85082883Y-18595529D01*
X85100607Y-18611593D01*
X85116671Y-18629317D01*
X85130921Y-18648530D01*
X85143218Y-18669047D01*
X85153446Y-18690671D01*
X85161504Y-18713193D01*
X85167316Y-18736397D01*
X85170826Y-18760058D01*
X85172000Y-18783950D01*
X85172000Y-19271450D01*
X85170826Y-19295342D01*
X85167316Y-19319003D01*
X85161504Y-19342207D01*
X85153446Y-19364729D01*
X85143218Y-19386353D01*
X85130921Y-19406870D01*
X85116671Y-19426083D01*
X85100607Y-19443807D01*
X85082883Y-19459871D01*
X85063670Y-19474121D01*
X85043153Y-19486418D01*
X85021529Y-19496646D01*
X84999007Y-19504704D01*
X84975803Y-19510516D01*
X84952142Y-19514026D01*
X84928250Y-19515200D01*
X84015750Y-19515200D01*
X83991858Y-19514026D01*
X83968197Y-19510516D01*
X83944993Y-19504704D01*
X83922471Y-19496646D01*
X83900847Y-19486418D01*
X83880330Y-19474121D01*
X83861117Y-19459871D01*
X83843393Y-19443807D01*
X83827329Y-19426083D01*
X83813079Y-19406870D01*
X83800782Y-19386353D01*
X83790554Y-19364729D01*
X83782496Y-19342207D01*
X83776684Y-19319003D01*
X83773174Y-19295342D01*
X83772000Y-19271450D01*
X83772000Y-18783950D01*
X83773174Y-18760058D01*
X83776684Y-18736397D01*
X83782496Y-18713193D01*
X83790554Y-18690671D01*
X83800782Y-18669047D01*
X83813079Y-18648530D01*
X83827329Y-18629317D01*
X83843393Y-18611593D01*
X83861117Y-18595529D01*
X83880330Y-18581279D01*
X83900847Y-18568982D01*
X83922471Y-18558754D01*
X83944993Y-18550696D01*
X83968197Y-18544884D01*
X83991858Y-18541374D01*
X84015750Y-18540200D01*
X84928250Y-18540200D01*
X84952142Y-18541374D01*
X84952142Y-18541374D01*
G37*
D11*
X84472000Y-19027700D03*
G04 #@! TD*
D10*
G04 #@! TO.C,R15*
G36*
X82827742Y-18541374D02*
X82851403Y-18544884D01*
X82874607Y-18550696D01*
X82897129Y-18558754D01*
X82918753Y-18568982D01*
X82939270Y-18581279D01*
X82958483Y-18595529D01*
X82976207Y-18611593D01*
X82992271Y-18629317D01*
X83006521Y-18648530D01*
X83018818Y-18669047D01*
X83029046Y-18690671D01*
X83037104Y-18713193D01*
X83042916Y-18736397D01*
X83046426Y-18760058D01*
X83047600Y-18783950D01*
X83047600Y-19271450D01*
X83046426Y-19295342D01*
X83042916Y-19319003D01*
X83037104Y-19342207D01*
X83029046Y-19364729D01*
X83018818Y-19386353D01*
X83006521Y-19406870D01*
X82992271Y-19426083D01*
X82976207Y-19443807D01*
X82958483Y-19459871D01*
X82939270Y-19474121D01*
X82918753Y-19486418D01*
X82897129Y-19496646D01*
X82874607Y-19504704D01*
X82851403Y-19510516D01*
X82827742Y-19514026D01*
X82803850Y-19515200D01*
X81891350Y-19515200D01*
X81867458Y-19514026D01*
X81843797Y-19510516D01*
X81820593Y-19504704D01*
X81798071Y-19496646D01*
X81776447Y-19486418D01*
X81755930Y-19474121D01*
X81736717Y-19459871D01*
X81718993Y-19443807D01*
X81702929Y-19426083D01*
X81688679Y-19406870D01*
X81676382Y-19386353D01*
X81666154Y-19364729D01*
X81658096Y-19342207D01*
X81652284Y-19319003D01*
X81648774Y-19295342D01*
X81647600Y-19271450D01*
X81647600Y-18783950D01*
X81648774Y-18760058D01*
X81652284Y-18736397D01*
X81658096Y-18713193D01*
X81666154Y-18690671D01*
X81676382Y-18669047D01*
X81688679Y-18648530D01*
X81702929Y-18629317D01*
X81718993Y-18611593D01*
X81736717Y-18595529D01*
X81755930Y-18581279D01*
X81776447Y-18568982D01*
X81798071Y-18558754D01*
X81820593Y-18550696D01*
X81843797Y-18544884D01*
X81867458Y-18541374D01*
X81891350Y-18540200D01*
X82803850Y-18540200D01*
X82827742Y-18541374D01*
X82827742Y-18541374D01*
G37*
D11*
X82347600Y-19027700D03*
D10*
G36*
X82827742Y-16666374D02*
X82851403Y-16669884D01*
X82874607Y-16675696D01*
X82897129Y-16683754D01*
X82918753Y-16693982D01*
X82939270Y-16706279D01*
X82958483Y-16720529D01*
X82976207Y-16736593D01*
X82992271Y-16754317D01*
X83006521Y-16773530D01*
X83018818Y-16794047D01*
X83029046Y-16815671D01*
X83037104Y-16838193D01*
X83042916Y-16861397D01*
X83046426Y-16885058D01*
X83047600Y-16908950D01*
X83047600Y-17396450D01*
X83046426Y-17420342D01*
X83042916Y-17444003D01*
X83037104Y-17467207D01*
X83029046Y-17489729D01*
X83018818Y-17511353D01*
X83006521Y-17531870D01*
X82992271Y-17551083D01*
X82976207Y-17568807D01*
X82958483Y-17584871D01*
X82939270Y-17599121D01*
X82918753Y-17611418D01*
X82897129Y-17621646D01*
X82874607Y-17629704D01*
X82851403Y-17635516D01*
X82827742Y-17639026D01*
X82803850Y-17640200D01*
X81891350Y-17640200D01*
X81867458Y-17639026D01*
X81843797Y-17635516D01*
X81820593Y-17629704D01*
X81798071Y-17621646D01*
X81776447Y-17611418D01*
X81755930Y-17599121D01*
X81736717Y-17584871D01*
X81718993Y-17568807D01*
X81702929Y-17551083D01*
X81688679Y-17531870D01*
X81676382Y-17511353D01*
X81666154Y-17489729D01*
X81658096Y-17467207D01*
X81652284Y-17444003D01*
X81648774Y-17420342D01*
X81647600Y-17396450D01*
X81647600Y-16908950D01*
X81648774Y-16885058D01*
X81652284Y-16861397D01*
X81658096Y-16838193D01*
X81666154Y-16815671D01*
X81676382Y-16794047D01*
X81688679Y-16773530D01*
X81702929Y-16754317D01*
X81718993Y-16736593D01*
X81736717Y-16720529D01*
X81755930Y-16706279D01*
X81776447Y-16693982D01*
X81798071Y-16683754D01*
X81820593Y-16675696D01*
X81843797Y-16669884D01*
X81867458Y-16666374D01*
X81891350Y-16665200D01*
X82803850Y-16665200D01*
X82827742Y-16666374D01*
X82827742Y-16666374D01*
G37*
D11*
X82347600Y-17152700D03*
G04 #@! TD*
D10*
G04 #@! TO.C,R14*
G36*
X87076442Y-16666374D02*
X87100103Y-16669884D01*
X87123307Y-16675696D01*
X87145829Y-16683754D01*
X87167453Y-16693982D01*
X87187970Y-16706279D01*
X87207183Y-16720529D01*
X87224907Y-16736593D01*
X87240971Y-16754317D01*
X87255221Y-16773530D01*
X87267518Y-16794047D01*
X87277746Y-16815671D01*
X87285804Y-16838193D01*
X87291616Y-16861397D01*
X87295126Y-16885058D01*
X87296300Y-16908950D01*
X87296300Y-17396450D01*
X87295126Y-17420342D01*
X87291616Y-17444003D01*
X87285804Y-17467207D01*
X87277746Y-17489729D01*
X87267518Y-17511353D01*
X87255221Y-17531870D01*
X87240971Y-17551083D01*
X87224907Y-17568807D01*
X87207183Y-17584871D01*
X87187970Y-17599121D01*
X87167453Y-17611418D01*
X87145829Y-17621646D01*
X87123307Y-17629704D01*
X87100103Y-17635516D01*
X87076442Y-17639026D01*
X87052550Y-17640200D01*
X86140050Y-17640200D01*
X86116158Y-17639026D01*
X86092497Y-17635516D01*
X86069293Y-17629704D01*
X86046771Y-17621646D01*
X86025147Y-17611418D01*
X86004630Y-17599121D01*
X85985417Y-17584871D01*
X85967693Y-17568807D01*
X85951629Y-17551083D01*
X85937379Y-17531870D01*
X85925082Y-17511353D01*
X85914854Y-17489729D01*
X85906796Y-17467207D01*
X85900984Y-17444003D01*
X85897474Y-17420342D01*
X85896300Y-17396450D01*
X85896300Y-16908950D01*
X85897474Y-16885058D01*
X85900984Y-16861397D01*
X85906796Y-16838193D01*
X85914854Y-16815671D01*
X85925082Y-16794047D01*
X85937379Y-16773530D01*
X85951629Y-16754317D01*
X85967693Y-16736593D01*
X85985417Y-16720529D01*
X86004630Y-16706279D01*
X86025147Y-16693982D01*
X86046771Y-16683754D01*
X86069293Y-16675696D01*
X86092497Y-16669884D01*
X86116158Y-16666374D01*
X86140050Y-16665200D01*
X87052550Y-16665200D01*
X87076442Y-16666374D01*
X87076442Y-16666374D01*
G37*
D11*
X86596300Y-17152700D03*
D10*
G36*
X87076442Y-18541374D02*
X87100103Y-18544884D01*
X87123307Y-18550696D01*
X87145829Y-18558754D01*
X87167453Y-18568982D01*
X87187970Y-18581279D01*
X87207183Y-18595529D01*
X87224907Y-18611593D01*
X87240971Y-18629317D01*
X87255221Y-18648530D01*
X87267518Y-18669047D01*
X87277746Y-18690671D01*
X87285804Y-18713193D01*
X87291616Y-18736397D01*
X87295126Y-18760058D01*
X87296300Y-18783950D01*
X87296300Y-19271450D01*
X87295126Y-19295342D01*
X87291616Y-19319003D01*
X87285804Y-19342207D01*
X87277746Y-19364729D01*
X87267518Y-19386353D01*
X87255221Y-19406870D01*
X87240971Y-19426083D01*
X87224907Y-19443807D01*
X87207183Y-19459871D01*
X87187970Y-19474121D01*
X87167453Y-19486418D01*
X87145829Y-19496646D01*
X87123307Y-19504704D01*
X87100103Y-19510516D01*
X87076442Y-19514026D01*
X87052550Y-19515200D01*
X86140050Y-19515200D01*
X86116158Y-19514026D01*
X86092497Y-19510516D01*
X86069293Y-19504704D01*
X86046771Y-19496646D01*
X86025147Y-19486418D01*
X86004630Y-19474121D01*
X85985417Y-19459871D01*
X85967693Y-19443807D01*
X85951629Y-19426083D01*
X85937379Y-19406870D01*
X85925082Y-19386353D01*
X85914854Y-19364729D01*
X85906796Y-19342207D01*
X85900984Y-19319003D01*
X85897474Y-19295342D01*
X85896300Y-19271450D01*
X85896300Y-18783950D01*
X85897474Y-18760058D01*
X85900984Y-18736397D01*
X85906796Y-18713193D01*
X85914854Y-18690671D01*
X85925082Y-18669047D01*
X85937379Y-18648530D01*
X85951629Y-18629317D01*
X85967693Y-18611593D01*
X85985417Y-18595529D01*
X86004630Y-18581279D01*
X86025147Y-18568982D01*
X86046771Y-18558754D01*
X86069293Y-18550696D01*
X86092497Y-18544884D01*
X86116158Y-18541374D01*
X86140050Y-18540200D01*
X87052550Y-18540200D01*
X87076442Y-18541374D01*
X87076442Y-18541374D01*
G37*
D11*
X86596300Y-19027700D03*
G04 #@! TD*
D10*
G04 #@! TO.C,C4*
G36*
X25118142Y-25833174D02*
X25141803Y-25836684D01*
X25165007Y-25842496D01*
X25187529Y-25850554D01*
X25209153Y-25860782D01*
X25229670Y-25873079D01*
X25248883Y-25887329D01*
X25266607Y-25903393D01*
X25282671Y-25921117D01*
X25296921Y-25940330D01*
X25309218Y-25960847D01*
X25319446Y-25982471D01*
X25327504Y-26004993D01*
X25333316Y-26028197D01*
X25336826Y-26051858D01*
X25338000Y-26075750D01*
X25338000Y-26563250D01*
X25336826Y-26587142D01*
X25333316Y-26610803D01*
X25327504Y-26634007D01*
X25319446Y-26656529D01*
X25309218Y-26678153D01*
X25296921Y-26698670D01*
X25282671Y-26717883D01*
X25266607Y-26735607D01*
X25248883Y-26751671D01*
X25229670Y-26765921D01*
X25209153Y-26778218D01*
X25187529Y-26788446D01*
X25165007Y-26796504D01*
X25141803Y-26802316D01*
X25118142Y-26805826D01*
X25094250Y-26807000D01*
X24181750Y-26807000D01*
X24157858Y-26805826D01*
X24134197Y-26802316D01*
X24110993Y-26796504D01*
X24088471Y-26788446D01*
X24066847Y-26778218D01*
X24046330Y-26765921D01*
X24027117Y-26751671D01*
X24009393Y-26735607D01*
X23993329Y-26717883D01*
X23979079Y-26698670D01*
X23966782Y-26678153D01*
X23956554Y-26656529D01*
X23948496Y-26634007D01*
X23942684Y-26610803D01*
X23939174Y-26587142D01*
X23938000Y-26563250D01*
X23938000Y-26075750D01*
X23939174Y-26051858D01*
X23942684Y-26028197D01*
X23948496Y-26004993D01*
X23956554Y-25982471D01*
X23966782Y-25960847D01*
X23979079Y-25940330D01*
X23993329Y-25921117D01*
X24009393Y-25903393D01*
X24027117Y-25887329D01*
X24046330Y-25873079D01*
X24066847Y-25860782D01*
X24088471Y-25850554D01*
X24110993Y-25842496D01*
X24134197Y-25836684D01*
X24157858Y-25833174D01*
X24181750Y-25832000D01*
X25094250Y-25832000D01*
X25118142Y-25833174D01*
X25118142Y-25833174D01*
G37*
D11*
X24638000Y-26319500D03*
D10*
G36*
X25118142Y-27708174D02*
X25141803Y-27711684D01*
X25165007Y-27717496D01*
X25187529Y-27725554D01*
X25209153Y-27735782D01*
X25229670Y-27748079D01*
X25248883Y-27762329D01*
X25266607Y-27778393D01*
X25282671Y-27796117D01*
X25296921Y-27815330D01*
X25309218Y-27835847D01*
X25319446Y-27857471D01*
X25327504Y-27879993D01*
X25333316Y-27903197D01*
X25336826Y-27926858D01*
X25338000Y-27950750D01*
X25338000Y-28438250D01*
X25336826Y-28462142D01*
X25333316Y-28485803D01*
X25327504Y-28509007D01*
X25319446Y-28531529D01*
X25309218Y-28553153D01*
X25296921Y-28573670D01*
X25282671Y-28592883D01*
X25266607Y-28610607D01*
X25248883Y-28626671D01*
X25229670Y-28640921D01*
X25209153Y-28653218D01*
X25187529Y-28663446D01*
X25165007Y-28671504D01*
X25141803Y-28677316D01*
X25118142Y-28680826D01*
X25094250Y-28682000D01*
X24181750Y-28682000D01*
X24157858Y-28680826D01*
X24134197Y-28677316D01*
X24110993Y-28671504D01*
X24088471Y-28663446D01*
X24066847Y-28653218D01*
X24046330Y-28640921D01*
X24027117Y-28626671D01*
X24009393Y-28610607D01*
X23993329Y-28592883D01*
X23979079Y-28573670D01*
X23966782Y-28553153D01*
X23956554Y-28531529D01*
X23948496Y-28509007D01*
X23942684Y-28485803D01*
X23939174Y-28462142D01*
X23938000Y-28438250D01*
X23938000Y-27950750D01*
X23939174Y-27926858D01*
X23942684Y-27903197D01*
X23948496Y-27879993D01*
X23956554Y-27857471D01*
X23966782Y-27835847D01*
X23979079Y-27815330D01*
X23993329Y-27796117D01*
X24009393Y-27778393D01*
X24027117Y-27762329D01*
X24046330Y-27748079D01*
X24066847Y-27735782D01*
X24088471Y-27725554D01*
X24110993Y-27717496D01*
X24134197Y-27711684D01*
X24157858Y-27708174D01*
X24181750Y-27707000D01*
X25094250Y-27707000D01*
X25118142Y-27708174D01*
X25118142Y-27708174D01*
G37*
D11*
X24638000Y-28194500D03*
G04 #@! TD*
D10*
G04 #@! TO.C,D1*
G36*
X90076142Y-26800374D02*
X90099803Y-26803884D01*
X90123007Y-26809696D01*
X90145529Y-26817754D01*
X90167153Y-26827982D01*
X90187670Y-26840279D01*
X90206883Y-26854529D01*
X90224607Y-26870593D01*
X90240671Y-26888317D01*
X90254921Y-26907530D01*
X90267218Y-26928047D01*
X90277446Y-26949671D01*
X90285504Y-26972193D01*
X90291316Y-26995397D01*
X90294826Y-27019058D01*
X90296000Y-27042950D01*
X90296000Y-27530450D01*
X90294826Y-27554342D01*
X90291316Y-27578003D01*
X90285504Y-27601207D01*
X90277446Y-27623729D01*
X90267218Y-27645353D01*
X90254921Y-27665870D01*
X90240671Y-27685083D01*
X90224607Y-27702807D01*
X90206883Y-27718871D01*
X90187670Y-27733121D01*
X90167153Y-27745418D01*
X90145529Y-27755646D01*
X90123007Y-27763704D01*
X90099803Y-27769516D01*
X90076142Y-27773026D01*
X90052250Y-27774200D01*
X89139750Y-27774200D01*
X89115858Y-27773026D01*
X89092197Y-27769516D01*
X89068993Y-27763704D01*
X89046471Y-27755646D01*
X89024847Y-27745418D01*
X89004330Y-27733121D01*
X88985117Y-27718871D01*
X88967393Y-27702807D01*
X88951329Y-27685083D01*
X88937079Y-27665870D01*
X88924782Y-27645353D01*
X88914554Y-27623729D01*
X88906496Y-27601207D01*
X88900684Y-27578003D01*
X88897174Y-27554342D01*
X88896000Y-27530450D01*
X88896000Y-27042950D01*
X88897174Y-27019058D01*
X88900684Y-26995397D01*
X88906496Y-26972193D01*
X88914554Y-26949671D01*
X88924782Y-26928047D01*
X88937079Y-26907530D01*
X88951329Y-26888317D01*
X88967393Y-26870593D01*
X88985117Y-26854529D01*
X89004330Y-26840279D01*
X89024847Y-26827982D01*
X89046471Y-26817754D01*
X89068993Y-26809696D01*
X89092197Y-26803884D01*
X89115858Y-26800374D01*
X89139750Y-26799200D01*
X90052250Y-26799200D01*
X90076142Y-26800374D01*
X90076142Y-26800374D01*
G37*
D11*
X89596000Y-27286700D03*
D10*
G36*
X90076142Y-28675374D02*
X90099803Y-28678884D01*
X90123007Y-28684696D01*
X90145529Y-28692754D01*
X90167153Y-28702982D01*
X90187670Y-28715279D01*
X90206883Y-28729529D01*
X90224607Y-28745593D01*
X90240671Y-28763317D01*
X90254921Y-28782530D01*
X90267218Y-28803047D01*
X90277446Y-28824671D01*
X90285504Y-28847193D01*
X90291316Y-28870397D01*
X90294826Y-28894058D01*
X90296000Y-28917950D01*
X90296000Y-29405450D01*
X90294826Y-29429342D01*
X90291316Y-29453003D01*
X90285504Y-29476207D01*
X90277446Y-29498729D01*
X90267218Y-29520353D01*
X90254921Y-29540870D01*
X90240671Y-29560083D01*
X90224607Y-29577807D01*
X90206883Y-29593871D01*
X90187670Y-29608121D01*
X90167153Y-29620418D01*
X90145529Y-29630646D01*
X90123007Y-29638704D01*
X90099803Y-29644516D01*
X90076142Y-29648026D01*
X90052250Y-29649200D01*
X89139750Y-29649200D01*
X89115858Y-29648026D01*
X89092197Y-29644516D01*
X89068993Y-29638704D01*
X89046471Y-29630646D01*
X89024847Y-29620418D01*
X89004330Y-29608121D01*
X88985117Y-29593871D01*
X88967393Y-29577807D01*
X88951329Y-29560083D01*
X88937079Y-29540870D01*
X88924782Y-29520353D01*
X88914554Y-29498729D01*
X88906496Y-29476207D01*
X88900684Y-29453003D01*
X88897174Y-29429342D01*
X88896000Y-29405450D01*
X88896000Y-28917950D01*
X88897174Y-28894058D01*
X88900684Y-28870397D01*
X88906496Y-28847193D01*
X88914554Y-28824671D01*
X88924782Y-28803047D01*
X88937079Y-28782530D01*
X88951329Y-28763317D01*
X88967393Y-28745593D01*
X88985117Y-28729529D01*
X89004330Y-28715279D01*
X89024847Y-28702982D01*
X89046471Y-28692754D01*
X89068993Y-28684696D01*
X89092197Y-28678884D01*
X89115858Y-28675374D01*
X89139750Y-28674200D01*
X90052250Y-28674200D01*
X90076142Y-28675374D01*
X90076142Y-28675374D01*
G37*
D11*
X89596000Y-29161700D03*
G04 #@! TD*
D10*
G04 #@! TO.C,D2*
G36*
X84946342Y-22008174D02*
X84970003Y-22011684D01*
X84993207Y-22017496D01*
X85015729Y-22025554D01*
X85037353Y-22035782D01*
X85057870Y-22048079D01*
X85077083Y-22062329D01*
X85094807Y-22078393D01*
X85110871Y-22096117D01*
X85125121Y-22115330D01*
X85137418Y-22135847D01*
X85147646Y-22157471D01*
X85155704Y-22179993D01*
X85161516Y-22203197D01*
X85165026Y-22226858D01*
X85166200Y-22250750D01*
X85166200Y-22738250D01*
X85165026Y-22762142D01*
X85161516Y-22785803D01*
X85155704Y-22809007D01*
X85147646Y-22831529D01*
X85137418Y-22853153D01*
X85125121Y-22873670D01*
X85110871Y-22892883D01*
X85094807Y-22910607D01*
X85077083Y-22926671D01*
X85057870Y-22940921D01*
X85037353Y-22953218D01*
X85015729Y-22963446D01*
X84993207Y-22971504D01*
X84970003Y-22977316D01*
X84946342Y-22980826D01*
X84922450Y-22982000D01*
X84009950Y-22982000D01*
X83986058Y-22980826D01*
X83962397Y-22977316D01*
X83939193Y-22971504D01*
X83916671Y-22963446D01*
X83895047Y-22953218D01*
X83874530Y-22940921D01*
X83855317Y-22926671D01*
X83837593Y-22910607D01*
X83821529Y-22892883D01*
X83807279Y-22873670D01*
X83794982Y-22853153D01*
X83784754Y-22831529D01*
X83776696Y-22809007D01*
X83770884Y-22785803D01*
X83767374Y-22762142D01*
X83766200Y-22738250D01*
X83766200Y-22250750D01*
X83767374Y-22226858D01*
X83770884Y-22203197D01*
X83776696Y-22179993D01*
X83784754Y-22157471D01*
X83794982Y-22135847D01*
X83807279Y-22115330D01*
X83821529Y-22096117D01*
X83837593Y-22078393D01*
X83855317Y-22062329D01*
X83874530Y-22048079D01*
X83895047Y-22035782D01*
X83916671Y-22025554D01*
X83939193Y-22017496D01*
X83962397Y-22011684D01*
X83986058Y-22008174D01*
X84009950Y-22007000D01*
X84922450Y-22007000D01*
X84946342Y-22008174D01*
X84946342Y-22008174D01*
G37*
D11*
X84466200Y-22494500D03*
D10*
G36*
X84946342Y-20133174D02*
X84970003Y-20136684D01*
X84993207Y-20142496D01*
X85015729Y-20150554D01*
X85037353Y-20160782D01*
X85057870Y-20173079D01*
X85077083Y-20187329D01*
X85094807Y-20203393D01*
X85110871Y-20221117D01*
X85125121Y-20240330D01*
X85137418Y-20260847D01*
X85147646Y-20282471D01*
X85155704Y-20304993D01*
X85161516Y-20328197D01*
X85165026Y-20351858D01*
X85166200Y-20375750D01*
X85166200Y-20863250D01*
X85165026Y-20887142D01*
X85161516Y-20910803D01*
X85155704Y-20934007D01*
X85147646Y-20956529D01*
X85137418Y-20978153D01*
X85125121Y-20998670D01*
X85110871Y-21017883D01*
X85094807Y-21035607D01*
X85077083Y-21051671D01*
X85057870Y-21065921D01*
X85037353Y-21078218D01*
X85015729Y-21088446D01*
X84993207Y-21096504D01*
X84970003Y-21102316D01*
X84946342Y-21105826D01*
X84922450Y-21107000D01*
X84009950Y-21107000D01*
X83986058Y-21105826D01*
X83962397Y-21102316D01*
X83939193Y-21096504D01*
X83916671Y-21088446D01*
X83895047Y-21078218D01*
X83874530Y-21065921D01*
X83855317Y-21051671D01*
X83837593Y-21035607D01*
X83821529Y-21017883D01*
X83807279Y-20998670D01*
X83794982Y-20978153D01*
X83784754Y-20956529D01*
X83776696Y-20934007D01*
X83770884Y-20910803D01*
X83767374Y-20887142D01*
X83766200Y-20863250D01*
X83766200Y-20375750D01*
X83767374Y-20351858D01*
X83770884Y-20328197D01*
X83776696Y-20304993D01*
X83784754Y-20282471D01*
X83794982Y-20260847D01*
X83807279Y-20240330D01*
X83821529Y-20221117D01*
X83837593Y-20203393D01*
X83855317Y-20187329D01*
X83874530Y-20173079D01*
X83895047Y-20160782D01*
X83916671Y-20150554D01*
X83939193Y-20142496D01*
X83962397Y-20136684D01*
X83986058Y-20133174D01*
X84009950Y-20132000D01*
X84922450Y-20132000D01*
X84946342Y-20133174D01*
X84946342Y-20133174D01*
G37*
D11*
X84466200Y-20619500D03*
G04 #@! TD*
D10*
G04 #@! TO.C,R3*
G36*
X92306242Y-32432574D02*
X92329903Y-32436084D01*
X92353107Y-32441896D01*
X92375629Y-32449954D01*
X92397253Y-32460182D01*
X92417770Y-32472479D01*
X92436983Y-32486729D01*
X92454707Y-32502793D01*
X92470771Y-32520517D01*
X92485021Y-32539730D01*
X92497318Y-32560247D01*
X92507546Y-32581871D01*
X92515604Y-32604393D01*
X92521416Y-32627597D01*
X92524926Y-32651258D01*
X92526100Y-32675150D01*
X92526100Y-33162650D01*
X92524926Y-33186542D01*
X92521416Y-33210203D01*
X92515604Y-33233407D01*
X92507546Y-33255929D01*
X92497318Y-33277553D01*
X92485021Y-33298070D01*
X92470771Y-33317283D01*
X92454707Y-33335007D01*
X92436983Y-33351071D01*
X92417770Y-33365321D01*
X92397253Y-33377618D01*
X92375629Y-33387846D01*
X92353107Y-33395904D01*
X92329903Y-33401716D01*
X92306242Y-33405226D01*
X92282350Y-33406400D01*
X91369850Y-33406400D01*
X91345958Y-33405226D01*
X91322297Y-33401716D01*
X91299093Y-33395904D01*
X91276571Y-33387846D01*
X91254947Y-33377618D01*
X91234430Y-33365321D01*
X91215217Y-33351071D01*
X91197493Y-33335007D01*
X91181429Y-33317283D01*
X91167179Y-33298070D01*
X91154882Y-33277553D01*
X91144654Y-33255929D01*
X91136596Y-33233407D01*
X91130784Y-33210203D01*
X91127274Y-33186542D01*
X91126100Y-33162650D01*
X91126100Y-32675150D01*
X91127274Y-32651258D01*
X91130784Y-32627597D01*
X91136596Y-32604393D01*
X91144654Y-32581871D01*
X91154882Y-32560247D01*
X91167179Y-32539730D01*
X91181429Y-32520517D01*
X91197493Y-32502793D01*
X91215217Y-32486729D01*
X91234430Y-32472479D01*
X91254947Y-32460182D01*
X91276571Y-32449954D01*
X91299093Y-32441896D01*
X91322297Y-32436084D01*
X91345958Y-32432574D01*
X91369850Y-32431400D01*
X92282350Y-32431400D01*
X92306242Y-32432574D01*
X92306242Y-32432574D01*
G37*
D11*
X91826100Y-32918900D03*
D10*
G36*
X92306242Y-30557574D02*
X92329903Y-30561084D01*
X92353107Y-30566896D01*
X92375629Y-30574954D01*
X92397253Y-30585182D01*
X92417770Y-30597479D01*
X92436983Y-30611729D01*
X92454707Y-30627793D01*
X92470771Y-30645517D01*
X92485021Y-30664730D01*
X92497318Y-30685247D01*
X92507546Y-30706871D01*
X92515604Y-30729393D01*
X92521416Y-30752597D01*
X92524926Y-30776258D01*
X92526100Y-30800150D01*
X92526100Y-31287650D01*
X92524926Y-31311542D01*
X92521416Y-31335203D01*
X92515604Y-31358407D01*
X92507546Y-31380929D01*
X92497318Y-31402553D01*
X92485021Y-31423070D01*
X92470771Y-31442283D01*
X92454707Y-31460007D01*
X92436983Y-31476071D01*
X92417770Y-31490321D01*
X92397253Y-31502618D01*
X92375629Y-31512846D01*
X92353107Y-31520904D01*
X92329903Y-31526716D01*
X92306242Y-31530226D01*
X92282350Y-31531400D01*
X91369850Y-31531400D01*
X91345958Y-31530226D01*
X91322297Y-31526716D01*
X91299093Y-31520904D01*
X91276571Y-31512846D01*
X91254947Y-31502618D01*
X91234430Y-31490321D01*
X91215217Y-31476071D01*
X91197493Y-31460007D01*
X91181429Y-31442283D01*
X91167179Y-31423070D01*
X91154882Y-31402553D01*
X91144654Y-31380929D01*
X91136596Y-31358407D01*
X91130784Y-31335203D01*
X91127274Y-31311542D01*
X91126100Y-31287650D01*
X91126100Y-30800150D01*
X91127274Y-30776258D01*
X91130784Y-30752597D01*
X91136596Y-30729393D01*
X91144654Y-30706871D01*
X91154882Y-30685247D01*
X91167179Y-30664730D01*
X91181429Y-30645517D01*
X91197493Y-30627793D01*
X91215217Y-30611729D01*
X91234430Y-30597479D01*
X91254947Y-30585182D01*
X91276571Y-30574954D01*
X91299093Y-30566896D01*
X91322297Y-30561084D01*
X91345958Y-30557574D01*
X91369850Y-30556400D01*
X92282350Y-30556400D01*
X92306242Y-30557574D01*
X92306242Y-30557574D01*
G37*
D11*
X91826100Y-31043900D03*
G04 #@! TD*
D10*
G04 #@! TO.C,R2*
G36*
X90058342Y-30557574D02*
X90082003Y-30561084D01*
X90105207Y-30566896D01*
X90127729Y-30574954D01*
X90149353Y-30585182D01*
X90169870Y-30597479D01*
X90189083Y-30611729D01*
X90206807Y-30627793D01*
X90222871Y-30645517D01*
X90237121Y-30664730D01*
X90249418Y-30685247D01*
X90259646Y-30706871D01*
X90267704Y-30729393D01*
X90273516Y-30752597D01*
X90277026Y-30776258D01*
X90278200Y-30800150D01*
X90278200Y-31287650D01*
X90277026Y-31311542D01*
X90273516Y-31335203D01*
X90267704Y-31358407D01*
X90259646Y-31380929D01*
X90249418Y-31402553D01*
X90237121Y-31423070D01*
X90222871Y-31442283D01*
X90206807Y-31460007D01*
X90189083Y-31476071D01*
X90169870Y-31490321D01*
X90149353Y-31502618D01*
X90127729Y-31512846D01*
X90105207Y-31520904D01*
X90082003Y-31526716D01*
X90058342Y-31530226D01*
X90034450Y-31531400D01*
X89121950Y-31531400D01*
X89098058Y-31530226D01*
X89074397Y-31526716D01*
X89051193Y-31520904D01*
X89028671Y-31512846D01*
X89007047Y-31502618D01*
X88986530Y-31490321D01*
X88967317Y-31476071D01*
X88949593Y-31460007D01*
X88933529Y-31442283D01*
X88919279Y-31423070D01*
X88906982Y-31402553D01*
X88896754Y-31380929D01*
X88888696Y-31358407D01*
X88882884Y-31335203D01*
X88879374Y-31311542D01*
X88878200Y-31287650D01*
X88878200Y-30800150D01*
X88879374Y-30776258D01*
X88882884Y-30752597D01*
X88888696Y-30729393D01*
X88896754Y-30706871D01*
X88906982Y-30685247D01*
X88919279Y-30664730D01*
X88933529Y-30645517D01*
X88949593Y-30627793D01*
X88967317Y-30611729D01*
X88986530Y-30597479D01*
X89007047Y-30585182D01*
X89028671Y-30574954D01*
X89051193Y-30566896D01*
X89074397Y-30561084D01*
X89098058Y-30557574D01*
X89121950Y-30556400D01*
X90034450Y-30556400D01*
X90058342Y-30557574D01*
X90058342Y-30557574D01*
G37*
D11*
X89578200Y-31043900D03*
D10*
G36*
X90058342Y-32432574D02*
X90082003Y-32436084D01*
X90105207Y-32441896D01*
X90127729Y-32449954D01*
X90149353Y-32460182D01*
X90169870Y-32472479D01*
X90189083Y-32486729D01*
X90206807Y-32502793D01*
X90222871Y-32520517D01*
X90237121Y-32539730D01*
X90249418Y-32560247D01*
X90259646Y-32581871D01*
X90267704Y-32604393D01*
X90273516Y-32627597D01*
X90277026Y-32651258D01*
X90278200Y-32675150D01*
X90278200Y-33162650D01*
X90277026Y-33186542D01*
X90273516Y-33210203D01*
X90267704Y-33233407D01*
X90259646Y-33255929D01*
X90249418Y-33277553D01*
X90237121Y-33298070D01*
X90222871Y-33317283D01*
X90206807Y-33335007D01*
X90189083Y-33351071D01*
X90169870Y-33365321D01*
X90149353Y-33377618D01*
X90127729Y-33387846D01*
X90105207Y-33395904D01*
X90082003Y-33401716D01*
X90058342Y-33405226D01*
X90034450Y-33406400D01*
X89121950Y-33406400D01*
X89098058Y-33405226D01*
X89074397Y-33401716D01*
X89051193Y-33395904D01*
X89028671Y-33387846D01*
X89007047Y-33377618D01*
X88986530Y-33365321D01*
X88967317Y-33351071D01*
X88949593Y-33335007D01*
X88933529Y-33317283D01*
X88919279Y-33298070D01*
X88906982Y-33277553D01*
X88896754Y-33255929D01*
X88888696Y-33233407D01*
X88882884Y-33210203D01*
X88879374Y-33186542D01*
X88878200Y-33162650D01*
X88878200Y-32675150D01*
X88879374Y-32651258D01*
X88882884Y-32627597D01*
X88888696Y-32604393D01*
X88896754Y-32581871D01*
X88906982Y-32560247D01*
X88919279Y-32539730D01*
X88933529Y-32520517D01*
X88949593Y-32502793D01*
X88967317Y-32486729D01*
X88986530Y-32472479D01*
X89007047Y-32460182D01*
X89028671Y-32449954D01*
X89051193Y-32441896D01*
X89074397Y-32436084D01*
X89098058Y-32432574D01*
X89121950Y-32431400D01*
X90034450Y-32431400D01*
X90058342Y-32432574D01*
X90058342Y-32432574D01*
G37*
D11*
X89578200Y-32918900D03*
G04 #@! TD*
D10*
G04 #@! TO.C,R1*
G36*
X92296042Y-28715374D02*
X92319703Y-28718884D01*
X92342907Y-28724696D01*
X92365429Y-28732754D01*
X92387053Y-28742982D01*
X92407570Y-28755279D01*
X92426783Y-28769529D01*
X92444507Y-28785593D01*
X92460571Y-28803317D01*
X92474821Y-28822530D01*
X92487118Y-28843047D01*
X92497346Y-28864671D01*
X92505404Y-28887193D01*
X92511216Y-28910397D01*
X92514726Y-28934058D01*
X92515900Y-28957950D01*
X92515900Y-29445450D01*
X92514726Y-29469342D01*
X92511216Y-29493003D01*
X92505404Y-29516207D01*
X92497346Y-29538729D01*
X92487118Y-29560353D01*
X92474821Y-29580870D01*
X92460571Y-29600083D01*
X92444507Y-29617807D01*
X92426783Y-29633871D01*
X92407570Y-29648121D01*
X92387053Y-29660418D01*
X92365429Y-29670646D01*
X92342907Y-29678704D01*
X92319703Y-29684516D01*
X92296042Y-29688026D01*
X92272150Y-29689200D01*
X91359650Y-29689200D01*
X91335758Y-29688026D01*
X91312097Y-29684516D01*
X91288893Y-29678704D01*
X91266371Y-29670646D01*
X91244747Y-29660418D01*
X91224230Y-29648121D01*
X91205017Y-29633871D01*
X91187293Y-29617807D01*
X91171229Y-29600083D01*
X91156979Y-29580870D01*
X91144682Y-29560353D01*
X91134454Y-29538729D01*
X91126396Y-29516207D01*
X91120584Y-29493003D01*
X91117074Y-29469342D01*
X91115900Y-29445450D01*
X91115900Y-28957950D01*
X91117074Y-28934058D01*
X91120584Y-28910397D01*
X91126396Y-28887193D01*
X91134454Y-28864671D01*
X91144682Y-28843047D01*
X91156979Y-28822530D01*
X91171229Y-28803317D01*
X91187293Y-28785593D01*
X91205017Y-28769529D01*
X91224230Y-28755279D01*
X91244747Y-28742982D01*
X91266371Y-28732754D01*
X91288893Y-28724696D01*
X91312097Y-28718884D01*
X91335758Y-28715374D01*
X91359650Y-28714200D01*
X92272150Y-28714200D01*
X92296042Y-28715374D01*
X92296042Y-28715374D01*
G37*
D11*
X91815900Y-29201700D03*
D10*
G36*
X92296042Y-26840374D02*
X92319703Y-26843884D01*
X92342907Y-26849696D01*
X92365429Y-26857754D01*
X92387053Y-26867982D01*
X92407570Y-26880279D01*
X92426783Y-26894529D01*
X92444507Y-26910593D01*
X92460571Y-26928317D01*
X92474821Y-26947530D01*
X92487118Y-26968047D01*
X92497346Y-26989671D01*
X92505404Y-27012193D01*
X92511216Y-27035397D01*
X92514726Y-27059058D01*
X92515900Y-27082950D01*
X92515900Y-27570450D01*
X92514726Y-27594342D01*
X92511216Y-27618003D01*
X92505404Y-27641207D01*
X92497346Y-27663729D01*
X92487118Y-27685353D01*
X92474821Y-27705870D01*
X92460571Y-27725083D01*
X92444507Y-27742807D01*
X92426783Y-27758871D01*
X92407570Y-27773121D01*
X92387053Y-27785418D01*
X92365429Y-27795646D01*
X92342907Y-27803704D01*
X92319703Y-27809516D01*
X92296042Y-27813026D01*
X92272150Y-27814200D01*
X91359650Y-27814200D01*
X91335758Y-27813026D01*
X91312097Y-27809516D01*
X91288893Y-27803704D01*
X91266371Y-27795646D01*
X91244747Y-27785418D01*
X91224230Y-27773121D01*
X91205017Y-27758871D01*
X91187293Y-27742807D01*
X91171229Y-27725083D01*
X91156979Y-27705870D01*
X91144682Y-27685353D01*
X91134454Y-27663729D01*
X91126396Y-27641207D01*
X91120584Y-27618003D01*
X91117074Y-27594342D01*
X91115900Y-27570450D01*
X91115900Y-27082950D01*
X91117074Y-27059058D01*
X91120584Y-27035397D01*
X91126396Y-27012193D01*
X91134454Y-26989671D01*
X91144682Y-26968047D01*
X91156979Y-26947530D01*
X91171229Y-26928317D01*
X91187293Y-26910593D01*
X91205017Y-26894529D01*
X91224230Y-26880279D01*
X91244747Y-26867982D01*
X91266371Y-26857754D01*
X91288893Y-26849696D01*
X91312097Y-26843884D01*
X91335758Y-26840374D01*
X91359650Y-26839200D01*
X92272150Y-26839200D01*
X92296042Y-26840374D01*
X92296042Y-26840374D01*
G37*
D11*
X91815900Y-27326700D03*
G04 #@! TD*
D10*
G04 #@! TO.C,R10*
G36*
X99223542Y-39826874D02*
X99247203Y-39830384D01*
X99270407Y-39836196D01*
X99292929Y-39844254D01*
X99314553Y-39854482D01*
X99335070Y-39866779D01*
X99354283Y-39881029D01*
X99372007Y-39897093D01*
X99388071Y-39914817D01*
X99402321Y-39934030D01*
X99414618Y-39954547D01*
X99424846Y-39976171D01*
X99432904Y-39998693D01*
X99438716Y-40021897D01*
X99442226Y-40045558D01*
X99443400Y-40069450D01*
X99443400Y-40981950D01*
X99442226Y-41005842D01*
X99438716Y-41029503D01*
X99432904Y-41052707D01*
X99424846Y-41075229D01*
X99414618Y-41096853D01*
X99402321Y-41117370D01*
X99388071Y-41136583D01*
X99372007Y-41154307D01*
X99354283Y-41170371D01*
X99335070Y-41184621D01*
X99314553Y-41196918D01*
X99292929Y-41207146D01*
X99270407Y-41215204D01*
X99247203Y-41221016D01*
X99223542Y-41224526D01*
X99199650Y-41225700D01*
X98712150Y-41225700D01*
X98688258Y-41224526D01*
X98664597Y-41221016D01*
X98641393Y-41215204D01*
X98618871Y-41207146D01*
X98597247Y-41196918D01*
X98576730Y-41184621D01*
X98557517Y-41170371D01*
X98539793Y-41154307D01*
X98523729Y-41136583D01*
X98509479Y-41117370D01*
X98497182Y-41096853D01*
X98486954Y-41075229D01*
X98478896Y-41052707D01*
X98473084Y-41029503D01*
X98469574Y-41005842D01*
X98468400Y-40981950D01*
X98468400Y-40069450D01*
X98469574Y-40045558D01*
X98473084Y-40021897D01*
X98478896Y-39998693D01*
X98486954Y-39976171D01*
X98497182Y-39954547D01*
X98509479Y-39934030D01*
X98523729Y-39914817D01*
X98539793Y-39897093D01*
X98557517Y-39881029D01*
X98576730Y-39866779D01*
X98597247Y-39854482D01*
X98618871Y-39844254D01*
X98641393Y-39836196D01*
X98664597Y-39830384D01*
X98688258Y-39826874D01*
X98712150Y-39825700D01*
X99199650Y-39825700D01*
X99223542Y-39826874D01*
X99223542Y-39826874D01*
G37*
D11*
X98955900Y-40525700D03*
D10*
G36*
X97348542Y-39826874D02*
X97372203Y-39830384D01*
X97395407Y-39836196D01*
X97417929Y-39844254D01*
X97439553Y-39854482D01*
X97460070Y-39866779D01*
X97479283Y-39881029D01*
X97497007Y-39897093D01*
X97513071Y-39914817D01*
X97527321Y-39934030D01*
X97539618Y-39954547D01*
X97549846Y-39976171D01*
X97557904Y-39998693D01*
X97563716Y-40021897D01*
X97567226Y-40045558D01*
X97568400Y-40069450D01*
X97568400Y-40981950D01*
X97567226Y-41005842D01*
X97563716Y-41029503D01*
X97557904Y-41052707D01*
X97549846Y-41075229D01*
X97539618Y-41096853D01*
X97527321Y-41117370D01*
X97513071Y-41136583D01*
X97497007Y-41154307D01*
X97479283Y-41170371D01*
X97460070Y-41184621D01*
X97439553Y-41196918D01*
X97417929Y-41207146D01*
X97395407Y-41215204D01*
X97372203Y-41221016D01*
X97348542Y-41224526D01*
X97324650Y-41225700D01*
X96837150Y-41225700D01*
X96813258Y-41224526D01*
X96789597Y-41221016D01*
X96766393Y-41215204D01*
X96743871Y-41207146D01*
X96722247Y-41196918D01*
X96701730Y-41184621D01*
X96682517Y-41170371D01*
X96664793Y-41154307D01*
X96648729Y-41136583D01*
X96634479Y-41117370D01*
X96622182Y-41096853D01*
X96611954Y-41075229D01*
X96603896Y-41052707D01*
X96598084Y-41029503D01*
X96594574Y-41005842D01*
X96593400Y-40981950D01*
X96593400Y-40069450D01*
X96594574Y-40045558D01*
X96598084Y-40021897D01*
X96603896Y-39998693D01*
X96611954Y-39976171D01*
X96622182Y-39954547D01*
X96634479Y-39934030D01*
X96648729Y-39914817D01*
X96664793Y-39897093D01*
X96682517Y-39881029D01*
X96701730Y-39866779D01*
X96722247Y-39854482D01*
X96743871Y-39844254D01*
X96766393Y-39836196D01*
X96789597Y-39830384D01*
X96813258Y-39826874D01*
X96837150Y-39825700D01*
X97324650Y-39825700D01*
X97348542Y-39826874D01*
X97348542Y-39826874D01*
G37*
D11*
X97080900Y-40525700D03*
G04 #@! TD*
D10*
G04 #@! TO.C,R11*
G36*
X97420142Y-37591674D02*
X97443803Y-37595184D01*
X97467007Y-37600996D01*
X97489529Y-37609054D01*
X97511153Y-37619282D01*
X97531670Y-37631579D01*
X97550883Y-37645829D01*
X97568607Y-37661893D01*
X97584671Y-37679617D01*
X97598921Y-37698830D01*
X97611218Y-37719347D01*
X97621446Y-37740971D01*
X97629504Y-37763493D01*
X97635316Y-37786697D01*
X97638826Y-37810358D01*
X97640000Y-37834250D01*
X97640000Y-38746750D01*
X97638826Y-38770642D01*
X97635316Y-38794303D01*
X97629504Y-38817507D01*
X97621446Y-38840029D01*
X97611218Y-38861653D01*
X97598921Y-38882170D01*
X97584671Y-38901383D01*
X97568607Y-38919107D01*
X97550883Y-38935171D01*
X97531670Y-38949421D01*
X97511153Y-38961718D01*
X97489529Y-38971946D01*
X97467007Y-38980004D01*
X97443803Y-38985816D01*
X97420142Y-38989326D01*
X97396250Y-38990500D01*
X96908750Y-38990500D01*
X96884858Y-38989326D01*
X96861197Y-38985816D01*
X96837993Y-38980004D01*
X96815471Y-38971946D01*
X96793847Y-38961718D01*
X96773330Y-38949421D01*
X96754117Y-38935171D01*
X96736393Y-38919107D01*
X96720329Y-38901383D01*
X96706079Y-38882170D01*
X96693782Y-38861653D01*
X96683554Y-38840029D01*
X96675496Y-38817507D01*
X96669684Y-38794303D01*
X96666174Y-38770642D01*
X96665000Y-38746750D01*
X96665000Y-37834250D01*
X96666174Y-37810358D01*
X96669684Y-37786697D01*
X96675496Y-37763493D01*
X96683554Y-37740971D01*
X96693782Y-37719347D01*
X96706079Y-37698830D01*
X96720329Y-37679617D01*
X96736393Y-37661893D01*
X96754117Y-37645829D01*
X96773330Y-37631579D01*
X96793847Y-37619282D01*
X96815471Y-37609054D01*
X96837993Y-37600996D01*
X96861197Y-37595184D01*
X96884858Y-37591674D01*
X96908750Y-37590500D01*
X97396250Y-37590500D01*
X97420142Y-37591674D01*
X97420142Y-37591674D01*
G37*
D11*
X97152500Y-38290500D03*
D10*
G36*
X99295142Y-37591674D02*
X99318803Y-37595184D01*
X99342007Y-37600996D01*
X99364529Y-37609054D01*
X99386153Y-37619282D01*
X99406670Y-37631579D01*
X99425883Y-37645829D01*
X99443607Y-37661893D01*
X99459671Y-37679617D01*
X99473921Y-37698830D01*
X99486218Y-37719347D01*
X99496446Y-37740971D01*
X99504504Y-37763493D01*
X99510316Y-37786697D01*
X99513826Y-37810358D01*
X99515000Y-37834250D01*
X99515000Y-38746750D01*
X99513826Y-38770642D01*
X99510316Y-38794303D01*
X99504504Y-38817507D01*
X99496446Y-38840029D01*
X99486218Y-38861653D01*
X99473921Y-38882170D01*
X99459671Y-38901383D01*
X99443607Y-38919107D01*
X99425883Y-38935171D01*
X99406670Y-38949421D01*
X99386153Y-38961718D01*
X99364529Y-38971946D01*
X99342007Y-38980004D01*
X99318803Y-38985816D01*
X99295142Y-38989326D01*
X99271250Y-38990500D01*
X98783750Y-38990500D01*
X98759858Y-38989326D01*
X98736197Y-38985816D01*
X98712993Y-38980004D01*
X98690471Y-38971946D01*
X98668847Y-38961718D01*
X98648330Y-38949421D01*
X98629117Y-38935171D01*
X98611393Y-38919107D01*
X98595329Y-38901383D01*
X98581079Y-38882170D01*
X98568782Y-38861653D01*
X98558554Y-38840029D01*
X98550496Y-38817507D01*
X98544684Y-38794303D01*
X98541174Y-38770642D01*
X98540000Y-38746750D01*
X98540000Y-37834250D01*
X98541174Y-37810358D01*
X98544684Y-37786697D01*
X98550496Y-37763493D01*
X98558554Y-37740971D01*
X98568782Y-37719347D01*
X98581079Y-37698830D01*
X98595329Y-37679617D01*
X98611393Y-37661893D01*
X98629117Y-37645829D01*
X98648330Y-37631579D01*
X98668847Y-37619282D01*
X98690471Y-37609054D01*
X98712993Y-37600996D01*
X98736197Y-37595184D01*
X98759858Y-37591674D01*
X98783750Y-37590500D01*
X99271250Y-37590500D01*
X99295142Y-37591674D01*
X99295142Y-37591674D01*
G37*
D11*
X99027500Y-38290500D03*
G04 #@! TD*
M02*
