M48
;DRILL file {KiCad (5.0.1)-4} date 3/12/2019 4:01:02 PM
;FORMAT={-:-/ absolute / inch / decimal}
FMAT,2
INCH,TZ
T1C0.0157
T2C0.0295
T3C0.0315
T4C0.0394
T5C0.0433
T6C0.0472
T7C0.0551
%
G90
G05
M72
T1
X0.7926Y-3.1524
X0.9328Y-3.4608
X1.2653Y-0.8353
X1.3097Y-1.7912
X1.403Y-4.219
X1.4101Y-1.6268
X1.4473Y-1.5839
X1.5923Y-4.3139
X1.5931Y-3.3946
X1.623Y-2.6318
X1.6492Y-2.6693
X1.659Y-2.2486
X1.71Y-3.2949
X1.7113Y-3.3551
X1.7416Y-3.3297
X1.7481Y-2.8625
X1.7786Y-4.1053
X1.7818Y-3.0447
X1.8476Y-3.7446
X1.8989Y-3.264
X1.9116Y-2.2091
X1.9222Y-3.9363
X1.9711Y-2.6528
X1.999Y-3.8419
X2.0005Y-2.3177
X2.0065Y-4.2514
X2.0075Y-4.1662
X2.0998Y-2.2456
X2.1332Y-4.1904
X2.2093Y-4.3229
X2.2328Y-3.7888
X2.2698Y-3.3894
X2.276Y-3.9541
X2.3048Y-4.3041
X2.3299Y-2.6922
X2.3581Y-3.0709
X2.3678Y-4.2292
X2.3731Y-3.1109
X2.4177Y-3.9528
X2.4256Y-2.6688
X2.4605Y-3.4011
X2.5165Y-2.6019
X2.5464Y-2.917
X2.5665Y-3.4849
X2.5764Y-3.3495
X2.6489Y-1.4909
X2.6651Y-2.2017
X2.9483Y-1.0182
X2.98Y-3.0247
X3.0319Y-1.8833
X3.0492Y-1.2659
X3.1258Y-2.225
X3.1888Y-2.6166
X3.1929Y-2.0673
X3.3207Y-2.4199
X3.3342Y-2.0335
X3.4011Y-1.067
X3.4871Y-1.1838
X3.5126Y-3.1553
X3.5157Y-3.0361
X3.522Y-2.9494
X3.5426Y-4.3047
X3.5826Y-2.6071
X3.6152Y-1.3397
X3.6963Y-4.0363
X3.7354Y-3.7915
X3.737Y-1.9527
X3.7939Y-3.7889
X3.8276Y-3.9441
X3.8298Y-2.394
X3.8402Y-4.0935
X3.9131Y-3.3289
X3.9681Y-3.9339
X3.9726Y-3.5345
X3.9862Y-2.1738
X4.0127Y-3.7869
X4.0284Y-3.9363
X4.0979Y-3.0477
X4.2237Y-4.0419
X4.2641Y-4.2106
X4.2661Y-3.5592
X4.276Y-2.7285
X4.2993Y-2.3265
X4.3806Y-1.7727
X4.4267Y-2.1913
X4.4429Y-2.3637
T2
X3.2Y-1.22
X3.25Y-1.27
X3.3Y-1.22
X4.1Y-2.32
X4.15Y-2.27
X4.2Y-2.32
T3
X2.8683Y-2.6916
X2.8683Y-2.7916
X2.8683Y-2.8916
X2.8683Y-2.9916
X2.8683Y-3.0916
X2.8683Y-3.1916
X2.8683Y-3.2916
X2.8683Y-3.3916
X2.8683Y-3.4916
X2.8683Y-3.5916
X2.8683Y-3.6916
X2.8683Y-3.7916
X2.8683Y-3.8916
X2.8683Y-3.9916
X3.4683Y-2.6916
X3.4683Y-2.7916
X3.4683Y-2.8916
X3.4683Y-2.9916
X3.4683Y-3.0916
X3.4683Y-3.1916
X3.4683Y-3.2916
X3.4683Y-3.3916
X3.4683Y-3.4916
X3.4683Y-3.5916
X3.4683Y-3.6916
X3.4683Y-3.7916
X3.4683Y-3.8916
X3.4683Y-3.9916
X0.7771Y-0.8862
X0.97Y-0.8862
X4.1574Y-1.0482
X4.1574Y-1.1482
X4.1574Y-1.2482
X4.4574Y-1.0482
X4.4574Y-1.1482
X4.4574Y-1.2482
X2.1422Y-2.6922
X2.1422Y-2.7922
X2.1422Y-2.8922
X2.1422Y-2.9922
X2.1422Y-3.0922
X2.1422Y-3.1922
X2.1422Y-3.2922
X2.1422Y-3.3922
X2.1422Y-3.4922
X2.1422Y-3.5922
X2.1422Y-3.6922
X2.1422Y-3.7922
X2.1422Y-3.8922
X2.1422Y-3.9922
X2.7422Y-2.6922
X2.7422Y-2.7922
X2.7422Y-2.8922
X2.7422Y-2.9922
X2.7422Y-3.0922
X2.7422Y-3.1922
X2.7422Y-3.2922
X2.7422Y-3.3922
X2.7422Y-3.4922
X2.7422Y-3.5922
X2.7422Y-3.6922
X2.7422Y-3.7922
X2.7422Y-3.8922
X2.7422Y-3.9922
X3.0868Y-1.828
X3.0868Y-2.128
X3.1868Y-1.828
X3.1868Y-2.128
X3.2868Y-1.828
X3.2868Y-2.128
X3.3868Y-1.828
X3.3868Y-2.128
X3.4868Y-1.828
X3.4868Y-2.128
X3.5868Y-1.828
X3.5868Y-2.128
X3.6868Y-1.828
X3.6868Y-2.128
X3.8299Y-1.397
X3.8299Y-1.697
X3.9299Y-1.397
X3.9299Y-1.697
X4.0299Y-1.397
X4.0299Y-1.697
X4.1299Y-1.397
X4.1299Y-1.697
X4.2299Y-1.397
X4.2299Y-1.697
X4.3299Y-1.397
X4.3299Y-1.697
X4.4299Y-1.397
X4.4299Y-1.697
X3.5938Y-2.6902
X3.5938Y-2.7902
X3.5938Y-2.8902
X3.5938Y-2.9902
X3.5938Y-3.0902
X3.5938Y-3.1902
X3.5938Y-3.2902
X3.5938Y-3.3902
X3.5938Y-3.4902
X3.5938Y-3.5902
X3.5938Y-3.6902
X3.5938Y-3.7902
X3.5938Y-3.8902
X3.5938Y-3.9902
X3.5938Y-4.0902
X3.5938Y-4.1902
X4.1938Y-2.6902
X4.1938Y-2.7902
X4.1938Y-2.8902
X4.1938Y-2.9902
X4.1938Y-3.0902
X4.1938Y-3.1902
X4.1938Y-3.2902
X4.1938Y-3.3902
X4.1938Y-3.4902
X4.1938Y-3.5902
X4.1938Y-3.6902
X4.1938Y-3.7902
X4.1938Y-3.8902
X4.1938Y-3.9902
X4.1938Y-4.0902
X4.1938Y-4.1902
X2.7646Y-4.1198
X2.7646Y-4.4198
X2.8646Y-4.1198
X2.8646Y-4.4198
X2.9646Y-4.1198
X2.9646Y-4.4198
X3.0646Y-4.1198
X3.0646Y-4.4198
X3.1646Y-4.1198
X3.1646Y-4.4198
X3.2646Y-4.1198
X3.2646Y-4.4198
X3.3646Y-4.1198
X3.3646Y-4.4198
X3.4646Y-4.1198
X3.4646Y-4.4198
X0.6674Y-1.4422
X0.6674Y-1.7422
X0.7674Y-1.4422
X0.7674Y-1.7422
X0.8674Y-1.4422
X0.8674Y-1.7422
X0.9674Y-1.4422
X0.9674Y-1.7422
X1.0674Y-1.4422
X1.0674Y-1.7422
X1.1674Y-1.4422
X1.1674Y-1.7422
X1.2674Y-1.4422
X1.2674Y-1.7422
X1.7529Y-1.1868
X1.8529Y-1.1868
X1.9529Y-1.1868
X2.0529Y-1.1868
X2.1529Y-1.1868
X2.2529Y-1.1868
X2.3529Y-1.1868
X2.4529Y-1.1868
X2.5529Y-1.1868
X2.3773Y-2.2576
X2.3773Y-2.5576
X2.4773Y-2.2576
X2.4773Y-2.5576
X2.5773Y-2.2576
X2.5773Y-2.5576
X2.6773Y-2.2576
X2.6773Y-2.5576
X2.7773Y-2.2576
X2.7773Y-2.5576
X2.8773Y-2.2576
X2.8773Y-2.5576
X2.9773Y-2.2576
X2.9773Y-2.5576
X3.0773Y-2.2576
X3.0773Y-2.5576
X3.8333Y-1.8298
X3.8333Y-2.1298
X3.9333Y-1.8298
X3.9333Y-2.1298
X4.0333Y-1.8298
X4.0333Y-2.1298
X4.1333Y-1.8298
X4.1333Y-2.1298
X4.2333Y-1.8298
X4.2333Y-2.1298
X4.3333Y-1.8298
X4.3333Y-2.1298
X4.4333Y-1.8298
X4.4333Y-2.1298
X3.0899Y-1.3956
X3.0899Y-1.6956
X3.1899Y-1.3956
X3.1899Y-1.6956
X3.2899Y-1.3956
X3.2899Y-1.6956
X3.3899Y-1.3956
X3.3899Y-1.6956
X3.4899Y-1.3956
X3.4899Y-1.6956
X3.5899Y-1.3956
X3.5899Y-1.6956
X3.6899Y-1.3956
X3.6899Y-1.6956
X1.6533Y-1.4688
X1.6533Y-1.7688
X1.7533Y-1.4688
X1.7533Y-1.7688
X1.8533Y-1.4688
X1.8533Y-1.7688
X1.9533Y-1.4688
X1.9533Y-1.7688
X2.0533Y-1.4688
X2.0533Y-1.7688
X2.1533Y-1.4688
X2.1533Y-1.7688
X2.2533Y-1.4688
X2.2533Y-1.7688
X2.3533Y-1.4688
X2.3533Y-1.7688
X2.4533Y-1.4688
X2.4533Y-1.7688
X2.5533Y-1.4688
X2.5533Y-1.7688
X3.9284Y-1.0862
X3.9284Y-1.1846
X0.656Y-0.7082
X0.656Y-1.3082
X0.756Y-0.7082
X0.756Y-1.3082
X0.856Y-0.7082
X0.856Y-1.3082
X0.956Y-0.7082
X0.956Y-1.3082
X1.056Y-0.7082
X1.056Y-1.3082
X1.156Y-0.7082
X1.156Y-1.3082
X1.256Y-0.7082
X1.256Y-1.3082
X1.356Y-0.7082
X1.356Y-1.3082
X1.456Y-0.7082
X1.456Y-1.3082
X1.556Y-0.7082
X1.556Y-1.3082
X1.656Y-0.7082
X1.656Y-1.3082
X1.756Y-0.7082
X1.756Y-1.3082
X1.856Y-0.7082
X1.856Y-1.3082
X1.956Y-0.7082
X1.956Y-1.3082
X2.056Y-0.7082
X2.056Y-1.3082
X2.156Y-0.7082
X2.156Y-1.3082
X2.256Y-0.7082
X2.256Y-1.3082
X2.356Y-0.7082
X2.356Y-1.3082
X2.456Y-0.7082
X2.456Y-1.3082
X2.556Y-0.7082
X2.556Y-1.3082
X0.6612Y-1.8901
X0.6612Y-2.1901
X0.7612Y-1.8901
X0.7612Y-2.1901
X0.8612Y-1.8901
X0.8612Y-2.1901
X0.9612Y-1.8901
X0.9612Y-2.1901
X1.0612Y-1.8901
X1.0612Y-2.1901
X1.1612Y-1.8901
X1.1612Y-2.1901
X1.2612Y-1.8901
X1.2612Y-2.1901
X3.9206Y-0.7564
X3.9206Y-0.8548
X0.8673Y-2.3419
X0.8673Y-2.4419
X0.8673Y-2.5419
X0.8673Y-2.6419
X0.8673Y-2.7419
X0.8673Y-2.8419
X0.8673Y-2.9419
X0.8673Y-3.0419
X0.8673Y-3.1419
X0.8673Y-3.2419
X0.8673Y-3.3419
X0.8673Y-3.4419
X0.8673Y-3.5419
X0.8673Y-3.6419
X0.8673Y-3.7419
X0.8673Y-3.8419
X0.8673Y-3.9419
X0.8673Y-4.0419
X0.8673Y-4.1419
X0.8673Y-4.2419
X1.4673Y-2.3419
X1.4673Y-2.4419
X1.4673Y-2.5419
X1.4673Y-2.6419
X1.4673Y-2.7419
X1.4673Y-2.8419
X1.4673Y-2.9419
X1.4673Y-3.0419
X1.4673Y-3.1419
X1.4673Y-3.2419
X1.4673Y-3.3419
X1.4673Y-3.4419
X1.4673Y-3.5419
X1.4673Y-3.6419
X1.4673Y-3.7419
X1.4673Y-3.8419
X1.4673Y-3.9419
X1.4673Y-4.0419
X1.4673Y-4.1419
X1.4673Y-4.2419
X3.2259Y-2.2606
X3.2259Y-2.5606
X3.3259Y-2.2606
X3.3259Y-2.5606
X3.4259Y-2.2606
X3.4259Y-2.5606
X3.5259Y-2.2606
X3.5259Y-2.5606
X3.6259Y-2.2606
X3.6259Y-2.5606
X3.7259Y-2.2606
X3.7259Y-2.5606
X3.8259Y-2.2606
X3.8259Y-2.5606
X3.9259Y-2.2606
X3.9259Y-2.5606
X3.7802Y-4.4123
X3.8786Y-4.4123
T4
X4.3364Y-2.5916
X4.3364Y-2.6916
X4.3364Y-2.7916
X4.3364Y-2.8916
X4.3364Y-2.9916
X4.3364Y-3.0916
X4.3364Y-3.1916
X4.3364Y-3.2916
X4.3364Y-3.3916
X4.3364Y-3.4916
X4.3364Y-3.5916
X4.3364Y-3.6916
X4.3364Y-3.7916
X4.3364Y-3.8916
X4.3364Y-3.9916
X4.3364Y-4.0916
X4.3364Y-4.1916
X4.3364Y-4.2916
X4.3364Y-4.3916
X4.3364Y-4.4916
X4.4364Y-2.5916
X4.4364Y-2.6916
X4.4364Y-2.7916
X4.4364Y-2.8916
X4.4364Y-2.9916
X4.4364Y-3.0916
X4.4364Y-3.1916
X4.4364Y-3.2916
X4.4364Y-3.3916
X4.4364Y-3.4916
X4.4364Y-3.5916
X4.4364Y-3.6916
X4.4364Y-3.7916
X4.4364Y-3.8916
X4.4364Y-3.9916
X4.4364Y-4.0916
X4.4364Y-4.1916
X4.4364Y-4.2916
X4.4364Y-4.3916
X4.4364Y-4.4916
X0.6737Y-2.4324
X0.6737Y-2.5324
X0.6737Y-2.6324
X0.6737Y-2.7324
X0.6737Y-2.8324
X0.6737Y-2.9324
X0.6737Y-3.0324
X0.6737Y-3.1324
X0.6737Y-3.2324
X0.6733Y-4.3988
X0.6733Y-4.4988
X0.7733Y-4.3988
X0.7733Y-4.4988
X0.8733Y-4.3988
X0.8733Y-4.4988
X0.9733Y-4.3988
X0.9733Y-4.4988
X1.0733Y-4.3988
X1.0733Y-4.4988
X1.1733Y-4.3988
X1.1733Y-4.4988
X1.2733Y-4.3988
X1.2733Y-4.4988
X1.3733Y-4.3988
X1.3733Y-4.4988
X1.4733Y-4.3988
X1.4733Y-4.4988
X1.5733Y-4.3988
X1.5733Y-4.4988
X1.6733Y-4.3988
X1.6733Y-4.4988
X1.7733Y-4.3988
X1.7733Y-4.4988
X1.8733Y-4.3988
X1.8733Y-4.4988
X1.9733Y-4.3988
X1.9733Y-4.4988
X2.0733Y-4.3988
X2.0733Y-4.4988
X2.1733Y-4.3988
X2.1733Y-4.4988
X2.2733Y-4.3988
X2.2733Y-4.4988
X2.3733Y-4.3988
X2.3733Y-4.4988
X2.4733Y-4.3988
X2.4733Y-4.4988
X2.5733Y-4.3988
X2.5733Y-4.4988
X0.6737Y-3.4421
X0.6737Y-3.5421
X0.6737Y-3.6421
X0.6737Y-3.7421
X0.6737Y-3.8421
X0.6737Y-3.9421
X0.6737Y-4.0421
X0.6737Y-4.1421
X0.6737Y-4.2421
X2.702Y-0.7138
X2.702Y-0.8138
X2.702Y-1.0888
X2.702Y-1.1888
X2.802Y-0.7138
X2.802Y-1.0888
X2.902Y-0.7138
X2.902Y-1.0888
X3.002Y-0.7138
X3.002Y-0.8138
X3.002Y-1.0888
X3.002Y-1.1888
T5
X3.5145Y-0.7038
X3.5145Y-0.9597
X3.6917Y-0.7038
X3.6917Y-0.9597
T6
X4.1421Y-0.7571
X4.4472Y-0.7571
T7
X4.148Y-0.9067
X4.4413Y-0.9067
T0
M30
