G04 #@! TF.GenerationSoftware,KiCad,Pcbnew,(5.0.1)-4*
G04 #@! TF.CreationDate,2019-03-12T16:00:58+08:00*
G04 #@! TF.ProjectId,8051,383035312E6B696361645F7063620000,rev?*
G04 #@! TF.SameCoordinates,Original*
G04 #@! TF.FileFunction,Legend,Top*
G04 #@! TF.FilePolarity,Positive*
%FSLAX46Y46*%
G04 Gerber Fmt 4.6, Leading zero omitted, Abs format (unit mm)*
G04 Created by KiCad (PCBNEW (5.0.1)-4) date 3/12/2019 4:00:58 PM*
%MOMM*%
%LPD*%
G01*
G04 APERTURE LIST*
%ADD10C,0.200000*%
%ADD11C,0.120000*%
%ADD12C,0.150000*%
G04 APERTURE END LIST*
D10*
X114732000Y-115996920D02*
X114732000Y-15996920D01*
X14732000Y-115996920D02*
X114732000Y-115996920D01*
X14732000Y-115996920D02*
X14732000Y-15996920D01*
X14732000Y-15996920D02*
X114732000Y-15996920D01*
D11*
G04 #@! TO.C,U3*
X77580200Y-20670500D02*
X77580200Y-22000500D01*
X77580200Y-19400500D02*
X74980200Y-19400500D01*
X67300200Y-16800500D02*
X67300200Y-22000500D01*
X74980200Y-19400500D02*
X74980200Y-22000500D01*
X77580200Y-16800500D02*
X67300200Y-16800500D01*
X77580200Y-22000500D02*
X76250200Y-22000500D01*
X74980200Y-22000500D02*
X67300200Y-22000500D01*
X77580200Y-16800500D02*
X77580200Y-19400500D01*
X77580200Y-30195500D02*
X77580200Y-31525500D01*
X77580200Y-28925500D02*
X74980200Y-28925500D01*
X67300200Y-26325500D02*
X67300200Y-31525500D01*
X74980200Y-28925500D02*
X74980200Y-31525500D01*
X77580200Y-26325500D02*
X67300200Y-26325500D01*
X77580200Y-31525500D02*
X76250200Y-31525500D01*
X74980200Y-31525500D02*
X67300200Y-31525500D01*
X77580200Y-26325500D02*
X77580200Y-28925500D01*
G04 #@! TO.C,J4*
X17112000Y-60453000D02*
X18442000Y-60453000D01*
X18442000Y-60453000D02*
X18442000Y-61783000D01*
X18442000Y-63053000D02*
X18442000Y-83433000D01*
X15782000Y-83433000D02*
X18442000Y-83433000D01*
X15782000Y-63053000D02*
X15782000Y-83433000D01*
X15782000Y-63053000D02*
X18442000Y-63053000D01*
G04 #@! TO.C,J3*
X15782000Y-88699300D02*
X18442000Y-88699300D01*
X15782000Y-88699300D02*
X15782000Y-109079300D01*
X15782000Y-109079300D02*
X18442000Y-109079300D01*
X18442000Y-88699300D02*
X18442000Y-109079300D01*
X18442000Y-86099300D02*
X18442000Y-87429300D01*
X17112000Y-86099300D02*
X18442000Y-86099300D01*
G04 #@! TO.C,R12*
X32848600Y-28612878D02*
X32848600Y-28095722D01*
X31428600Y-28612878D02*
X31428600Y-28095722D01*
G04 #@! TO.C,R9*
X36483200Y-28612878D02*
X36483200Y-28095722D01*
X37903200Y-28612878D02*
X37903200Y-28095722D01*
G04 #@! TO.C,R8*
X35426700Y-28612878D02*
X35426700Y-28095722D01*
X34006700Y-28612878D02*
X34006700Y-28095722D01*
G04 #@! TO.C,R7*
X30374700Y-23030422D02*
X30374700Y-23547578D01*
X28954700Y-23030422D02*
X28954700Y-23547578D01*
G04 #@! TO.C,R16*
X30328900Y-28612878D02*
X30328900Y-28095722D01*
X28908900Y-28612878D02*
X28908900Y-28095722D01*
G04 #@! TO.C,R5*
X32848600Y-23030422D02*
X32848600Y-23547578D01*
X31428600Y-23030422D02*
X31428600Y-23547578D01*
G04 #@! TO.C,R4*
X34006700Y-23030422D02*
X34006700Y-23547578D01*
X35426700Y-23030422D02*
X35426700Y-23547578D01*
G04 #@! TO.C,R6*
X37903200Y-23030422D02*
X37903200Y-23547578D01*
X36483200Y-23030422D02*
X36483200Y-23547578D01*
G04 #@! TO.C,U7*
X53081900Y-102792000D02*
X70981900Y-102792000D01*
X53081900Y-66992000D02*
X53081900Y-102792000D01*
X70981900Y-66992000D02*
X53081900Y-66992000D01*
X70981900Y-102792000D02*
X70981900Y-66992000D01*
X55571900Y-102732000D02*
X61031900Y-102732000D01*
X55571900Y-67052000D02*
X55571900Y-102732000D01*
X68491900Y-67052000D02*
X55571900Y-67052000D01*
X68491900Y-102732000D02*
X68491900Y-67052000D01*
X63031900Y-102732000D02*
X68491900Y-102732000D01*
X61031900Y-102732000D02*
G75*
G02X63031900Y-102732000I1000000J0D01*
G01*
G04 #@! TO.C,U6*
X79474800Y-102717000D02*
G75*
G02X81474800Y-102717000I1000000J0D01*
G01*
X81474800Y-102717000D02*
X86934800Y-102717000D01*
X86934800Y-102717000D02*
X86934800Y-67037000D01*
X86934800Y-67037000D02*
X74014800Y-67037000D01*
X74014800Y-67037000D02*
X74014800Y-102717000D01*
X74014800Y-102717000D02*
X79474800Y-102717000D01*
X89424800Y-102777000D02*
X89424800Y-66977000D01*
X89424800Y-66977000D02*
X71524800Y-66977000D01*
X71524800Y-66977000D02*
X71524800Y-102777000D01*
X71524800Y-102777000D02*
X89424800Y-102777000D01*
G04 #@! TO.C,SW2*
X110408000Y-25294300D02*
G75*
G02X108408000Y-25294300I-1000000J0D01*
G01*
X108408000Y-25294300D02*
X106758000Y-25294300D01*
X106758000Y-25294300D02*
X106758000Y-33034300D01*
X106758000Y-33034300D02*
X112058000Y-33034300D01*
X112058000Y-33034300D02*
X112058000Y-25294300D01*
X112058000Y-25294300D02*
X110408000Y-25294300D01*
G04 #@! TO.C,C22*
X85650000Y-32341078D02*
X85650000Y-31823922D01*
X87070000Y-32341078D02*
X87070000Y-31823922D01*
G04 #@! TO.C,C5*
X23933100Y-73015322D02*
X23933100Y-73532478D01*
X25353100Y-73015322D02*
X25353100Y-73532478D01*
G04 #@! TO.C,C17*
X79162122Y-50592900D02*
X79679278Y-50592900D01*
X79162122Y-52012900D02*
X79679278Y-52012900D01*
G04 #@! TO.C,C16*
X111455422Y-52434600D02*
X111972578Y-52434600D01*
X111455422Y-51014600D02*
X111972578Y-51014600D01*
G04 #@! TO.C,C15*
X92914400Y-106080578D02*
X92914400Y-105563422D01*
X94334400Y-106080578D02*
X94334400Y-105563422D01*
G04 #@! TO.C,C13*
X66854000Y-33698922D02*
X66854000Y-34216078D01*
X68274000Y-33698922D02*
X68274000Y-34216078D01*
G04 #@! TO.C,C12*
X82956622Y-59173000D02*
X83473778Y-59173000D01*
X82956622Y-60593000D02*
X83473778Y-60593000D01*
G04 #@! TO.C,C19*
X93222578Y-37390000D02*
X92705422Y-37390000D01*
X93222578Y-38810000D02*
X92705422Y-38810000D01*
G04 #@! TO.C,C11*
X95368678Y-33727500D02*
X94851522Y-33727500D01*
X95368678Y-32307500D02*
X94851522Y-32307500D01*
G04 #@! TO.C,C18*
X34446100Y-43216322D02*
X34446100Y-43733478D01*
X35866100Y-43216322D02*
X35866100Y-43733478D01*
G04 #@! TO.C,C9*
X70939922Y-105970000D02*
X71457078Y-105970000D01*
X70939922Y-107390000D02*
X71457078Y-107390000D01*
G04 #@! TO.C,C8*
X57612822Y-102236000D02*
X58129978Y-102236000D01*
X57612822Y-100816000D02*
X58129978Y-100816000D01*
G04 #@! TO.C,C7*
X74474000Y-100842578D02*
X74474000Y-100325422D01*
X75894000Y-100842578D02*
X75894000Y-100325422D01*
G04 #@! TO.C,C6*
X68829422Y-115518000D02*
X69346578Y-115518000D01*
X68829422Y-114098000D02*
X69346578Y-114098000D01*
G04 #@! TO.C,C20*
X79268622Y-48182500D02*
X79785778Y-48182500D01*
X79268622Y-49602500D02*
X79785778Y-49602500D01*
G04 #@! TO.C,C10*
X60802822Y-60389800D02*
X61319978Y-60389800D01*
X60802822Y-58969800D02*
X61319978Y-58969800D01*
G04 #@! TO.C,C14*
X64505078Y-43343900D02*
X63987922Y-43343900D01*
X64505078Y-41923900D02*
X63987922Y-41923900D01*
G04 #@! TO.C,C21*
X101137100Y-112072000D02*
G75*
G03X101137100Y-112072000I-3870000J0D01*
G01*
X97267100Y-108242000D02*
X97267100Y-115902000D01*
X97307100Y-108242000D02*
X97307100Y-115902000D01*
X97347100Y-108242000D02*
X97347100Y-115902000D01*
X97387100Y-108243000D02*
X97387100Y-115901000D01*
X97427100Y-108245000D02*
X97427100Y-115899000D01*
X97467100Y-108247000D02*
X97467100Y-115897000D01*
X97507100Y-108249000D02*
X97507100Y-111032000D01*
X97507100Y-113112000D02*
X97507100Y-115895000D01*
X97547100Y-108252000D02*
X97547100Y-111032000D01*
X97547100Y-113112000D02*
X97547100Y-115892000D01*
X97587100Y-108255000D02*
X97587100Y-111032000D01*
X97587100Y-113112000D02*
X97587100Y-115889000D01*
X97627100Y-108258000D02*
X97627100Y-111032000D01*
X97627100Y-113112000D02*
X97627100Y-115886000D01*
X97667100Y-108262000D02*
X97667100Y-111032000D01*
X97667100Y-113112000D02*
X97667100Y-115882000D01*
X97707100Y-108267000D02*
X97707100Y-111032000D01*
X97707100Y-113112000D02*
X97707100Y-115877000D01*
X97747100Y-108271000D02*
X97747100Y-111032000D01*
X97747100Y-113112000D02*
X97747100Y-115873000D01*
X97787100Y-108277000D02*
X97787100Y-111032000D01*
X97787100Y-113112000D02*
X97787100Y-115867000D01*
X97827100Y-108282000D02*
X97827100Y-111032000D01*
X97827100Y-113112000D02*
X97827100Y-115862000D01*
X97867100Y-108288000D02*
X97867100Y-111032000D01*
X97867100Y-113112000D02*
X97867100Y-115856000D01*
X97907100Y-108295000D02*
X97907100Y-111032000D01*
X97907100Y-113112000D02*
X97907100Y-115849000D01*
X97947100Y-108302000D02*
X97947100Y-111032000D01*
X97947100Y-113112000D02*
X97947100Y-115842000D01*
X97988100Y-108309000D02*
X97988100Y-111032000D01*
X97988100Y-113112000D02*
X97988100Y-115835000D01*
X98028100Y-108317000D02*
X98028100Y-111032000D01*
X98028100Y-113112000D02*
X98028100Y-115827000D01*
X98068100Y-108325000D02*
X98068100Y-111032000D01*
X98068100Y-113112000D02*
X98068100Y-115819000D01*
X98108100Y-108334000D02*
X98108100Y-111032000D01*
X98108100Y-113112000D02*
X98108100Y-115810000D01*
X98148100Y-108343000D02*
X98148100Y-111032000D01*
X98148100Y-113112000D02*
X98148100Y-115801000D01*
X98188100Y-108352000D02*
X98188100Y-111032000D01*
X98188100Y-113112000D02*
X98188100Y-115792000D01*
X98228100Y-108362000D02*
X98228100Y-111032000D01*
X98228100Y-113112000D02*
X98228100Y-115782000D01*
X98268100Y-108373000D02*
X98268100Y-111032000D01*
X98268100Y-113112000D02*
X98268100Y-115771000D01*
X98308100Y-108384000D02*
X98308100Y-111032000D01*
X98308100Y-113112000D02*
X98308100Y-115760000D01*
X98348100Y-108395000D02*
X98348100Y-111032000D01*
X98348100Y-113112000D02*
X98348100Y-115749000D01*
X98388100Y-108407000D02*
X98388100Y-111032000D01*
X98388100Y-113112000D02*
X98388100Y-115737000D01*
X98428100Y-108419000D02*
X98428100Y-111032000D01*
X98428100Y-113112000D02*
X98428100Y-115725000D01*
X98468100Y-108432000D02*
X98468100Y-111032000D01*
X98468100Y-113112000D02*
X98468100Y-115712000D01*
X98508100Y-108446000D02*
X98508100Y-111032000D01*
X98508100Y-113112000D02*
X98508100Y-115698000D01*
X98548100Y-108459000D02*
X98548100Y-111032000D01*
X98548100Y-113112000D02*
X98548100Y-115685000D01*
X98588100Y-108474000D02*
X98588100Y-111032000D01*
X98588100Y-113112000D02*
X98588100Y-115670000D01*
X98628100Y-108488000D02*
X98628100Y-111032000D01*
X98628100Y-113112000D02*
X98628100Y-115656000D01*
X98668100Y-108504000D02*
X98668100Y-111032000D01*
X98668100Y-113112000D02*
X98668100Y-115640000D01*
X98708100Y-108519000D02*
X98708100Y-111032000D01*
X98708100Y-113112000D02*
X98708100Y-115625000D01*
X98748100Y-108536000D02*
X98748100Y-111032000D01*
X98748100Y-113112000D02*
X98748100Y-115608000D01*
X98788100Y-108552000D02*
X98788100Y-111032000D01*
X98788100Y-113112000D02*
X98788100Y-115592000D01*
X98828100Y-108570000D02*
X98828100Y-111032000D01*
X98828100Y-113112000D02*
X98828100Y-115574000D01*
X98868100Y-108588000D02*
X98868100Y-111032000D01*
X98868100Y-113112000D02*
X98868100Y-115556000D01*
X98908100Y-108606000D02*
X98908100Y-111032000D01*
X98908100Y-113112000D02*
X98908100Y-115538000D01*
X98948100Y-108625000D02*
X98948100Y-111032000D01*
X98948100Y-113112000D02*
X98948100Y-115519000D01*
X98988100Y-108645000D02*
X98988100Y-111032000D01*
X98988100Y-113112000D02*
X98988100Y-115499000D01*
X99028100Y-108665000D02*
X99028100Y-111032000D01*
X99028100Y-113112000D02*
X99028100Y-115479000D01*
X99068100Y-108686000D02*
X99068100Y-111032000D01*
X99068100Y-113112000D02*
X99068100Y-115458000D01*
X99108100Y-108707000D02*
X99108100Y-111032000D01*
X99108100Y-113112000D02*
X99108100Y-115437000D01*
X99148100Y-108729000D02*
X99148100Y-111032000D01*
X99148100Y-113112000D02*
X99148100Y-115415000D01*
X99188100Y-108751000D02*
X99188100Y-111032000D01*
X99188100Y-113112000D02*
X99188100Y-115393000D01*
X99228100Y-108775000D02*
X99228100Y-111032000D01*
X99228100Y-113112000D02*
X99228100Y-115369000D01*
X99268100Y-108798000D02*
X99268100Y-111032000D01*
X99268100Y-113112000D02*
X99268100Y-115346000D01*
X99308100Y-108823000D02*
X99308100Y-111032000D01*
X99308100Y-113112000D02*
X99308100Y-115321000D01*
X99348100Y-108848000D02*
X99348100Y-111032000D01*
X99348100Y-113112000D02*
X99348100Y-115296000D01*
X99388100Y-108874000D02*
X99388100Y-111032000D01*
X99388100Y-113112000D02*
X99388100Y-115270000D01*
X99428100Y-108900000D02*
X99428100Y-111032000D01*
X99428100Y-113112000D02*
X99428100Y-115244000D01*
X99468100Y-108928000D02*
X99468100Y-111032000D01*
X99468100Y-113112000D02*
X99468100Y-115216000D01*
X99508100Y-108956000D02*
X99508100Y-111032000D01*
X99508100Y-113112000D02*
X99508100Y-115188000D01*
X99548100Y-108984000D02*
X99548100Y-111032000D01*
X99548100Y-113112000D02*
X99548100Y-115160000D01*
X99588100Y-109014000D02*
X99588100Y-115130000D01*
X99628100Y-109044000D02*
X99628100Y-115100000D01*
X99668100Y-109076000D02*
X99668100Y-115068000D01*
X99708100Y-109108000D02*
X99708100Y-115036000D01*
X99748100Y-109141000D02*
X99748100Y-115003000D01*
X99788100Y-109174000D02*
X99788100Y-114970000D01*
X99828100Y-109209000D02*
X99828100Y-114935000D01*
X99868100Y-109245000D02*
X99868100Y-114899000D01*
X99908100Y-109282000D02*
X99908100Y-114862000D01*
X99948100Y-109320000D02*
X99948100Y-114824000D01*
X99988100Y-109359000D02*
X99988100Y-114785000D01*
X100028100Y-109399000D02*
X100028100Y-114745000D01*
X100068100Y-109440000D02*
X100068100Y-114704000D01*
X100108100Y-109483000D02*
X100108100Y-114661000D01*
X100148100Y-109526000D02*
X100148100Y-114618000D01*
X100188100Y-109572000D02*
X100188100Y-114572000D01*
X100228100Y-109618000D02*
X100228100Y-114526000D01*
X100268100Y-109667000D02*
X100268100Y-114477000D01*
X100308100Y-109717000D02*
X100308100Y-114427000D01*
X100348100Y-109768000D02*
X100348100Y-114376000D01*
X100388100Y-109822000D02*
X100388100Y-114322000D01*
X100428100Y-109877000D02*
X100428100Y-114267000D01*
X100468100Y-109935000D02*
X100468100Y-114209000D01*
X100508100Y-109995000D02*
X100508100Y-114149000D01*
X100548100Y-110058000D02*
X100548100Y-114086000D01*
X100588100Y-110123000D02*
X100588100Y-114021000D01*
X100628100Y-110191000D02*
X100628100Y-113953000D01*
X100668100Y-110263000D02*
X100668100Y-113881000D01*
X100708100Y-110339000D02*
X100708100Y-113805000D01*
X100748100Y-110418000D02*
X100748100Y-113726000D01*
X100788100Y-110503000D02*
X100788100Y-113641000D01*
X100828100Y-110594000D02*
X100828100Y-113550000D01*
X100868100Y-110691000D02*
X100868100Y-113453000D01*
X100908100Y-110797000D02*
X100908100Y-113347000D01*
X100948100Y-110914000D02*
X100948100Y-113230000D01*
X100988100Y-111044000D02*
X100988100Y-113100000D01*
X101028100Y-111195000D02*
X101028100Y-112949000D01*
X101068100Y-111379000D02*
X101068100Y-112765000D01*
X101108100Y-111631000D02*
X101108100Y-112513000D01*
X93124889Y-109897000D02*
X93874889Y-109897000D01*
X93499889Y-109522000D02*
X93499889Y-110272000D01*
G04 #@! TO.C,U9*
X114015000Y-64497000D02*
X108815000Y-64497000D01*
X114015000Y-112817000D02*
X114015000Y-64497000D01*
X108815000Y-115417000D02*
X108815000Y-64497000D01*
X114015000Y-112817000D02*
X111415000Y-112817000D01*
X111415000Y-112817000D02*
X111415000Y-115417000D01*
X111415000Y-115417000D02*
X108815000Y-115417000D01*
X114015000Y-114087000D02*
X114015000Y-115417000D01*
X114015000Y-115417000D02*
X112685000Y-115417000D01*
G04 #@! TO.C,JP1*
X41088500Y-96123000D02*
X39688500Y-96123000D01*
X38988500Y-95423000D02*
X38988500Y-94823000D01*
X39688500Y-94123000D02*
X41088500Y-94123000D01*
X41788500Y-94823000D02*
X41788500Y-95423000D01*
X41788500Y-95423000D02*
G75*
G02X41088500Y-96123000I-700000J0D01*
G01*
X41088500Y-94123000D02*
G75*
G02X41788500Y-94823000I0J-700000D01*
G01*
X38988500Y-94823000D02*
G75*
G02X39688500Y-94123000I700000J0D01*
G01*
X39688500Y-96123000D02*
G75*
G02X38988500Y-95423000I0J700000D01*
G01*
G04 #@! TO.C,JP2*
X39673500Y-93583000D02*
G75*
G02X38973500Y-92883000I0J700000D01*
G01*
X38973500Y-92283000D02*
G75*
G02X39673500Y-91583000I700000J0D01*
G01*
X41073500Y-91583000D02*
G75*
G02X41773500Y-92283000I0J-700000D01*
G01*
X41773500Y-92883000D02*
G75*
G02X41073500Y-93583000I-700000J0D01*
G01*
X41773500Y-92283000D02*
X41773500Y-92883000D01*
X39673500Y-91583000D02*
X41073500Y-91583000D01*
X38973500Y-92883000D02*
X38973500Y-92283000D01*
X41073500Y-93583000D02*
X39673500Y-93583000D01*
G04 #@! TO.C,U5*
X68890800Y-107453000D02*
G75*
G02X68890800Y-109453000I0J-1000000D01*
G01*
X68890800Y-109453000D02*
X68890800Y-111103000D01*
X68890800Y-111103000D02*
X89330800Y-111103000D01*
X89330800Y-111103000D02*
X89330800Y-105803000D01*
X89330800Y-105803000D02*
X68890800Y-105803000D01*
X68890800Y-105803000D02*
X68890800Y-107453000D01*
X68830800Y-113593000D02*
X89390800Y-113593000D01*
X89390800Y-113593000D02*
X89390800Y-103313000D01*
X89390800Y-103313000D02*
X68830800Y-103313000D01*
X68830800Y-103313000D02*
X68830800Y-113593000D01*
G04 #@! TO.C,U11*
X77074700Y-49241200D02*
G75*
G02X77074700Y-51241200I0J-1000000D01*
G01*
X77074700Y-51241200D02*
X77074700Y-52891200D01*
X77074700Y-52891200D02*
X94974700Y-52891200D01*
X94974700Y-52891200D02*
X94974700Y-47591200D01*
X94974700Y-47591200D02*
X77074700Y-47591200D01*
X77074700Y-47591200D02*
X77074700Y-49241200D01*
X77014700Y-55381200D02*
X95034700Y-55381200D01*
X95034700Y-55381200D02*
X95034700Y-45101200D01*
X95034700Y-45101200D02*
X77014700Y-45101200D01*
X77014700Y-45101200D02*
X77014700Y-55381200D01*
G04 #@! TO.C,Y2*
X25313000Y-25034500D02*
X19063000Y-25034500D01*
X25313000Y-19984500D02*
X19063000Y-19984500D01*
X25313000Y-19984500D02*
G75*
G02X25313000Y-25034500I0J-2525000D01*
G01*
X19063000Y-19984500D02*
G75*
G03X19063000Y-25034500I0J-2525000D01*
G01*
G04 #@! TO.C,C3*
X20268000Y-26998422D02*
X20268000Y-27515578D01*
X18848000Y-26998422D02*
X18848000Y-27515578D01*
G04 #@! TO.C,C1*
X97033200Y-24229111D02*
X97783200Y-24229111D01*
X97408200Y-24604111D02*
X97408200Y-23854111D01*
X99142200Y-16620900D02*
X100024200Y-16620900D01*
X98890200Y-16660900D02*
X100276200Y-16660900D01*
X98706200Y-16700900D02*
X100460200Y-16700900D01*
X98555200Y-16740900D02*
X100611200Y-16740900D01*
X98425200Y-16780900D02*
X100741200Y-16780900D01*
X98308200Y-16820900D02*
X100858200Y-16820900D01*
X98202200Y-16860900D02*
X100964200Y-16860900D01*
X98105200Y-16900900D02*
X101061200Y-16900900D01*
X98014200Y-16940900D02*
X101152200Y-16940900D01*
X97929200Y-16980900D02*
X101237200Y-16980900D01*
X97850200Y-17020900D02*
X101316200Y-17020900D01*
X97774200Y-17060900D02*
X101392200Y-17060900D01*
X97702200Y-17100900D02*
X101464200Y-17100900D01*
X97634200Y-17140900D02*
X101532200Y-17140900D01*
X97569200Y-17180900D02*
X101597200Y-17180900D01*
X97506200Y-17220900D02*
X101660200Y-17220900D01*
X97446200Y-17260900D02*
X101720200Y-17260900D01*
X97388200Y-17300900D02*
X101778200Y-17300900D01*
X97333200Y-17340900D02*
X101833200Y-17340900D01*
X97279200Y-17380900D02*
X101887200Y-17380900D01*
X97228200Y-17420900D02*
X101938200Y-17420900D01*
X97178200Y-17460900D02*
X101988200Y-17460900D01*
X97129200Y-17500900D02*
X102037200Y-17500900D01*
X97083200Y-17540900D02*
X102083200Y-17540900D01*
X97037200Y-17580900D02*
X102129200Y-17580900D01*
X96994200Y-17620900D02*
X102172200Y-17620900D01*
X96951200Y-17660900D02*
X102215200Y-17660900D01*
X96910200Y-17700900D02*
X102256200Y-17700900D01*
X96870200Y-17740900D02*
X102296200Y-17740900D01*
X96831200Y-17780900D02*
X102335200Y-17780900D01*
X96793200Y-17820900D02*
X102373200Y-17820900D01*
X96756200Y-17860900D02*
X102410200Y-17860900D01*
X96720200Y-17900900D02*
X102446200Y-17900900D01*
X96685200Y-17940900D02*
X102481200Y-17940900D01*
X96652200Y-17980900D02*
X102514200Y-17980900D01*
X96619200Y-18020900D02*
X102547200Y-18020900D01*
X96587200Y-18060900D02*
X102579200Y-18060900D01*
X96555200Y-18100900D02*
X102611200Y-18100900D01*
X96525200Y-18140900D02*
X102641200Y-18140900D01*
X100623200Y-18180900D02*
X102671200Y-18180900D01*
X96495200Y-18180900D02*
X98543200Y-18180900D01*
X100623200Y-18220900D02*
X102699200Y-18220900D01*
X96467200Y-18220900D02*
X98543200Y-18220900D01*
X100623200Y-18260900D02*
X102727200Y-18260900D01*
X96439200Y-18260900D02*
X98543200Y-18260900D01*
X100623200Y-18300900D02*
X102755200Y-18300900D01*
X96411200Y-18300900D02*
X98543200Y-18300900D01*
X100623200Y-18340900D02*
X102781200Y-18340900D01*
X96385200Y-18340900D02*
X98543200Y-18340900D01*
X100623200Y-18380900D02*
X102807200Y-18380900D01*
X96359200Y-18380900D02*
X98543200Y-18380900D01*
X100623200Y-18420900D02*
X102832200Y-18420900D01*
X96334200Y-18420900D02*
X98543200Y-18420900D01*
X100623200Y-18460900D02*
X102857200Y-18460900D01*
X96309200Y-18460900D02*
X98543200Y-18460900D01*
X100623200Y-18500900D02*
X102880200Y-18500900D01*
X96286200Y-18500900D02*
X98543200Y-18500900D01*
X100623200Y-18540900D02*
X102904200Y-18540900D01*
X96262200Y-18540900D02*
X98543200Y-18540900D01*
X100623200Y-18580900D02*
X102926200Y-18580900D01*
X96240200Y-18580900D02*
X98543200Y-18580900D01*
X100623200Y-18620900D02*
X102948200Y-18620900D01*
X96218200Y-18620900D02*
X98543200Y-18620900D01*
X100623200Y-18660900D02*
X102969200Y-18660900D01*
X96197200Y-18660900D02*
X98543200Y-18660900D01*
X100623200Y-18700900D02*
X102990200Y-18700900D01*
X96176200Y-18700900D02*
X98543200Y-18700900D01*
X100623200Y-18740900D02*
X103010200Y-18740900D01*
X96156200Y-18740900D02*
X98543200Y-18740900D01*
X100623200Y-18780900D02*
X103030200Y-18780900D01*
X96136200Y-18780900D02*
X98543200Y-18780900D01*
X100623200Y-18820900D02*
X103049200Y-18820900D01*
X96117200Y-18820900D02*
X98543200Y-18820900D01*
X100623200Y-18860900D02*
X103067200Y-18860900D01*
X96099200Y-18860900D02*
X98543200Y-18860900D01*
X100623200Y-18900900D02*
X103085200Y-18900900D01*
X96081200Y-18900900D02*
X98543200Y-18900900D01*
X100623200Y-18940900D02*
X103103200Y-18940900D01*
X96063200Y-18940900D02*
X98543200Y-18940900D01*
X100623200Y-18980900D02*
X103119200Y-18980900D01*
X96047200Y-18980900D02*
X98543200Y-18980900D01*
X100623200Y-19020900D02*
X103136200Y-19020900D01*
X96030200Y-19020900D02*
X98543200Y-19020900D01*
X100623200Y-19060900D02*
X103151200Y-19060900D01*
X96015200Y-19060900D02*
X98543200Y-19060900D01*
X100623200Y-19100900D02*
X103167200Y-19100900D01*
X95999200Y-19100900D02*
X98543200Y-19100900D01*
X100623200Y-19140900D02*
X103181200Y-19140900D01*
X95985200Y-19140900D02*
X98543200Y-19140900D01*
X100623200Y-19180900D02*
X103196200Y-19180900D01*
X95970200Y-19180900D02*
X98543200Y-19180900D01*
X100623200Y-19220900D02*
X103209200Y-19220900D01*
X95957200Y-19220900D02*
X98543200Y-19220900D01*
X100623200Y-19260900D02*
X103223200Y-19260900D01*
X95943200Y-19260900D02*
X98543200Y-19260900D01*
X100623200Y-19300900D02*
X103236200Y-19300900D01*
X95930200Y-19300900D02*
X98543200Y-19300900D01*
X100623200Y-19340900D02*
X103248200Y-19340900D01*
X95918200Y-19340900D02*
X98543200Y-19340900D01*
X100623200Y-19380900D02*
X103260200Y-19380900D01*
X95906200Y-19380900D02*
X98543200Y-19380900D01*
X100623200Y-19420900D02*
X103271200Y-19420900D01*
X95895200Y-19420900D02*
X98543200Y-19420900D01*
X100623200Y-19460900D02*
X103282200Y-19460900D01*
X95884200Y-19460900D02*
X98543200Y-19460900D01*
X100623200Y-19500900D02*
X103293200Y-19500900D01*
X95873200Y-19500900D02*
X98543200Y-19500900D01*
X100623200Y-19540900D02*
X103303200Y-19540900D01*
X95863200Y-19540900D02*
X98543200Y-19540900D01*
X100623200Y-19580900D02*
X103312200Y-19580900D01*
X95854200Y-19580900D02*
X98543200Y-19580900D01*
X100623200Y-19620900D02*
X103321200Y-19620900D01*
X95845200Y-19620900D02*
X98543200Y-19620900D01*
X100623200Y-19660900D02*
X103330200Y-19660900D01*
X95836200Y-19660900D02*
X98543200Y-19660900D01*
X100623200Y-19700900D02*
X103338200Y-19700900D01*
X95828200Y-19700900D02*
X98543200Y-19700900D01*
X100623200Y-19740900D02*
X103346200Y-19740900D01*
X95820200Y-19740900D02*
X98543200Y-19740900D01*
X100623200Y-19781900D02*
X103353200Y-19781900D01*
X95813200Y-19781900D02*
X98543200Y-19781900D01*
X100623200Y-19821900D02*
X103360200Y-19821900D01*
X95806200Y-19821900D02*
X98543200Y-19821900D01*
X100623200Y-19861900D02*
X103367200Y-19861900D01*
X95799200Y-19861900D02*
X98543200Y-19861900D01*
X100623200Y-19901900D02*
X103373200Y-19901900D01*
X95793200Y-19901900D02*
X98543200Y-19901900D01*
X100623200Y-19941900D02*
X103378200Y-19941900D01*
X95788200Y-19941900D02*
X98543200Y-19941900D01*
X100623200Y-19981900D02*
X103384200Y-19981900D01*
X95782200Y-19981900D02*
X98543200Y-19981900D01*
X100623200Y-20021900D02*
X103388200Y-20021900D01*
X95778200Y-20021900D02*
X98543200Y-20021900D01*
X100623200Y-20061900D02*
X103393200Y-20061900D01*
X95773200Y-20061900D02*
X98543200Y-20061900D01*
X100623200Y-20101900D02*
X103397200Y-20101900D01*
X95769200Y-20101900D02*
X98543200Y-20101900D01*
X100623200Y-20141900D02*
X103400200Y-20141900D01*
X95766200Y-20141900D02*
X98543200Y-20141900D01*
X100623200Y-20181900D02*
X103403200Y-20181900D01*
X95763200Y-20181900D02*
X98543200Y-20181900D01*
X100623200Y-20221900D02*
X103406200Y-20221900D01*
X95760200Y-20221900D02*
X98543200Y-20221900D01*
X95758200Y-20261900D02*
X103408200Y-20261900D01*
X95756200Y-20301900D02*
X103410200Y-20301900D01*
X95754200Y-20341900D02*
X103412200Y-20341900D01*
X95753200Y-20381900D02*
X103413200Y-20381900D01*
X95753200Y-20421900D02*
X103413200Y-20421900D01*
X95753200Y-20461900D02*
X103413200Y-20461900D01*
X103453200Y-20461900D02*
G75*
G03X103453200Y-20461900I-3870000J0D01*
G01*
G04 #@! TO.C,C2*
X103651400Y-28839500D02*
G75*
G03X103651400Y-28839500I-3870000J0D01*
G01*
X103611400Y-28839500D02*
X95951400Y-28839500D01*
X103611400Y-28879500D02*
X95951400Y-28879500D01*
X103611400Y-28919500D02*
X95951400Y-28919500D01*
X103610400Y-28959500D02*
X95952400Y-28959500D01*
X103608400Y-28999500D02*
X95954400Y-28999500D01*
X103606400Y-29039500D02*
X95956400Y-29039500D01*
X103604400Y-29079500D02*
X100821400Y-29079500D01*
X98741400Y-29079500D02*
X95958400Y-29079500D01*
X103601400Y-29119500D02*
X100821400Y-29119500D01*
X98741400Y-29119500D02*
X95961400Y-29119500D01*
X103598400Y-29159500D02*
X100821400Y-29159500D01*
X98741400Y-29159500D02*
X95964400Y-29159500D01*
X103595400Y-29199500D02*
X100821400Y-29199500D01*
X98741400Y-29199500D02*
X95967400Y-29199500D01*
X103591400Y-29239500D02*
X100821400Y-29239500D01*
X98741400Y-29239500D02*
X95971400Y-29239500D01*
X103586400Y-29279500D02*
X100821400Y-29279500D01*
X98741400Y-29279500D02*
X95976400Y-29279500D01*
X103582400Y-29319500D02*
X100821400Y-29319500D01*
X98741400Y-29319500D02*
X95980400Y-29319500D01*
X103576400Y-29359500D02*
X100821400Y-29359500D01*
X98741400Y-29359500D02*
X95986400Y-29359500D01*
X103571400Y-29399500D02*
X100821400Y-29399500D01*
X98741400Y-29399500D02*
X95991400Y-29399500D01*
X103565400Y-29439500D02*
X100821400Y-29439500D01*
X98741400Y-29439500D02*
X95997400Y-29439500D01*
X103558400Y-29479500D02*
X100821400Y-29479500D01*
X98741400Y-29479500D02*
X96004400Y-29479500D01*
X103551400Y-29519500D02*
X100821400Y-29519500D01*
X98741400Y-29519500D02*
X96011400Y-29519500D01*
X103544400Y-29560500D02*
X100821400Y-29560500D01*
X98741400Y-29560500D02*
X96018400Y-29560500D01*
X103536400Y-29600500D02*
X100821400Y-29600500D01*
X98741400Y-29600500D02*
X96026400Y-29600500D01*
X103528400Y-29640500D02*
X100821400Y-29640500D01*
X98741400Y-29640500D02*
X96034400Y-29640500D01*
X103519400Y-29680500D02*
X100821400Y-29680500D01*
X98741400Y-29680500D02*
X96043400Y-29680500D01*
X103510400Y-29720500D02*
X100821400Y-29720500D01*
X98741400Y-29720500D02*
X96052400Y-29720500D01*
X103501400Y-29760500D02*
X100821400Y-29760500D01*
X98741400Y-29760500D02*
X96061400Y-29760500D01*
X103491400Y-29800500D02*
X100821400Y-29800500D01*
X98741400Y-29800500D02*
X96071400Y-29800500D01*
X103480400Y-29840500D02*
X100821400Y-29840500D01*
X98741400Y-29840500D02*
X96082400Y-29840500D01*
X103469400Y-29880500D02*
X100821400Y-29880500D01*
X98741400Y-29880500D02*
X96093400Y-29880500D01*
X103458400Y-29920500D02*
X100821400Y-29920500D01*
X98741400Y-29920500D02*
X96104400Y-29920500D01*
X103446400Y-29960500D02*
X100821400Y-29960500D01*
X98741400Y-29960500D02*
X96116400Y-29960500D01*
X103434400Y-30000500D02*
X100821400Y-30000500D01*
X98741400Y-30000500D02*
X96128400Y-30000500D01*
X103421400Y-30040500D02*
X100821400Y-30040500D01*
X98741400Y-30040500D02*
X96141400Y-30040500D01*
X103407400Y-30080500D02*
X100821400Y-30080500D01*
X98741400Y-30080500D02*
X96155400Y-30080500D01*
X103394400Y-30120500D02*
X100821400Y-30120500D01*
X98741400Y-30120500D02*
X96168400Y-30120500D01*
X103379400Y-30160500D02*
X100821400Y-30160500D01*
X98741400Y-30160500D02*
X96183400Y-30160500D01*
X103365400Y-30200500D02*
X100821400Y-30200500D01*
X98741400Y-30200500D02*
X96197400Y-30200500D01*
X103349400Y-30240500D02*
X100821400Y-30240500D01*
X98741400Y-30240500D02*
X96213400Y-30240500D01*
X103334400Y-30280500D02*
X100821400Y-30280500D01*
X98741400Y-30280500D02*
X96228400Y-30280500D01*
X103317400Y-30320500D02*
X100821400Y-30320500D01*
X98741400Y-30320500D02*
X96245400Y-30320500D01*
X103301400Y-30360500D02*
X100821400Y-30360500D01*
X98741400Y-30360500D02*
X96261400Y-30360500D01*
X103283400Y-30400500D02*
X100821400Y-30400500D01*
X98741400Y-30400500D02*
X96279400Y-30400500D01*
X103265400Y-30440500D02*
X100821400Y-30440500D01*
X98741400Y-30440500D02*
X96297400Y-30440500D01*
X103247400Y-30480500D02*
X100821400Y-30480500D01*
X98741400Y-30480500D02*
X96315400Y-30480500D01*
X103228400Y-30520500D02*
X100821400Y-30520500D01*
X98741400Y-30520500D02*
X96334400Y-30520500D01*
X103208400Y-30560500D02*
X100821400Y-30560500D01*
X98741400Y-30560500D02*
X96354400Y-30560500D01*
X103188400Y-30600500D02*
X100821400Y-30600500D01*
X98741400Y-30600500D02*
X96374400Y-30600500D01*
X103167400Y-30640500D02*
X100821400Y-30640500D01*
X98741400Y-30640500D02*
X96395400Y-30640500D01*
X103146400Y-30680500D02*
X100821400Y-30680500D01*
X98741400Y-30680500D02*
X96416400Y-30680500D01*
X103124400Y-30720500D02*
X100821400Y-30720500D01*
X98741400Y-30720500D02*
X96438400Y-30720500D01*
X103102400Y-30760500D02*
X100821400Y-30760500D01*
X98741400Y-30760500D02*
X96460400Y-30760500D01*
X103078400Y-30800500D02*
X100821400Y-30800500D01*
X98741400Y-30800500D02*
X96484400Y-30800500D01*
X103055400Y-30840500D02*
X100821400Y-30840500D01*
X98741400Y-30840500D02*
X96507400Y-30840500D01*
X103030400Y-30880500D02*
X100821400Y-30880500D01*
X98741400Y-30880500D02*
X96532400Y-30880500D01*
X103005400Y-30920500D02*
X100821400Y-30920500D01*
X98741400Y-30920500D02*
X96557400Y-30920500D01*
X102979400Y-30960500D02*
X100821400Y-30960500D01*
X98741400Y-30960500D02*
X96583400Y-30960500D01*
X102953400Y-31000500D02*
X100821400Y-31000500D01*
X98741400Y-31000500D02*
X96609400Y-31000500D01*
X102925400Y-31040500D02*
X100821400Y-31040500D01*
X98741400Y-31040500D02*
X96637400Y-31040500D01*
X102897400Y-31080500D02*
X100821400Y-31080500D01*
X98741400Y-31080500D02*
X96665400Y-31080500D01*
X102869400Y-31120500D02*
X100821400Y-31120500D01*
X98741400Y-31120500D02*
X96693400Y-31120500D01*
X102839400Y-31160500D02*
X96723400Y-31160500D01*
X102809400Y-31200500D02*
X96753400Y-31200500D01*
X102777400Y-31240500D02*
X96785400Y-31240500D01*
X102745400Y-31280500D02*
X96817400Y-31280500D01*
X102712400Y-31320500D02*
X96850400Y-31320500D01*
X102679400Y-31360500D02*
X96883400Y-31360500D01*
X102644400Y-31400500D02*
X96918400Y-31400500D01*
X102608400Y-31440500D02*
X96954400Y-31440500D01*
X102571400Y-31480500D02*
X96991400Y-31480500D01*
X102533400Y-31520500D02*
X97029400Y-31520500D01*
X102494400Y-31560500D02*
X97068400Y-31560500D01*
X102454400Y-31600500D02*
X97108400Y-31600500D01*
X102413400Y-31640500D02*
X97149400Y-31640500D01*
X102370400Y-31680500D02*
X97192400Y-31680500D01*
X102327400Y-31720500D02*
X97235400Y-31720500D01*
X102281400Y-31760500D02*
X97281400Y-31760500D01*
X102235400Y-31800500D02*
X97327400Y-31800500D01*
X102186400Y-31840500D02*
X97376400Y-31840500D01*
X102136400Y-31880500D02*
X97426400Y-31880500D01*
X102085400Y-31920500D02*
X97477400Y-31920500D01*
X102031400Y-31960500D02*
X97531400Y-31960500D01*
X101976400Y-32000500D02*
X97586400Y-32000500D01*
X101918400Y-32040500D02*
X97644400Y-32040500D01*
X101858400Y-32080500D02*
X97704400Y-32080500D01*
X101795400Y-32120500D02*
X97767400Y-32120500D01*
X101730400Y-32160500D02*
X97832400Y-32160500D01*
X101662400Y-32200500D02*
X97900400Y-32200500D01*
X101590400Y-32240500D02*
X97972400Y-32240500D01*
X101514400Y-32280500D02*
X98048400Y-32280500D01*
X101435400Y-32320500D02*
X98127400Y-32320500D01*
X101350400Y-32360500D02*
X98212400Y-32360500D01*
X101259400Y-32400500D02*
X98303400Y-32400500D01*
X101162400Y-32440500D02*
X98400400Y-32440500D01*
X101056400Y-32480500D02*
X98506400Y-32480500D01*
X100939400Y-32520500D02*
X98623400Y-32520500D01*
X100809400Y-32560500D02*
X98753400Y-32560500D01*
X100658400Y-32600500D02*
X98904400Y-32600500D01*
X100474400Y-32640500D02*
X99088400Y-32640500D01*
X100222400Y-32680500D02*
X99340400Y-32680500D01*
X101956400Y-24697289D02*
X101956400Y-25447289D01*
X102331400Y-25072289D02*
X101581400Y-25072289D01*
G04 #@! TO.C,D10*
X79382700Y-20554400D02*
X79382700Y-23239400D01*
X79382700Y-23239400D02*
X81302700Y-23239400D01*
X81302700Y-23239400D02*
X81302700Y-20554400D01*
G04 #@! TO.C,R21*
X112631422Y-61766500D02*
X113148578Y-61766500D01*
X112631422Y-60346500D02*
X113148578Y-60346500D01*
G04 #@! TO.C,R25*
X101927422Y-51106000D02*
X102444578Y-51106000D01*
X101927422Y-52526000D02*
X102444578Y-52526000D01*
G04 #@! TO.C,R24*
X79637800Y-17834122D02*
X79637800Y-18351278D01*
X81057800Y-17834122D02*
X81057800Y-18351278D01*
G04 #@! TO.C,R22*
X112631422Y-58314500D02*
X113148578Y-58314500D01*
X112631422Y-59734500D02*
X113148578Y-59734500D01*
G04 #@! TO.C,R20*
X112631422Y-63798500D02*
X113148578Y-63798500D01*
X112631422Y-62378500D02*
X113148578Y-62378500D01*
G04 #@! TO.C,R23*
X112631422Y-56282500D02*
X113148578Y-56282500D01*
X112631422Y-57702500D02*
X113148578Y-57702500D01*
G04 #@! TO.C,J2*
X15772000Y-110399000D02*
X15772000Y-115599000D01*
X64092000Y-110399000D02*
X15772000Y-110399000D01*
X66692000Y-115599000D02*
X15772000Y-115599000D01*
X64092000Y-110399000D02*
X64092000Y-112999000D01*
X64092000Y-112999000D02*
X66692000Y-112999000D01*
X66692000Y-112999000D02*
X66692000Y-115599000D01*
X65362000Y-110399000D02*
X66692000Y-110399000D01*
X66692000Y-110399000D02*
X66692000Y-111729000D01*
G04 #@! TO.C,U10*
X80607900Y-60229200D02*
G75*
G02X80607900Y-62229200I0J-1000000D01*
G01*
X80607900Y-62229200D02*
X80607900Y-63879200D01*
X80607900Y-63879200D02*
X101047900Y-63879200D01*
X101047900Y-63879200D02*
X101047900Y-58579200D01*
X101047900Y-58579200D02*
X80607900Y-58579200D01*
X80607900Y-58579200D02*
X80607900Y-60229200D01*
X80547900Y-66369200D02*
X101107900Y-66369200D01*
X101107900Y-66369200D02*
X101107900Y-56089200D01*
X101107900Y-56089200D02*
X80547900Y-56089200D01*
X80547900Y-56089200D02*
X80547900Y-66369200D01*
G04 #@! TO.C,U2*
X66183800Y-42117500D02*
G75*
G02X66183800Y-40117500I0J1000000D01*
G01*
X66183800Y-40117500D02*
X66183800Y-38467500D01*
X66183800Y-38467500D02*
X40663800Y-38467500D01*
X40663800Y-38467500D02*
X40663800Y-43767500D01*
X40663800Y-43767500D02*
X66183800Y-43767500D01*
X66183800Y-43767500D02*
X66183800Y-42117500D01*
X66243800Y-35977500D02*
X40603800Y-35977500D01*
X40603800Y-35977500D02*
X40603800Y-46257500D01*
X40603800Y-46257500D02*
X66243800Y-46257500D01*
X66243800Y-46257500D02*
X66243800Y-35977500D01*
G04 #@! TO.C,SW1*
X94768300Y-23376400D02*
X94768300Y-18876400D01*
X90768300Y-24626400D02*
X92268300Y-24626400D01*
X88268300Y-18876400D02*
X88268300Y-23376400D01*
X92268300Y-17626400D02*
X90768300Y-17626400D01*
D12*
G04 #@! TO.C,J1*
X113235000Y-21831100D02*
X113235000Y-20431100D01*
X113235000Y-18031100D02*
X113235000Y-17881100D01*
X113235000Y-17881100D02*
X112935000Y-17881100D01*
X112935000Y-17881100D02*
X112935000Y-17431100D01*
X105235000Y-17431100D02*
X105235000Y-17881100D01*
X105235000Y-17881100D02*
X104935000Y-17881100D01*
X104935000Y-17881100D02*
X104935000Y-18031100D01*
X104935000Y-20431100D02*
X104935000Y-21831100D01*
X110160000Y-24006100D02*
X110885000Y-24006100D01*
X110885000Y-24006100D02*
X110885000Y-23581100D01*
X110885000Y-23581100D02*
X111610000Y-23581100D01*
X107285000Y-23581100D02*
X106560000Y-23581100D01*
D11*
G04 #@! TO.C,D4*
X81381800Y-20557000D02*
X81381800Y-23242000D01*
X81381800Y-23242000D02*
X83301800Y-23242000D01*
X83301800Y-23242000D02*
X83301800Y-20557000D01*
G04 #@! TO.C,D3*
X87550500Y-23242000D02*
X87550500Y-20557000D01*
X85630500Y-23242000D02*
X87550500Y-23242000D01*
X85630500Y-20557000D02*
X85630500Y-23242000D01*
G04 #@! TO.C,U14*
X15464500Y-50818500D02*
G75*
G02X15464500Y-52818500I0J-1000000D01*
G01*
X15464500Y-52818500D02*
X15464500Y-54468500D01*
X15464500Y-54468500D02*
X33364500Y-54468500D01*
X33364500Y-54468500D02*
X33364500Y-49168500D01*
X33364500Y-49168500D02*
X15464500Y-49168500D01*
X15464500Y-49168500D02*
X15464500Y-50818500D01*
X15404500Y-56958500D02*
X33424500Y-56958500D01*
X33424500Y-56958500D02*
X33424500Y-46678500D01*
X33424500Y-46678500D02*
X15404500Y-46678500D01*
X15404500Y-46678500D02*
X15404500Y-56958500D01*
G04 #@! TO.C,U21*
X77093500Y-34118200D02*
X77093500Y-44398200D01*
X95113500Y-34118200D02*
X77093500Y-34118200D01*
X95113500Y-44398200D02*
X95113500Y-34118200D01*
X77093500Y-44398200D02*
X95113500Y-44398200D01*
X77153500Y-36608200D02*
X77153500Y-38258200D01*
X95053500Y-36608200D02*
X77153500Y-36608200D01*
X95053500Y-41908200D02*
X95053500Y-36608200D01*
X77153500Y-41908200D02*
X95053500Y-41908200D01*
X77153500Y-40258200D02*
X77153500Y-41908200D01*
X77153500Y-38258200D02*
G75*
G02X77153500Y-40258200I0J-1000000D01*
G01*
G04 #@! TO.C,U22*
X58993400Y-56013000D02*
X58993400Y-66293000D01*
X79553400Y-56013000D02*
X58993400Y-56013000D01*
X79553400Y-66293000D02*
X79553400Y-56013000D01*
X58993400Y-66293000D02*
X79553400Y-66293000D01*
X59053400Y-58503000D02*
X59053400Y-60153000D01*
X79493400Y-58503000D02*
X59053400Y-58503000D01*
X79493400Y-63803000D02*
X79493400Y-58503000D01*
X59053400Y-63803000D02*
X79493400Y-63803000D01*
X59053400Y-62153000D02*
X59053400Y-63803000D01*
X59053400Y-60153000D02*
G75*
G02X59053400Y-62153000I0J-1000000D01*
G01*
G04 #@! TO.C,U20*
X97903000Y-107761000D02*
G75*
G02X99903000Y-107761000I1000000J0D01*
G01*
X99903000Y-107761000D02*
X105363000Y-107761000D01*
X105363000Y-107761000D02*
X105363000Y-67001000D01*
X105363000Y-67001000D02*
X92443000Y-67001000D01*
X92443000Y-67001000D02*
X92443000Y-107761000D01*
X92443000Y-107761000D02*
X97903000Y-107761000D01*
X107853000Y-107821000D02*
X107853000Y-66941000D01*
X107853000Y-66941000D02*
X89953000Y-66941000D01*
X89953000Y-66941000D02*
X89953000Y-107821000D01*
X89953000Y-107821000D02*
X107853000Y-107821000D01*
G04 #@! TO.C,U13*
X66252400Y-26608300D02*
G75*
G02X66252400Y-24608300I0J1000000D01*
G01*
X66252400Y-24608300D02*
X66252400Y-19148300D01*
X66252400Y-19148300D02*
X15332400Y-19148300D01*
X15332400Y-19148300D02*
X15332400Y-32068300D01*
X15332400Y-32068300D02*
X66252400Y-32068300D01*
X66252400Y-32068300D02*
X66252400Y-26608300D01*
X66312400Y-16658300D02*
X15272400Y-16658300D01*
X15272400Y-16658300D02*
X15272400Y-34558300D01*
X15272400Y-34558300D02*
X66312400Y-34558300D01*
X66312400Y-34558300D02*
X66312400Y-16658300D01*
G04 #@! TO.C,Q2*
X107248478Y-60766478D02*
G75*
G03X105410000Y-56328000I-1838478J1838478D01*
G01*
X103571522Y-60766478D02*
G75*
G02X105410000Y-56328000I1838478J1838478D01*
G01*
X103610000Y-60778000D02*
X107210000Y-60778000D01*
G04 #@! TO.C,Q1*
X84350000Y-29138000D02*
X80750000Y-29138000D01*
X84388478Y-29149522D02*
G75*
G02X82550000Y-33588000I-1838478J-1838478D01*
G01*
X80711522Y-29149522D02*
G75*
G03X82550000Y-33588000I1838478J-1838478D01*
G01*
G04 #@! TO.C,R13*
X85182000Y-17831622D02*
X85182000Y-18348778D01*
X83762000Y-17831622D02*
X83762000Y-18348778D01*
G04 #@! TO.C,R15*
X81637600Y-17831622D02*
X81637600Y-18348778D01*
X83057600Y-17831622D02*
X83057600Y-18348778D01*
G04 #@! TO.C,R14*
X87306300Y-17831622D02*
X87306300Y-18348778D01*
X85886300Y-17831622D02*
X85886300Y-18348778D01*
G04 #@! TO.C,C4*
X25348000Y-26998422D02*
X25348000Y-27515578D01*
X23928000Y-26998422D02*
X23928000Y-27515578D01*
G04 #@! TO.C,D1*
X90556000Y-29909200D02*
X90556000Y-27224200D01*
X88636000Y-29909200D02*
X90556000Y-29909200D01*
X88636000Y-27224200D02*
X88636000Y-29909200D01*
G04 #@! TO.C,D2*
X83506200Y-20557000D02*
X83506200Y-23242000D01*
X83506200Y-23242000D02*
X85426200Y-23242000D01*
X85426200Y-23242000D02*
X85426200Y-20557000D01*
G04 #@! TO.C,U19*
X15562000Y-35301900D02*
X15562000Y-45581900D01*
X33582000Y-35301900D02*
X15562000Y-35301900D01*
X33582000Y-45581900D02*
X33582000Y-35301900D01*
X15562000Y-45581900D02*
X33582000Y-45581900D01*
X15622000Y-37791900D02*
X15622000Y-39441900D01*
X33522000Y-37791900D02*
X15622000Y-37791900D01*
X33522000Y-43091900D02*
X33522000Y-37791900D01*
X15622000Y-43091900D02*
X33522000Y-43091900D01*
X15622000Y-41441900D02*
X15622000Y-43091900D01*
X15622000Y-39441900D02*
G75*
G02X15622000Y-41441900I0J-1000000D01*
G01*
G04 #@! TO.C,U18*
X96035800Y-49286900D02*
G75*
G02X96035800Y-51286900I0J-1000000D01*
G01*
X96035800Y-51286900D02*
X96035800Y-52936900D01*
X96035800Y-52936900D02*
X113935800Y-52936900D01*
X113935800Y-52936900D02*
X113935800Y-47636900D01*
X113935800Y-47636900D02*
X96035800Y-47636900D01*
X96035800Y-47636900D02*
X96035800Y-49286900D01*
X95975800Y-55426900D02*
X113995800Y-55426900D01*
X113995800Y-55426900D02*
X113995800Y-45146900D01*
X113995800Y-45146900D02*
X95975800Y-45146900D01*
X95975800Y-45146900D02*
X95975800Y-55426900D01*
G04 #@! TO.C,U12*
X95889500Y-34153800D02*
X95889500Y-44433800D01*
X113909500Y-34153800D02*
X95889500Y-34153800D01*
X113909500Y-44433800D02*
X113909500Y-34153800D01*
X95889500Y-44433800D02*
X113909500Y-44433800D01*
X95949500Y-36643800D02*
X95949500Y-38293800D01*
X113849500Y-36643800D02*
X95949500Y-36643800D01*
X113849500Y-41943800D02*
X113849500Y-36643800D01*
X95949500Y-41943800D02*
X113849500Y-41943800D01*
X95949500Y-40293800D02*
X95949500Y-41943800D01*
X95949500Y-38293800D02*
G75*
G02X95949500Y-40293800I0J-1000000D01*
G01*
G04 #@! TO.C,U1*
X28649400Y-109074000D02*
G75*
G02X30649400Y-109074000I1000000J0D01*
G01*
X30649400Y-109074000D02*
X36109400Y-109074000D01*
X36109400Y-109074000D02*
X36109400Y-58154000D01*
X36109400Y-58154000D02*
X23189400Y-58154000D01*
X23189400Y-58154000D02*
X23189400Y-109074000D01*
X23189400Y-109074000D02*
X28649400Y-109074000D01*
G04 #@! TO.C,R3*
X91116100Y-32239978D02*
X91116100Y-31722822D01*
X92536100Y-32239978D02*
X92536100Y-31722822D01*
G04 #@! TO.C,R2*
X90288200Y-32239978D02*
X90288200Y-31722822D01*
X88868200Y-32239978D02*
X88868200Y-31722822D01*
G04 #@! TO.C,R1*
X91105900Y-28522778D02*
X91105900Y-28005622D01*
X92525900Y-28522778D02*
X92525900Y-28005622D01*
G04 #@! TO.C,R10*
X97759822Y-41235700D02*
X98276978Y-41235700D01*
X97759822Y-39815700D02*
X98276978Y-39815700D01*
G04 #@! TO.C,R11*
X97831422Y-37580500D02*
X98348578Y-37580500D01*
X97831422Y-39000500D02*
X98348578Y-39000500D01*
G04 #@! TO.C,RN1*
X66283700Y-31544700D02*
X66283700Y-28744700D01*
X66283700Y-28744700D02*
X43083700Y-28744700D01*
X43083700Y-28744700D02*
X43083700Y-31544700D01*
X43083700Y-31544700D02*
X66283700Y-31544700D01*
X63573700Y-31544700D02*
X63573700Y-28744700D01*
G04 #@! TO.C,U3*
D12*
X72720275Y-24781240D02*
X72720275Y-25590764D01*
X72767894Y-25686002D01*
X72815513Y-25733621D01*
X72910751Y-25781240D01*
X73101227Y-25781240D01*
X73196465Y-25733621D01*
X73244084Y-25686002D01*
X73291703Y-25590764D01*
X73291703Y-24781240D01*
X73672656Y-24781240D02*
X74291703Y-24781240D01*
X73958370Y-25162193D01*
X74101227Y-25162193D01*
X74196465Y-25209812D01*
X74244084Y-25257431D01*
X74291703Y-25352669D01*
X74291703Y-25590764D01*
X74244084Y-25686002D01*
X74196465Y-25733621D01*
X74101227Y-25781240D01*
X73815513Y-25781240D01*
X73720275Y-25733621D01*
X73672656Y-25686002D01*
G04 #@! TO.C,J4*
X16778666Y-58465380D02*
X16778666Y-59179666D01*
X16731047Y-59322523D01*
X16635809Y-59417761D01*
X16492952Y-59465380D01*
X16397714Y-59465380D01*
X17683428Y-58798714D02*
X17683428Y-59465380D01*
X17445333Y-58417761D02*
X17207238Y-59132047D01*
X17826285Y-59132047D01*
G04 #@! TO.C,J3*
X16778666Y-84111680D02*
X16778666Y-84825966D01*
X16731047Y-84968823D01*
X16635809Y-85064061D01*
X16492952Y-85111680D01*
X16397714Y-85111680D01*
X17159619Y-84111680D02*
X17778666Y-84111680D01*
X17445333Y-84492633D01*
X17588190Y-84492633D01*
X17683428Y-84540252D01*
X17731047Y-84587871D01*
X17778666Y-84683109D01*
X17778666Y-84921204D01*
X17731047Y-85016442D01*
X17683428Y-85064061D01*
X17588190Y-85111680D01*
X17302476Y-85111680D01*
X17207238Y-85064061D01*
X17159619Y-85016442D01*
G04 #@! TO.C,R12*
X41092360Y-24010897D02*
X40616170Y-24344230D01*
X41092360Y-24582325D02*
X40092360Y-24582325D01*
X40092360Y-24201373D01*
X40139980Y-24106135D01*
X40187599Y-24058516D01*
X40282837Y-24010897D01*
X40425694Y-24010897D01*
X40520932Y-24058516D01*
X40568551Y-24106135D01*
X40616170Y-24201373D01*
X40616170Y-24582325D01*
X41092360Y-23058516D02*
X41092360Y-23629944D01*
X41092360Y-23344230D02*
X40092360Y-23344230D01*
X40235218Y-23439468D01*
X40330456Y-23534706D01*
X40378075Y-23629944D01*
X40187599Y-22677563D02*
X40139980Y-22629944D01*
X40092360Y-22534706D01*
X40092360Y-22296611D01*
X40139980Y-22201373D01*
X40187599Y-22153754D01*
X40282837Y-22106135D01*
X40378075Y-22106135D01*
X40520932Y-22153754D01*
X41092360Y-22725182D01*
X41092360Y-22106135D01*
G04 #@! TO.C,R9*
X44140360Y-24042706D02*
X43664170Y-24376040D01*
X44140360Y-24614135D02*
X43140360Y-24614135D01*
X43140360Y-24233182D01*
X43187980Y-24137944D01*
X43235599Y-24090325D01*
X43330837Y-24042706D01*
X43473694Y-24042706D01*
X43568932Y-24090325D01*
X43616551Y-24137944D01*
X43664170Y-24233182D01*
X43664170Y-24614135D01*
X44140360Y-23566516D02*
X44140360Y-23376040D01*
X44092741Y-23280801D01*
X44045122Y-23233182D01*
X43902265Y-23137944D01*
X43711789Y-23090325D01*
X43330837Y-23090325D01*
X43235599Y-23137944D01*
X43187980Y-23185563D01*
X43140360Y-23280801D01*
X43140360Y-23471278D01*
X43187980Y-23566516D01*
X43235599Y-23614135D01*
X43330837Y-23661754D01*
X43568932Y-23661754D01*
X43664170Y-23614135D01*
X43711789Y-23566516D01*
X43759408Y-23471278D01*
X43759408Y-23280801D01*
X43711789Y-23185563D01*
X43664170Y-23137944D01*
X43568932Y-23090325D01*
G04 #@! TO.C,R8*
X42616360Y-24042706D02*
X42140170Y-24376040D01*
X42616360Y-24614135D02*
X41616360Y-24614135D01*
X41616360Y-24233182D01*
X41663980Y-24137944D01*
X41711599Y-24090325D01*
X41806837Y-24042706D01*
X41949694Y-24042706D01*
X42044932Y-24090325D01*
X42092551Y-24137944D01*
X42140170Y-24233182D01*
X42140170Y-24614135D01*
X42044932Y-23471278D02*
X41997313Y-23566516D01*
X41949694Y-23614135D01*
X41854456Y-23661754D01*
X41806837Y-23661754D01*
X41711599Y-23614135D01*
X41663980Y-23566516D01*
X41616360Y-23471278D01*
X41616360Y-23280801D01*
X41663980Y-23185563D01*
X41711599Y-23137944D01*
X41806837Y-23090325D01*
X41854456Y-23090325D01*
X41949694Y-23137944D01*
X41997313Y-23185563D01*
X42044932Y-23280801D01*
X42044932Y-23471278D01*
X42092551Y-23566516D01*
X42140170Y-23614135D01*
X42235408Y-23661754D01*
X42425884Y-23661754D01*
X42521122Y-23614135D01*
X42568741Y-23566516D01*
X42616360Y-23471278D01*
X42616360Y-23280801D01*
X42568741Y-23185563D01*
X42521122Y-23137944D01*
X42425884Y-23090325D01*
X42235408Y-23090325D01*
X42140170Y-23137944D01*
X42092551Y-23185563D01*
X42044932Y-23280801D01*
G04 #@! TO.C,R7*
X39568420Y-27598646D02*
X39092230Y-27931980D01*
X39568420Y-28170075D02*
X38568420Y-28170075D01*
X38568420Y-27789122D01*
X38616040Y-27693884D01*
X38663659Y-27646265D01*
X38758897Y-27598646D01*
X38901754Y-27598646D01*
X38996992Y-27646265D01*
X39044611Y-27693884D01*
X39092230Y-27789122D01*
X39092230Y-28170075D01*
X38568420Y-27265313D02*
X38568420Y-26598646D01*
X39568420Y-27027218D01*
G04 #@! TO.C,R16*
X39568340Y-24010897D02*
X39092150Y-24344230D01*
X39568340Y-24582325D02*
X38568340Y-24582325D01*
X38568340Y-24201373D01*
X38615960Y-24106135D01*
X38663579Y-24058516D01*
X38758817Y-24010897D01*
X38901674Y-24010897D01*
X38996912Y-24058516D01*
X39044531Y-24106135D01*
X39092150Y-24201373D01*
X39092150Y-24582325D01*
X39568340Y-23058516D02*
X39568340Y-23629944D01*
X39568340Y-23344230D02*
X38568340Y-23344230D01*
X38711198Y-23439468D01*
X38806436Y-23534706D01*
X38854055Y-23629944D01*
X38568340Y-22201373D02*
X38568340Y-22391849D01*
X38615960Y-22487087D01*
X38663579Y-22534706D01*
X38806436Y-22629944D01*
X38996912Y-22677563D01*
X39377864Y-22677563D01*
X39473102Y-22629944D01*
X39520721Y-22582325D01*
X39568340Y-22487087D01*
X39568340Y-22296611D01*
X39520721Y-22201373D01*
X39473102Y-22153754D01*
X39377864Y-22106135D01*
X39139769Y-22106135D01*
X39044531Y-22153754D01*
X38996912Y-22201373D01*
X38949293Y-22296611D01*
X38949293Y-22487087D01*
X38996912Y-22582325D01*
X39044531Y-22629944D01*
X39139769Y-22677563D01*
G04 #@! TO.C,R5*
X41092360Y-27598646D02*
X40616170Y-27931980D01*
X41092360Y-28170075D02*
X40092360Y-28170075D01*
X40092360Y-27789122D01*
X40139980Y-27693884D01*
X40187599Y-27646265D01*
X40282837Y-27598646D01*
X40425694Y-27598646D01*
X40520932Y-27646265D01*
X40568551Y-27693884D01*
X40616170Y-27789122D01*
X40616170Y-28170075D01*
X40092360Y-26693884D02*
X40092360Y-27170075D01*
X40568551Y-27217694D01*
X40520932Y-27170075D01*
X40473313Y-27074837D01*
X40473313Y-26836741D01*
X40520932Y-26741503D01*
X40568551Y-26693884D01*
X40663789Y-26646265D01*
X40901884Y-26646265D01*
X40997122Y-26693884D01*
X41044741Y-26741503D01*
X41092360Y-26836741D01*
X41092360Y-27074837D01*
X41044741Y-27170075D01*
X40997122Y-27217694D01*
G04 #@! TO.C,R4*
X42616360Y-27598646D02*
X42140170Y-27931980D01*
X42616360Y-28170075D02*
X41616360Y-28170075D01*
X41616360Y-27789122D01*
X41663980Y-27693884D01*
X41711599Y-27646265D01*
X41806837Y-27598646D01*
X41949694Y-27598646D01*
X42044932Y-27646265D01*
X42092551Y-27693884D01*
X42140170Y-27789122D01*
X42140170Y-28170075D01*
X41949694Y-26741503D02*
X42616360Y-26741503D01*
X41568741Y-26979599D02*
X42283027Y-27217694D01*
X42283027Y-26598646D01*
G04 #@! TO.C,R6*
X44140360Y-27598646D02*
X43664170Y-27931980D01*
X44140360Y-28170075D02*
X43140360Y-28170075D01*
X43140360Y-27789122D01*
X43187980Y-27693884D01*
X43235599Y-27646265D01*
X43330837Y-27598646D01*
X43473694Y-27598646D01*
X43568932Y-27646265D01*
X43616551Y-27693884D01*
X43664170Y-27789122D01*
X43664170Y-28170075D01*
X43140360Y-26741503D02*
X43140360Y-26931980D01*
X43187980Y-27027218D01*
X43235599Y-27074837D01*
X43378456Y-27170075D01*
X43568932Y-27217694D01*
X43949884Y-27217694D01*
X44045122Y-27170075D01*
X44092741Y-27122456D01*
X44140360Y-27027218D01*
X44140360Y-26836741D01*
X44092741Y-26741503D01*
X44045122Y-26693884D01*
X43949884Y-26646265D01*
X43711789Y-26646265D01*
X43616551Y-26693884D01*
X43568932Y-26741503D01*
X43521313Y-26836741D01*
X43521313Y-27027218D01*
X43568932Y-27122456D01*
X43616551Y-27170075D01*
X43711789Y-27217694D01*
G04 #@! TO.C,U7*
X61269995Y-103184380D02*
X61269995Y-103993904D01*
X61317614Y-104089142D01*
X61365233Y-104136761D01*
X61460471Y-104184380D01*
X61650947Y-104184380D01*
X61746185Y-104136761D01*
X61793804Y-104089142D01*
X61841423Y-103993904D01*
X61841423Y-103184380D01*
X62222376Y-103184380D02*
X62889042Y-103184380D01*
X62460471Y-104184380D01*
G04 #@! TO.C,U6*
X79712895Y-103169380D02*
X79712895Y-103978904D01*
X79760514Y-104074142D01*
X79808133Y-104121761D01*
X79903371Y-104169380D01*
X80093847Y-104169380D01*
X80189085Y-104121761D01*
X80236704Y-104074142D01*
X80284323Y-103978904D01*
X80284323Y-103169380D01*
X81189085Y-103169380D02*
X80998609Y-103169380D01*
X80903371Y-103217000D01*
X80855752Y-103264619D01*
X80760514Y-103407476D01*
X80712895Y-103597952D01*
X80712895Y-103978904D01*
X80760514Y-104074142D01*
X80808133Y-104121761D01*
X80903371Y-104169380D01*
X81093847Y-104169380D01*
X81189085Y-104121761D01*
X81236704Y-104074142D01*
X81284323Y-103978904D01*
X81284323Y-103740809D01*
X81236704Y-103645571D01*
X81189085Y-103597952D01*
X81093847Y-103550333D01*
X80903371Y-103550333D01*
X80808133Y-103597952D01*
X80760514Y-103645571D01*
X80712895Y-103740809D01*
G04 #@! TO.C,SW2*
X108224745Y-29512980D02*
X108367602Y-29560599D01*
X108605698Y-29560599D01*
X108700936Y-29512980D01*
X108748555Y-29465361D01*
X108796174Y-29370123D01*
X108796174Y-29274885D01*
X108748555Y-29179647D01*
X108700936Y-29132028D01*
X108605698Y-29084409D01*
X108415221Y-29036790D01*
X108319983Y-28989171D01*
X108272364Y-28941552D01*
X108224745Y-28846314D01*
X108224745Y-28751076D01*
X108272364Y-28655838D01*
X108319983Y-28608219D01*
X108415221Y-28560599D01*
X108653317Y-28560599D01*
X108796174Y-28608219D01*
X109129507Y-28560599D02*
X109367602Y-29560599D01*
X109558079Y-28846314D01*
X109748555Y-29560599D01*
X109986650Y-28560599D01*
X110319983Y-28655838D02*
X110367602Y-28608219D01*
X110462840Y-28560599D01*
X110700936Y-28560599D01*
X110796174Y-28608219D01*
X110843793Y-28655838D01*
X110891412Y-28751076D01*
X110891412Y-28846314D01*
X110843793Y-28989171D01*
X110272364Y-29560599D01*
X110891412Y-29560599D01*
G04 #@! TO.C,C22*
X85717142Y-30202142D02*
X85669523Y-30249761D01*
X85526666Y-30297380D01*
X85431428Y-30297380D01*
X85288571Y-30249761D01*
X85193333Y-30154523D01*
X85145714Y-30059285D01*
X85098095Y-29868809D01*
X85098095Y-29725952D01*
X85145714Y-29535476D01*
X85193333Y-29440238D01*
X85288571Y-29345000D01*
X85431428Y-29297380D01*
X85526666Y-29297380D01*
X85669523Y-29345000D01*
X85717142Y-29392619D01*
X86098095Y-29392619D02*
X86145714Y-29345000D01*
X86240952Y-29297380D01*
X86479047Y-29297380D01*
X86574285Y-29345000D01*
X86621904Y-29392619D01*
X86669523Y-29487857D01*
X86669523Y-29583095D01*
X86621904Y-29725952D01*
X86050476Y-30297380D01*
X86669523Y-30297380D01*
X87050476Y-29392619D02*
X87098095Y-29345000D01*
X87193333Y-29297380D01*
X87431428Y-29297380D01*
X87526666Y-29345000D01*
X87574285Y-29392619D01*
X87621904Y-29487857D01*
X87621904Y-29583095D01*
X87574285Y-29725952D01*
X87002857Y-30297380D01*
X87621904Y-30297380D01*
G04 #@! TO.C,C5*
X26650242Y-73440566D02*
X26697861Y-73488185D01*
X26745480Y-73631042D01*
X26745480Y-73726280D01*
X26697861Y-73869138D01*
X26602623Y-73964376D01*
X26507385Y-74011995D01*
X26316909Y-74059614D01*
X26174052Y-74059614D01*
X25983576Y-74011995D01*
X25888338Y-73964376D01*
X25793100Y-73869138D01*
X25745480Y-73726280D01*
X25745480Y-73631042D01*
X25793100Y-73488185D01*
X25840719Y-73440566D01*
X25745480Y-72535804D02*
X25745480Y-73011995D01*
X26221671Y-73059614D01*
X26174052Y-73011995D01*
X26126433Y-72916757D01*
X26126433Y-72678661D01*
X26174052Y-72583423D01*
X26221671Y-72535804D01*
X26316909Y-72488185D01*
X26555004Y-72488185D01*
X26650242Y-72535804D01*
X26697861Y-72583423D01*
X26745480Y-72678661D01*
X26745480Y-72916757D01*
X26697861Y-73011995D01*
X26650242Y-73059614D01*
G04 #@! TO.C,C17*
X82664042Y-51670202D02*
X82616423Y-51717821D01*
X82473566Y-51765440D01*
X82378328Y-51765440D01*
X82235471Y-51717821D01*
X82140233Y-51622583D01*
X82092614Y-51527345D01*
X82044995Y-51336869D01*
X82044995Y-51194012D01*
X82092614Y-51003536D01*
X82140233Y-50908298D01*
X82235471Y-50813060D01*
X82378328Y-50765440D01*
X82473566Y-50765440D01*
X82616423Y-50813060D01*
X82664042Y-50860679D01*
X83616423Y-51765440D02*
X83044995Y-51765440D01*
X83330709Y-51765440D02*
X83330709Y-50765440D01*
X83235471Y-50908298D01*
X83140233Y-51003536D01*
X83044995Y-51051155D01*
X83949757Y-50765440D02*
X84616423Y-50765440D01*
X84187852Y-51765440D01*
G04 #@! TO.C,C16*
X111071142Y-50431742D02*
X111023523Y-50479361D01*
X110880666Y-50526980D01*
X110785428Y-50526980D01*
X110642571Y-50479361D01*
X110547333Y-50384123D01*
X110499714Y-50288885D01*
X110452095Y-50098409D01*
X110452095Y-49955552D01*
X110499714Y-49765076D01*
X110547333Y-49669838D01*
X110642571Y-49574600D01*
X110785428Y-49526980D01*
X110880666Y-49526980D01*
X111023523Y-49574600D01*
X111071142Y-49622219D01*
X112023523Y-50526980D02*
X111452095Y-50526980D01*
X111737809Y-50526980D02*
X111737809Y-49526980D01*
X111642571Y-49669838D01*
X111547333Y-49765076D01*
X111452095Y-49812695D01*
X112880666Y-49526980D02*
X112690190Y-49526980D01*
X112594952Y-49574600D01*
X112547333Y-49622219D01*
X112452095Y-49765076D01*
X112404476Y-49955552D01*
X112404476Y-50336504D01*
X112452095Y-50431742D01*
X112499714Y-50479361D01*
X112594952Y-50526980D01*
X112785428Y-50526980D01*
X112880666Y-50479361D01*
X112928285Y-50431742D01*
X112975904Y-50336504D01*
X112975904Y-50098409D01*
X112928285Y-50003171D01*
X112880666Y-49955552D01*
X112785428Y-49907933D01*
X112594952Y-49907933D01*
X112499714Y-49955552D01*
X112452095Y-50003171D01*
X112404476Y-50098409D01*
G04 #@! TO.C,C15*
X94316822Y-102566197D02*
X94364441Y-102613816D01*
X94412060Y-102756673D01*
X94412060Y-102851911D01*
X94364441Y-102994768D01*
X94269203Y-103090006D01*
X94173965Y-103137625D01*
X93983489Y-103185244D01*
X93840632Y-103185244D01*
X93650156Y-103137625D01*
X93554918Y-103090006D01*
X93459680Y-102994768D01*
X93412060Y-102851911D01*
X93412060Y-102756673D01*
X93459680Y-102613816D01*
X93507299Y-102566197D01*
X94412060Y-101613816D02*
X94412060Y-102185244D01*
X94412060Y-101899530D02*
X93412060Y-101899530D01*
X93554918Y-101994768D01*
X93650156Y-102090006D01*
X93697775Y-102185244D01*
X93412060Y-100709054D02*
X93412060Y-101185244D01*
X93888251Y-101232863D01*
X93840632Y-101185244D01*
X93793013Y-101090006D01*
X93793013Y-100851911D01*
X93840632Y-100756673D01*
X93888251Y-100709054D01*
X93983489Y-100661435D01*
X94221584Y-100661435D01*
X94316822Y-100709054D01*
X94364441Y-100756673D01*
X94412060Y-100851911D01*
X94412060Y-101090006D01*
X94364441Y-101185244D01*
X94316822Y-101232863D01*
G04 #@! TO.C,C13*
X67921142Y-38107857D02*
X67968761Y-38155476D01*
X68016380Y-38298333D01*
X68016380Y-38393571D01*
X67968761Y-38536428D01*
X67873523Y-38631666D01*
X67778285Y-38679285D01*
X67587809Y-38726904D01*
X67444952Y-38726904D01*
X67254476Y-38679285D01*
X67159238Y-38631666D01*
X67064000Y-38536428D01*
X67016380Y-38393571D01*
X67016380Y-38298333D01*
X67064000Y-38155476D01*
X67111619Y-38107857D01*
X68016380Y-37155476D02*
X68016380Y-37726904D01*
X68016380Y-37441190D02*
X67016380Y-37441190D01*
X67159238Y-37536428D01*
X67254476Y-37631666D01*
X67302095Y-37726904D01*
X67016380Y-36822142D02*
X67016380Y-36203095D01*
X67397333Y-36536428D01*
X67397333Y-36393571D01*
X67444952Y-36298333D01*
X67492571Y-36250714D01*
X67587809Y-36203095D01*
X67825904Y-36203095D01*
X67921142Y-36250714D01*
X67968761Y-36298333D01*
X68016380Y-36393571D01*
X68016380Y-36679285D01*
X67968761Y-36774523D01*
X67921142Y-36822142D01*
G04 #@! TO.C,C12*
X85772742Y-60316342D02*
X85725123Y-60363961D01*
X85582266Y-60411580D01*
X85487028Y-60411580D01*
X85344171Y-60363961D01*
X85248933Y-60268723D01*
X85201314Y-60173485D01*
X85153695Y-59983009D01*
X85153695Y-59840152D01*
X85201314Y-59649676D01*
X85248933Y-59554438D01*
X85344171Y-59459200D01*
X85487028Y-59411580D01*
X85582266Y-59411580D01*
X85725123Y-59459200D01*
X85772742Y-59506819D01*
X86725123Y-60411580D02*
X86153695Y-60411580D01*
X86439409Y-60411580D02*
X86439409Y-59411580D01*
X86344171Y-59554438D01*
X86248933Y-59649676D01*
X86153695Y-59697295D01*
X87106076Y-59506819D02*
X87153695Y-59459200D01*
X87248933Y-59411580D01*
X87487028Y-59411580D01*
X87582266Y-59459200D01*
X87629885Y-59506819D01*
X87677504Y-59602057D01*
X87677504Y-59697295D01*
X87629885Y-59840152D01*
X87058457Y-60411580D01*
X87677504Y-60411580D01*
G04 #@! TO.C,C19*
X88970642Y-38457142D02*
X88923023Y-38504761D01*
X88780166Y-38552380D01*
X88684928Y-38552380D01*
X88542071Y-38504761D01*
X88446833Y-38409523D01*
X88399214Y-38314285D01*
X88351595Y-38123809D01*
X88351595Y-37980952D01*
X88399214Y-37790476D01*
X88446833Y-37695238D01*
X88542071Y-37600000D01*
X88684928Y-37552380D01*
X88780166Y-37552380D01*
X88923023Y-37600000D01*
X88970642Y-37647619D01*
X89923023Y-38552380D02*
X89351595Y-38552380D01*
X89637309Y-38552380D02*
X89637309Y-37552380D01*
X89542071Y-37695238D01*
X89446833Y-37790476D01*
X89351595Y-37838095D01*
X90399214Y-38552380D02*
X90589690Y-38552380D01*
X90684928Y-38504761D01*
X90732547Y-38457142D01*
X90827785Y-38314285D01*
X90875404Y-38123809D01*
X90875404Y-37742857D01*
X90827785Y-37647619D01*
X90780166Y-37600000D01*
X90684928Y-37552380D01*
X90494452Y-37552380D01*
X90399214Y-37600000D01*
X90351595Y-37647619D01*
X90303976Y-37742857D01*
X90303976Y-37980952D01*
X90351595Y-38076190D01*
X90399214Y-38123809D01*
X90494452Y-38171428D01*
X90684928Y-38171428D01*
X90780166Y-38123809D01*
X90827785Y-38076190D01*
X90875404Y-37980952D01*
G04 #@! TO.C,C11*
X97576442Y-33633722D02*
X97528823Y-33681341D01*
X97385966Y-33728960D01*
X97290728Y-33728960D01*
X97147871Y-33681341D01*
X97052633Y-33586103D01*
X97005014Y-33490865D01*
X96957395Y-33300389D01*
X96957395Y-33157532D01*
X97005014Y-32967056D01*
X97052633Y-32871818D01*
X97147871Y-32776580D01*
X97290728Y-32728960D01*
X97385966Y-32728960D01*
X97528823Y-32776580D01*
X97576442Y-32824199D01*
X98528823Y-33728960D02*
X97957395Y-33728960D01*
X98243109Y-33728960D02*
X98243109Y-32728960D01*
X98147871Y-32871818D01*
X98052633Y-32967056D01*
X97957395Y-33014675D01*
X99481204Y-33728960D02*
X98909776Y-33728960D01*
X99195490Y-33728960D02*
X99195490Y-32728960D01*
X99100252Y-32871818D01*
X99005014Y-32967056D01*
X98909776Y-33014675D01*
G04 #@! TO.C,C18*
X37163242Y-44117757D02*
X37210861Y-44165376D01*
X37258480Y-44308233D01*
X37258480Y-44403471D01*
X37210861Y-44546328D01*
X37115623Y-44641566D01*
X37020385Y-44689185D01*
X36829909Y-44736804D01*
X36687052Y-44736804D01*
X36496576Y-44689185D01*
X36401338Y-44641566D01*
X36306100Y-44546328D01*
X36258480Y-44403471D01*
X36258480Y-44308233D01*
X36306100Y-44165376D01*
X36353719Y-44117757D01*
X37258480Y-43165376D02*
X37258480Y-43736804D01*
X37258480Y-43451090D02*
X36258480Y-43451090D01*
X36401338Y-43546328D01*
X36496576Y-43641566D01*
X36544195Y-43736804D01*
X36687052Y-42593947D02*
X36639433Y-42689185D01*
X36591814Y-42736804D01*
X36496576Y-42784423D01*
X36448957Y-42784423D01*
X36353719Y-42736804D01*
X36306100Y-42689185D01*
X36258480Y-42593947D01*
X36258480Y-42403471D01*
X36306100Y-42308233D01*
X36353719Y-42260614D01*
X36448957Y-42212995D01*
X36496576Y-42212995D01*
X36591814Y-42260614D01*
X36639433Y-42308233D01*
X36687052Y-42403471D01*
X36687052Y-42593947D01*
X36734671Y-42689185D01*
X36782290Y-42736804D01*
X36877528Y-42784423D01*
X37068004Y-42784423D01*
X37163242Y-42736804D01*
X37210861Y-42689185D01*
X37258480Y-42593947D01*
X37258480Y-42403471D01*
X37210861Y-42308233D01*
X37163242Y-42260614D01*
X37068004Y-42212995D01*
X36877528Y-42212995D01*
X36782290Y-42260614D01*
X36734671Y-42308233D01*
X36687052Y-42403471D01*
G04 #@! TO.C,C9*
X74163893Y-106752662D02*
X74116274Y-106800281D01*
X73973417Y-106847900D01*
X73878179Y-106847900D01*
X73735321Y-106800281D01*
X73640083Y-106705043D01*
X73592464Y-106609805D01*
X73544845Y-106419329D01*
X73544845Y-106276472D01*
X73592464Y-106085996D01*
X73640083Y-105990758D01*
X73735321Y-105895520D01*
X73878179Y-105847900D01*
X73973417Y-105847900D01*
X74116274Y-105895520D01*
X74163893Y-105943139D01*
X74640083Y-106847900D02*
X74830560Y-106847900D01*
X74925798Y-106800281D01*
X74973417Y-106752662D01*
X75068655Y-106609805D01*
X75116274Y-106419329D01*
X75116274Y-106038377D01*
X75068655Y-105943139D01*
X75021036Y-105895520D01*
X74925798Y-105847900D01*
X74735321Y-105847900D01*
X74640083Y-105895520D01*
X74592464Y-105943139D01*
X74544845Y-106038377D01*
X74544845Y-106276472D01*
X74592464Y-106371710D01*
X74640083Y-106419329D01*
X74735321Y-106466948D01*
X74925798Y-106466948D01*
X75021036Y-106419329D01*
X75068655Y-106371710D01*
X75116274Y-106276472D01*
G04 #@! TO.C,C8*
X57704733Y-100233142D02*
X57657114Y-100280761D01*
X57514257Y-100328380D01*
X57419019Y-100328380D01*
X57276161Y-100280761D01*
X57180923Y-100185523D01*
X57133304Y-100090285D01*
X57085685Y-99899809D01*
X57085685Y-99756952D01*
X57133304Y-99566476D01*
X57180923Y-99471238D01*
X57276161Y-99376000D01*
X57419019Y-99328380D01*
X57514257Y-99328380D01*
X57657114Y-99376000D01*
X57704733Y-99423619D01*
X58276161Y-99756952D02*
X58180923Y-99709333D01*
X58133304Y-99661714D01*
X58085685Y-99566476D01*
X58085685Y-99518857D01*
X58133304Y-99423619D01*
X58180923Y-99376000D01*
X58276161Y-99328380D01*
X58466638Y-99328380D01*
X58561876Y-99376000D01*
X58609495Y-99423619D01*
X58657114Y-99518857D01*
X58657114Y-99566476D01*
X58609495Y-99661714D01*
X58561876Y-99709333D01*
X58466638Y-99756952D01*
X58276161Y-99756952D01*
X58180923Y-99804571D01*
X58133304Y-99852190D01*
X58085685Y-99947428D01*
X58085685Y-100137904D01*
X58133304Y-100233142D01*
X58180923Y-100280761D01*
X58276161Y-100328380D01*
X58466638Y-100328380D01*
X58561876Y-100280761D01*
X58609495Y-100233142D01*
X58657114Y-100137904D01*
X58657114Y-99947428D01*
X58609495Y-99852190D01*
X58561876Y-99804571D01*
X58466638Y-99756952D01*
G04 #@! TO.C,C7*
X77573142Y-100750666D02*
X77620761Y-100798285D01*
X77668380Y-100941142D01*
X77668380Y-101036380D01*
X77620761Y-101179238D01*
X77525523Y-101274476D01*
X77430285Y-101322095D01*
X77239809Y-101369714D01*
X77096952Y-101369714D01*
X76906476Y-101322095D01*
X76811238Y-101274476D01*
X76716000Y-101179238D01*
X76668380Y-101036380D01*
X76668380Y-100941142D01*
X76716000Y-100798285D01*
X76763619Y-100750666D01*
X76668380Y-100417333D02*
X76668380Y-99750666D01*
X77668380Y-100179238D01*
G04 #@! TO.C,C6*
X71969333Y-115165142D02*
X71921714Y-115212761D01*
X71778857Y-115260380D01*
X71683619Y-115260380D01*
X71540761Y-115212761D01*
X71445523Y-115117523D01*
X71397904Y-115022285D01*
X71350285Y-114831809D01*
X71350285Y-114688952D01*
X71397904Y-114498476D01*
X71445523Y-114403238D01*
X71540761Y-114308000D01*
X71683619Y-114260380D01*
X71778857Y-114260380D01*
X71921714Y-114308000D01*
X71969333Y-114355619D01*
X72826476Y-114260380D02*
X72636000Y-114260380D01*
X72540761Y-114308000D01*
X72493142Y-114355619D01*
X72397904Y-114498476D01*
X72350285Y-114688952D01*
X72350285Y-115069904D01*
X72397904Y-115165142D01*
X72445523Y-115212761D01*
X72540761Y-115260380D01*
X72731238Y-115260380D01*
X72826476Y-115212761D01*
X72874095Y-115165142D01*
X72921714Y-115069904D01*
X72921714Y-114831809D01*
X72874095Y-114736571D01*
X72826476Y-114688952D01*
X72731238Y-114641333D01*
X72540761Y-114641333D01*
X72445523Y-114688952D01*
X72397904Y-114736571D01*
X72350285Y-114831809D01*
G04 #@! TO.C,C20*
X82669182Y-49127722D02*
X82621563Y-49175341D01*
X82478706Y-49222960D01*
X82383468Y-49222960D01*
X82240611Y-49175341D01*
X82145373Y-49080103D01*
X82097754Y-48984865D01*
X82050135Y-48794389D01*
X82050135Y-48651532D01*
X82097754Y-48461056D01*
X82145373Y-48365818D01*
X82240611Y-48270580D01*
X82383468Y-48222960D01*
X82478706Y-48222960D01*
X82621563Y-48270580D01*
X82669182Y-48318199D01*
X83050135Y-48318199D02*
X83097754Y-48270580D01*
X83192992Y-48222960D01*
X83431087Y-48222960D01*
X83526325Y-48270580D01*
X83573944Y-48318199D01*
X83621563Y-48413437D01*
X83621563Y-48508675D01*
X83573944Y-48651532D01*
X83002516Y-49222960D01*
X83621563Y-49222960D01*
X84240611Y-48222960D02*
X84335849Y-48222960D01*
X84431087Y-48270580D01*
X84478706Y-48318199D01*
X84526325Y-48413437D01*
X84573944Y-48603913D01*
X84573944Y-48842008D01*
X84526325Y-49032484D01*
X84478706Y-49127722D01*
X84431087Y-49175341D01*
X84335849Y-49222960D01*
X84240611Y-49222960D01*
X84145373Y-49175341D01*
X84097754Y-49127722D01*
X84050135Y-49032484D01*
X84002516Y-48842008D01*
X84002516Y-48603913D01*
X84050135Y-48413437D01*
X84097754Y-48318199D01*
X84145373Y-48270580D01*
X84240611Y-48222960D01*
G04 #@! TO.C,C10*
X63601402Y-60194422D02*
X63553783Y-60242041D01*
X63410926Y-60289660D01*
X63315688Y-60289660D01*
X63172831Y-60242041D01*
X63077593Y-60146803D01*
X63029974Y-60051565D01*
X62982355Y-59861089D01*
X62982355Y-59718232D01*
X63029974Y-59527756D01*
X63077593Y-59432518D01*
X63172831Y-59337280D01*
X63315688Y-59289660D01*
X63410926Y-59289660D01*
X63553783Y-59337280D01*
X63601402Y-59384899D01*
X64553783Y-60289660D02*
X63982355Y-60289660D01*
X64268069Y-60289660D02*
X64268069Y-59289660D01*
X64172831Y-59432518D01*
X64077593Y-59527756D01*
X63982355Y-59575375D01*
X65172831Y-59289660D02*
X65268069Y-59289660D01*
X65363307Y-59337280D01*
X65410926Y-59384899D01*
X65458545Y-59480137D01*
X65506164Y-59670613D01*
X65506164Y-59908708D01*
X65458545Y-60099184D01*
X65410926Y-60194422D01*
X65363307Y-60242041D01*
X65268069Y-60289660D01*
X65172831Y-60289660D01*
X65077593Y-60242041D01*
X65029974Y-60194422D01*
X64982355Y-60099184D01*
X64934736Y-59908708D01*
X64934736Y-59670613D01*
X64982355Y-59480137D01*
X65029974Y-59384899D01*
X65077593Y-59337280D01*
X65172831Y-59289660D01*
G04 #@! TO.C,C14*
X63741042Y-41238442D02*
X63693423Y-41286061D01*
X63550566Y-41333680D01*
X63455328Y-41333680D01*
X63312471Y-41286061D01*
X63217233Y-41190823D01*
X63169614Y-41095585D01*
X63121995Y-40905109D01*
X63121995Y-40762252D01*
X63169614Y-40571776D01*
X63217233Y-40476538D01*
X63312471Y-40381300D01*
X63455328Y-40333680D01*
X63550566Y-40333680D01*
X63693423Y-40381300D01*
X63741042Y-40428919D01*
X64693423Y-41333680D02*
X64121995Y-41333680D01*
X64407709Y-41333680D02*
X64407709Y-40333680D01*
X64312471Y-40476538D01*
X64217233Y-40571776D01*
X64121995Y-40619395D01*
X65550566Y-40667014D02*
X65550566Y-41333680D01*
X65312471Y-40286061D02*
X65074376Y-41000347D01*
X65693423Y-41000347D01*
G04 #@! TO.C,C21*
X92209402Y-115835282D02*
X92161783Y-115882901D01*
X92018926Y-115930520D01*
X91923688Y-115930520D01*
X91780831Y-115882901D01*
X91685593Y-115787663D01*
X91637974Y-115692425D01*
X91590355Y-115501949D01*
X91590355Y-115359092D01*
X91637974Y-115168616D01*
X91685593Y-115073378D01*
X91780831Y-114978140D01*
X91923688Y-114930520D01*
X92018926Y-114930520D01*
X92161783Y-114978140D01*
X92209402Y-115025759D01*
X92590355Y-115025759D02*
X92637974Y-114978140D01*
X92733212Y-114930520D01*
X92971307Y-114930520D01*
X93066545Y-114978140D01*
X93114164Y-115025759D01*
X93161783Y-115120997D01*
X93161783Y-115216235D01*
X93114164Y-115359092D01*
X92542736Y-115930520D01*
X93161783Y-115930520D01*
X94114164Y-115930520D02*
X93542736Y-115930520D01*
X93828450Y-115930520D02*
X93828450Y-114930520D01*
X93733212Y-115073378D01*
X93637974Y-115168616D01*
X93542736Y-115216235D01*
G04 #@! TO.C,U9*
X107212320Y-115328964D02*
X108021844Y-115328964D01*
X108117082Y-115281345D01*
X108164701Y-115233726D01*
X108212320Y-115138488D01*
X108212320Y-114948012D01*
X108164701Y-114852774D01*
X108117082Y-114805155D01*
X108021844Y-114757536D01*
X107212320Y-114757536D01*
X108212320Y-114233726D02*
X108212320Y-114043250D01*
X108164701Y-113948012D01*
X108117082Y-113900393D01*
X107974225Y-113805155D01*
X107783749Y-113757536D01*
X107402797Y-113757536D01*
X107307559Y-113805155D01*
X107259940Y-113852774D01*
X107212320Y-113948012D01*
X107212320Y-114138488D01*
X107259940Y-114233726D01*
X107307559Y-114281345D01*
X107402797Y-114328964D01*
X107640892Y-114328964D01*
X107736130Y-114281345D01*
X107783749Y-114233726D01*
X107831368Y-114138488D01*
X107831368Y-113948012D01*
X107783749Y-113852774D01*
X107736130Y-113805155D01*
X107640892Y-113757536D01*
G04 #@! TO.C,JP1*
X42864786Y-94806520D02*
X42864786Y-95520806D01*
X42817167Y-95663663D01*
X42721929Y-95758901D01*
X42579072Y-95806520D01*
X42483834Y-95806520D01*
X43340977Y-95806520D02*
X43340977Y-94806520D01*
X43721929Y-94806520D01*
X43817167Y-94854140D01*
X43864786Y-94901759D01*
X43912405Y-94996997D01*
X43912405Y-95139854D01*
X43864786Y-95235092D01*
X43817167Y-95282711D01*
X43721929Y-95330330D01*
X43340977Y-95330330D01*
X44864786Y-95806520D02*
X44293358Y-95806520D01*
X44579072Y-95806520D02*
X44579072Y-94806520D01*
X44483834Y-94949378D01*
X44388596Y-95044616D01*
X44293358Y-95092235D01*
G04 #@! TO.C,JP2*
X42961306Y-91938860D02*
X42961306Y-92653146D01*
X42913687Y-92796003D01*
X42818449Y-92891241D01*
X42675592Y-92938860D01*
X42580354Y-92938860D01*
X43437497Y-92938860D02*
X43437497Y-91938860D01*
X43818449Y-91938860D01*
X43913687Y-91986480D01*
X43961306Y-92034099D01*
X44008925Y-92129337D01*
X44008925Y-92272194D01*
X43961306Y-92367432D01*
X43913687Y-92415051D01*
X43818449Y-92462670D01*
X43437497Y-92462670D01*
X44389878Y-92034099D02*
X44437497Y-91986480D01*
X44532735Y-91938860D01*
X44770830Y-91938860D01*
X44866068Y-91986480D01*
X44913687Y-92034099D01*
X44961306Y-92129337D01*
X44961306Y-92224575D01*
X44913687Y-92367432D01*
X44342259Y-92938860D01*
X44961306Y-92938860D01*
G04 #@! TO.C,U5*
X78550480Y-109247924D02*
X79360004Y-109247924D01*
X79455242Y-109200305D01*
X79502861Y-109152686D01*
X79550480Y-109057448D01*
X79550480Y-108866972D01*
X79502861Y-108771734D01*
X79455242Y-108724115D01*
X79360004Y-108676496D01*
X78550480Y-108676496D01*
X78550480Y-107724115D02*
X78550480Y-108200305D01*
X79026671Y-108247924D01*
X78979052Y-108200305D01*
X78931433Y-108105067D01*
X78931433Y-107866972D01*
X78979052Y-107771734D01*
X79026671Y-107724115D01*
X79121909Y-107676496D01*
X79360004Y-107676496D01*
X79455242Y-107724115D01*
X79502861Y-107771734D01*
X79550480Y-107866972D01*
X79550480Y-108105067D01*
X79502861Y-108200305D01*
X79455242Y-108247924D01*
G04 #@! TO.C,U11*
X87570040Y-51403095D02*
X88379564Y-51403095D01*
X88474802Y-51355476D01*
X88522421Y-51307857D01*
X88570040Y-51212619D01*
X88570040Y-51022142D01*
X88522421Y-50926904D01*
X88474802Y-50879285D01*
X88379564Y-50831666D01*
X87570040Y-50831666D01*
X88570040Y-49831666D02*
X88570040Y-50403095D01*
X88570040Y-50117380D02*
X87570040Y-50117380D01*
X87712898Y-50212619D01*
X87808136Y-50307857D01*
X87855755Y-50403095D01*
X88570040Y-48879285D02*
X88570040Y-49450714D01*
X88570040Y-49165000D02*
X87570040Y-49165000D01*
X87712898Y-49260238D01*
X87808136Y-49355476D01*
X87855755Y-49450714D01*
G04 #@! TO.C,Y2*
X21711809Y-22485690D02*
X21711809Y-22961880D01*
X21378476Y-21961880D02*
X21711809Y-22485690D01*
X22045142Y-21961880D01*
X22330857Y-22057119D02*
X22378476Y-22009500D01*
X22473714Y-21961880D01*
X22711809Y-21961880D01*
X22807047Y-22009500D01*
X22854666Y-22057119D01*
X22902285Y-22152357D01*
X22902285Y-22247595D01*
X22854666Y-22390452D01*
X22283238Y-22961880D01*
X22902285Y-22961880D01*
G04 #@! TO.C,C3*
X21820142Y-28391166D02*
X21867761Y-28438785D01*
X21915380Y-28581642D01*
X21915380Y-28676880D01*
X21867761Y-28819738D01*
X21772523Y-28914976D01*
X21677285Y-28962595D01*
X21486809Y-29010214D01*
X21343952Y-29010214D01*
X21153476Y-28962595D01*
X21058238Y-28914976D01*
X20963000Y-28819738D01*
X20915380Y-28676880D01*
X20915380Y-28581642D01*
X20963000Y-28438785D01*
X21010619Y-28391166D01*
X20915380Y-28057833D02*
X20915380Y-27438785D01*
X21296333Y-27772119D01*
X21296333Y-27629261D01*
X21343952Y-27534023D01*
X21391571Y-27486404D01*
X21486809Y-27438785D01*
X21724904Y-27438785D01*
X21820142Y-27486404D01*
X21867761Y-27534023D01*
X21915380Y-27629261D01*
X21915380Y-27914976D01*
X21867761Y-28010214D01*
X21820142Y-28057833D01*
G04 #@! TO.C,C1*
X95896093Y-17121122D02*
X95848474Y-17168741D01*
X95705617Y-17216360D01*
X95610379Y-17216360D01*
X95467521Y-17168741D01*
X95372283Y-17073503D01*
X95324664Y-16978265D01*
X95277045Y-16787789D01*
X95277045Y-16644932D01*
X95324664Y-16454456D01*
X95372283Y-16359218D01*
X95467521Y-16263980D01*
X95610379Y-16216360D01*
X95705617Y-16216360D01*
X95848474Y-16263980D01*
X95896093Y-16311599D01*
X96848474Y-17216360D02*
X96277045Y-17216360D01*
X96562760Y-17216360D02*
X96562760Y-16216360D01*
X96467521Y-16359218D01*
X96372283Y-16454456D01*
X96277045Y-16502075D01*
G04 #@! TO.C,C2*
X96404173Y-25294882D02*
X96356554Y-25342501D01*
X96213697Y-25390120D01*
X96118459Y-25390120D01*
X95975601Y-25342501D01*
X95880363Y-25247263D01*
X95832744Y-25152025D01*
X95785125Y-24961549D01*
X95785125Y-24818692D01*
X95832744Y-24628216D01*
X95880363Y-24532978D01*
X95975601Y-24437740D01*
X96118459Y-24390120D01*
X96213697Y-24390120D01*
X96356554Y-24437740D01*
X96404173Y-24485359D01*
X96785125Y-24485359D02*
X96832744Y-24437740D01*
X96927982Y-24390120D01*
X97166078Y-24390120D01*
X97261316Y-24437740D01*
X97308935Y-24485359D01*
X97356554Y-24580597D01*
X97356554Y-24675835D01*
X97308935Y-24818692D01*
X96737506Y-25390120D01*
X97356554Y-25390120D01*
G04 #@! TO.C,D10*
X80820480Y-26057985D02*
X79820480Y-26057985D01*
X79820480Y-25819890D01*
X79868100Y-25677033D01*
X79963338Y-25581795D01*
X80058576Y-25534176D01*
X80249052Y-25486557D01*
X80391909Y-25486557D01*
X80582385Y-25534176D01*
X80677623Y-25581795D01*
X80772861Y-25677033D01*
X80820480Y-25819890D01*
X80820480Y-26057985D01*
X80820480Y-24534176D02*
X80820480Y-25105604D01*
X80820480Y-24819890D02*
X79820480Y-24819890D01*
X79963338Y-24915128D01*
X80058576Y-25010366D01*
X80106195Y-25105604D01*
X79820480Y-23915128D02*
X79820480Y-23819890D01*
X79868100Y-23724652D01*
X79915719Y-23677033D01*
X80010957Y-23629414D01*
X80201433Y-23581795D01*
X80439528Y-23581795D01*
X80630004Y-23629414D01*
X80725242Y-23677033D01*
X80772861Y-23724652D01*
X80820480Y-23819890D01*
X80820480Y-23915128D01*
X80772861Y-24010366D01*
X80725242Y-24057985D01*
X80630004Y-24105604D01*
X80439528Y-24153223D01*
X80201433Y-24153223D01*
X80010957Y-24105604D01*
X79915719Y-24057985D01*
X79868100Y-24010366D01*
X79820480Y-23915128D01*
G04 #@! TO.C,R21*
X109199142Y-61508880D02*
X108865809Y-61032690D01*
X108627714Y-61508880D02*
X108627714Y-60508880D01*
X109008666Y-60508880D01*
X109103904Y-60556500D01*
X109151523Y-60604119D01*
X109199142Y-60699357D01*
X109199142Y-60842214D01*
X109151523Y-60937452D01*
X109103904Y-60985071D01*
X109008666Y-61032690D01*
X108627714Y-61032690D01*
X109580095Y-60604119D02*
X109627714Y-60556500D01*
X109722952Y-60508880D01*
X109961047Y-60508880D01*
X110056285Y-60556500D01*
X110103904Y-60604119D01*
X110151523Y-60699357D01*
X110151523Y-60794595D01*
X110103904Y-60937452D01*
X109532476Y-61508880D01*
X110151523Y-61508880D01*
X111103904Y-61508880D02*
X110532476Y-61508880D01*
X110818190Y-61508880D02*
X110818190Y-60508880D01*
X110722952Y-60651738D01*
X110627714Y-60746976D01*
X110532476Y-60794595D01*
G04 #@! TO.C,R25*
X104690202Y-52791620D02*
X104356869Y-52315430D01*
X104118774Y-52791620D02*
X104118774Y-51791620D01*
X104499726Y-51791620D01*
X104594964Y-51839240D01*
X104642583Y-51886859D01*
X104690202Y-51982097D01*
X104690202Y-52124954D01*
X104642583Y-52220192D01*
X104594964Y-52267811D01*
X104499726Y-52315430D01*
X104118774Y-52315430D01*
X105071155Y-51886859D02*
X105118774Y-51839240D01*
X105214012Y-51791620D01*
X105452107Y-51791620D01*
X105547345Y-51839240D01*
X105594964Y-51886859D01*
X105642583Y-51982097D01*
X105642583Y-52077335D01*
X105594964Y-52220192D01*
X105023536Y-52791620D01*
X105642583Y-52791620D01*
X106547345Y-51791620D02*
X106071155Y-51791620D01*
X106023536Y-52267811D01*
X106071155Y-52220192D01*
X106166393Y-52172573D01*
X106404488Y-52172573D01*
X106499726Y-52220192D01*
X106547345Y-52267811D01*
X106594964Y-52363049D01*
X106594964Y-52601144D01*
X106547345Y-52696382D01*
X106499726Y-52744001D01*
X106404488Y-52791620D01*
X106166393Y-52791620D01*
X106071155Y-52744001D01*
X106023536Y-52696382D01*
G04 #@! TO.C,R24*
X80452360Y-28582897D02*
X79976170Y-28916230D01*
X80452360Y-29154325D02*
X79452360Y-29154325D01*
X79452360Y-28773373D01*
X79499980Y-28678135D01*
X79547599Y-28630516D01*
X79642837Y-28582897D01*
X79785694Y-28582897D01*
X79880932Y-28630516D01*
X79928551Y-28678135D01*
X79976170Y-28773373D01*
X79976170Y-29154325D01*
X79547599Y-28201944D02*
X79499980Y-28154325D01*
X79452360Y-28059087D01*
X79452360Y-27820992D01*
X79499980Y-27725754D01*
X79547599Y-27678135D01*
X79642837Y-27630516D01*
X79738075Y-27630516D01*
X79880932Y-27678135D01*
X80452360Y-28249563D01*
X80452360Y-27630516D01*
X79785694Y-26773373D02*
X80452360Y-26773373D01*
X79404741Y-27011468D02*
X80119027Y-27249563D01*
X80119027Y-26630516D01*
G04 #@! TO.C,R22*
X109199142Y-59476880D02*
X108865809Y-59000690D01*
X108627714Y-59476880D02*
X108627714Y-58476880D01*
X109008666Y-58476880D01*
X109103904Y-58524500D01*
X109151523Y-58572119D01*
X109199142Y-58667357D01*
X109199142Y-58810214D01*
X109151523Y-58905452D01*
X109103904Y-58953071D01*
X109008666Y-59000690D01*
X108627714Y-59000690D01*
X109580095Y-58572119D02*
X109627714Y-58524500D01*
X109722952Y-58476880D01*
X109961047Y-58476880D01*
X110056285Y-58524500D01*
X110103904Y-58572119D01*
X110151523Y-58667357D01*
X110151523Y-58762595D01*
X110103904Y-58905452D01*
X109532476Y-59476880D01*
X110151523Y-59476880D01*
X110532476Y-58572119D02*
X110580095Y-58524500D01*
X110675333Y-58476880D01*
X110913428Y-58476880D01*
X111008666Y-58524500D01*
X111056285Y-58572119D01*
X111103904Y-58667357D01*
X111103904Y-58762595D01*
X111056285Y-58905452D01*
X110484857Y-59476880D01*
X111103904Y-59476880D01*
G04 #@! TO.C,R20*
X109199142Y-63540880D02*
X108865809Y-63064690D01*
X108627714Y-63540880D02*
X108627714Y-62540880D01*
X109008666Y-62540880D01*
X109103904Y-62588500D01*
X109151523Y-62636119D01*
X109199142Y-62731357D01*
X109199142Y-62874214D01*
X109151523Y-62969452D01*
X109103904Y-63017071D01*
X109008666Y-63064690D01*
X108627714Y-63064690D01*
X109580095Y-62636119D02*
X109627714Y-62588500D01*
X109722952Y-62540880D01*
X109961047Y-62540880D01*
X110056285Y-62588500D01*
X110103904Y-62636119D01*
X110151523Y-62731357D01*
X110151523Y-62826595D01*
X110103904Y-62969452D01*
X109532476Y-63540880D01*
X110151523Y-63540880D01*
X110770571Y-62540880D02*
X110865809Y-62540880D01*
X110961047Y-62588500D01*
X111008666Y-62636119D01*
X111056285Y-62731357D01*
X111103904Y-62921833D01*
X111103904Y-63159928D01*
X111056285Y-63350404D01*
X111008666Y-63445642D01*
X110961047Y-63493261D01*
X110865809Y-63540880D01*
X110770571Y-63540880D01*
X110675333Y-63493261D01*
X110627714Y-63445642D01*
X110580095Y-63350404D01*
X110532476Y-63159928D01*
X110532476Y-62921833D01*
X110580095Y-62731357D01*
X110627714Y-62636119D01*
X110675333Y-62588500D01*
X110770571Y-62540880D01*
G04 #@! TO.C,R23*
X109277642Y-57444880D02*
X108944309Y-56968690D01*
X108706214Y-57444880D02*
X108706214Y-56444880D01*
X109087166Y-56444880D01*
X109182404Y-56492500D01*
X109230023Y-56540119D01*
X109277642Y-56635357D01*
X109277642Y-56778214D01*
X109230023Y-56873452D01*
X109182404Y-56921071D01*
X109087166Y-56968690D01*
X108706214Y-56968690D01*
X109658595Y-56540119D02*
X109706214Y-56492500D01*
X109801452Y-56444880D01*
X110039547Y-56444880D01*
X110134785Y-56492500D01*
X110182404Y-56540119D01*
X110230023Y-56635357D01*
X110230023Y-56730595D01*
X110182404Y-56873452D01*
X109610976Y-57444880D01*
X110230023Y-57444880D01*
X110563357Y-56444880D02*
X111182404Y-56444880D01*
X110849071Y-56825833D01*
X110991928Y-56825833D01*
X111087166Y-56873452D01*
X111134785Y-56921071D01*
X111182404Y-57016309D01*
X111182404Y-57254404D01*
X111134785Y-57349642D01*
X111087166Y-57397261D01*
X110991928Y-57444880D01*
X110706214Y-57444880D01*
X110610976Y-57397261D01*
X110563357Y-57349642D01*
G04 #@! TO.C,J2*
X52114906Y-108803980D02*
X52114906Y-109518266D01*
X52067287Y-109661123D01*
X51972049Y-109756361D01*
X51829192Y-109803980D01*
X51733954Y-109803980D01*
X52543478Y-108899219D02*
X52591097Y-108851600D01*
X52686335Y-108803980D01*
X52924430Y-108803980D01*
X53019668Y-108851600D01*
X53067287Y-108899219D01*
X53114906Y-108994457D01*
X53114906Y-109089695D01*
X53067287Y-109232552D01*
X52495859Y-109803980D01*
X53114906Y-109803980D01*
G04 #@! TO.C,U10*
X90153280Y-62467295D02*
X90962804Y-62467295D01*
X91058042Y-62419676D01*
X91105661Y-62372057D01*
X91153280Y-62276819D01*
X91153280Y-62086342D01*
X91105661Y-61991104D01*
X91058042Y-61943485D01*
X90962804Y-61895866D01*
X90153280Y-61895866D01*
X91153280Y-60895866D02*
X91153280Y-61467295D01*
X91153280Y-61181580D02*
X90153280Y-61181580D01*
X90296138Y-61276819D01*
X90391376Y-61372057D01*
X90438995Y-61467295D01*
X90153280Y-60276819D02*
X90153280Y-60181580D01*
X90200900Y-60086342D01*
X90248519Y-60038723D01*
X90343757Y-59991104D01*
X90534233Y-59943485D01*
X90772328Y-59943485D01*
X90962804Y-59991104D01*
X91058042Y-60038723D01*
X91105661Y-60086342D01*
X91153280Y-60181580D01*
X91153280Y-60276819D01*
X91105661Y-60372057D01*
X91058042Y-60419676D01*
X90962804Y-60467295D01*
X90772328Y-60514914D01*
X90534233Y-60514914D01*
X90343757Y-60467295D01*
X90248519Y-60419676D01*
X90200900Y-60372057D01*
X90153280Y-60276819D01*
G04 #@! TO.C,U2*
X38906180Y-46324404D02*
X39715704Y-46324404D01*
X39810942Y-46276785D01*
X39858561Y-46229166D01*
X39906180Y-46133928D01*
X39906180Y-45943452D01*
X39858561Y-45848214D01*
X39810942Y-45800595D01*
X39715704Y-45752976D01*
X38906180Y-45752976D01*
X39001419Y-45324404D02*
X38953800Y-45276785D01*
X38906180Y-45181547D01*
X38906180Y-44943452D01*
X38953800Y-44848214D01*
X39001419Y-44800595D01*
X39096657Y-44752976D01*
X39191895Y-44752976D01*
X39334752Y-44800595D01*
X39906180Y-45372023D01*
X39906180Y-44752976D01*
G04 #@! TO.C,SW1*
X91959061Y-25976293D02*
X92006680Y-25833436D01*
X92006680Y-25595340D01*
X91959061Y-25500102D01*
X91911442Y-25452483D01*
X91816204Y-25404864D01*
X91720966Y-25404864D01*
X91625728Y-25452483D01*
X91578109Y-25500102D01*
X91530490Y-25595340D01*
X91482871Y-25785817D01*
X91435252Y-25881055D01*
X91387633Y-25928674D01*
X91292395Y-25976293D01*
X91197157Y-25976293D01*
X91101919Y-25928674D01*
X91054300Y-25881055D01*
X91006680Y-25785817D01*
X91006680Y-25547721D01*
X91054300Y-25404864D01*
X91006680Y-25071531D02*
X92006680Y-24833436D01*
X91292395Y-24642960D01*
X92006680Y-24452483D01*
X91006680Y-24214388D01*
X92006680Y-23309626D02*
X92006680Y-23881055D01*
X92006680Y-23595340D02*
X91006680Y-23595340D01*
X91149538Y-23690579D01*
X91244776Y-23785817D01*
X91292395Y-23881055D01*
G04 #@! TO.C,J1*
X108794846Y-19645420D02*
X108794846Y-20359706D01*
X108747227Y-20502563D01*
X108651989Y-20597801D01*
X108509132Y-20645420D01*
X108413894Y-20645420D01*
X109794846Y-20645420D02*
X109223418Y-20645420D01*
X109509132Y-20645420D02*
X109509132Y-19645420D01*
X109413894Y-19788278D01*
X109318656Y-19883516D01*
X109223418Y-19931135D01*
G04 #@! TO.C,D4*
X82631532Y-28063435D02*
X81631532Y-28063435D01*
X81631532Y-27825340D01*
X81679152Y-27682482D01*
X81774390Y-27587244D01*
X81869628Y-27539625D01*
X82060104Y-27492006D01*
X82202961Y-27492006D01*
X82393437Y-27539625D01*
X82488675Y-27587244D01*
X82583913Y-27682482D01*
X82631532Y-27825340D01*
X82631532Y-28063435D01*
X81964866Y-26634863D02*
X82631532Y-26634863D01*
X81583913Y-26872959D02*
X82298199Y-27111054D01*
X82298199Y-26492006D01*
G04 #@! TO.C,D3*
X87218772Y-27733235D02*
X86218772Y-27733235D01*
X86218772Y-27495140D01*
X86266392Y-27352282D01*
X86361630Y-27257044D01*
X86456868Y-27209425D01*
X86647344Y-27161806D01*
X86790201Y-27161806D01*
X86980677Y-27209425D01*
X87075915Y-27257044D01*
X87171153Y-27352282D01*
X87218772Y-27495140D01*
X87218772Y-27733235D01*
X86218772Y-26828473D02*
X86218772Y-26209425D01*
X86599725Y-26542759D01*
X86599725Y-26399901D01*
X86647344Y-26304663D01*
X86694963Y-26257044D01*
X86790201Y-26209425D01*
X87028296Y-26209425D01*
X87123534Y-26257044D01*
X87171153Y-26304663D01*
X87218772Y-26399901D01*
X87218772Y-26685616D01*
X87171153Y-26780854D01*
X87123534Y-26828473D01*
G04 #@! TO.C,U14*
X34191980Y-49203415D02*
X35001504Y-49203415D01*
X35096742Y-49155796D01*
X35144361Y-49108177D01*
X35191980Y-49012939D01*
X35191980Y-48822462D01*
X35144361Y-48727224D01*
X35096742Y-48679605D01*
X35001504Y-48631986D01*
X34191980Y-48631986D01*
X35191980Y-47631986D02*
X35191980Y-48203415D01*
X35191980Y-47917700D02*
X34191980Y-47917700D01*
X34334838Y-48012939D01*
X34430076Y-48108177D01*
X34477695Y-48203415D01*
X34525314Y-46774843D02*
X35191980Y-46774843D01*
X34144361Y-47012939D02*
X34858647Y-47251034D01*
X34858647Y-46631986D01*
G04 #@! TO.C,U21*
X78136944Y-39729120D02*
X78136944Y-40538644D01*
X78184563Y-40633882D01*
X78232182Y-40681501D01*
X78327420Y-40729120D01*
X78517897Y-40729120D01*
X78613135Y-40681501D01*
X78660754Y-40633882D01*
X78708373Y-40538644D01*
X78708373Y-39729120D01*
X79136944Y-39824359D02*
X79184563Y-39776740D01*
X79279801Y-39729120D01*
X79517897Y-39729120D01*
X79613135Y-39776740D01*
X79660754Y-39824359D01*
X79708373Y-39919597D01*
X79708373Y-40014835D01*
X79660754Y-40157692D01*
X79089325Y-40729120D01*
X79708373Y-40729120D01*
X80660754Y-40729120D02*
X80089325Y-40729120D01*
X80375040Y-40729120D02*
X80375040Y-39729120D01*
X80279801Y-39871978D01*
X80184563Y-39967216D01*
X80089325Y-40014835D01*
G04 #@! TO.C,U22*
X67074780Y-62899095D02*
X67884304Y-62899095D01*
X67979542Y-62851476D01*
X68027161Y-62803857D01*
X68074780Y-62708619D01*
X68074780Y-62518142D01*
X68027161Y-62422904D01*
X67979542Y-62375285D01*
X67884304Y-62327666D01*
X67074780Y-62327666D01*
X67170019Y-61899095D02*
X67122400Y-61851476D01*
X67074780Y-61756238D01*
X67074780Y-61518142D01*
X67122400Y-61422904D01*
X67170019Y-61375285D01*
X67265257Y-61327666D01*
X67360495Y-61327666D01*
X67503352Y-61375285D01*
X68074780Y-61946714D01*
X68074780Y-61327666D01*
X67170019Y-60946714D02*
X67122400Y-60899095D01*
X67074780Y-60803857D01*
X67074780Y-60565761D01*
X67122400Y-60470523D01*
X67170019Y-60422904D01*
X67265257Y-60375285D01*
X67360495Y-60375285D01*
X67503352Y-60422904D01*
X68074780Y-60994333D01*
X68074780Y-60375285D01*
G04 #@! TO.C,U20*
X97156904Y-90643380D02*
X97156904Y-91452904D01*
X97204523Y-91548142D01*
X97252142Y-91595761D01*
X97347380Y-91643380D01*
X97537857Y-91643380D01*
X97633095Y-91595761D01*
X97680714Y-91548142D01*
X97728333Y-91452904D01*
X97728333Y-90643380D01*
X98156904Y-90738619D02*
X98204523Y-90691000D01*
X98299761Y-90643380D01*
X98537857Y-90643380D01*
X98633095Y-90691000D01*
X98680714Y-90738619D01*
X98728333Y-90833857D01*
X98728333Y-90929095D01*
X98680714Y-91071952D01*
X98109285Y-91643380D01*
X98728333Y-91643380D01*
X99347380Y-90643380D02*
X99442619Y-90643380D01*
X99537857Y-90691000D01*
X99585476Y-90738619D01*
X99633095Y-90833857D01*
X99680714Y-91024333D01*
X99680714Y-91262428D01*
X99633095Y-91452904D01*
X99585476Y-91548142D01*
X99537857Y-91595761D01*
X99442619Y-91643380D01*
X99347380Y-91643380D01*
X99252142Y-91595761D01*
X99204523Y-91548142D01*
X99156904Y-91452904D01*
X99109285Y-91262428D01*
X99109285Y-91024333D01*
X99156904Y-90833857D01*
X99204523Y-90738619D01*
X99252142Y-90691000D01*
X99347380Y-90643380D01*
G04 #@! TO.C,U13*
X64501780Y-22137235D02*
X65311304Y-22137235D01*
X65406542Y-22089616D01*
X65454161Y-22041997D01*
X65501780Y-21946759D01*
X65501780Y-21756282D01*
X65454161Y-21661044D01*
X65406542Y-21613425D01*
X65311304Y-21565806D01*
X64501780Y-21565806D01*
X65501780Y-20565806D02*
X65501780Y-21137235D01*
X65501780Y-20851520D02*
X64501780Y-20851520D01*
X64644638Y-20946759D01*
X64739876Y-21041997D01*
X64787495Y-21137235D01*
X64501780Y-20232473D02*
X64501780Y-19613425D01*
X64882733Y-19946759D01*
X64882733Y-19803901D01*
X64930352Y-19708663D01*
X64977971Y-19661044D01*
X65073209Y-19613425D01*
X65311304Y-19613425D01*
X65406542Y-19661044D01*
X65454161Y-19708663D01*
X65501780Y-19803901D01*
X65501780Y-20089616D01*
X65454161Y-20184854D01*
X65406542Y-20232473D01*
G04 #@! TO.C,Q2*
X107331521Y-62213739D02*
X107236283Y-62166120D01*
X107141045Y-62070881D01*
X106998188Y-61928024D01*
X106902950Y-61880405D01*
X106807712Y-61880405D01*
X106855331Y-62118500D02*
X106760093Y-62070881D01*
X106664855Y-61975643D01*
X106617236Y-61785167D01*
X106617236Y-61451834D01*
X106664855Y-61261358D01*
X106760093Y-61166120D01*
X106855331Y-61118500D01*
X107045807Y-61118500D01*
X107141045Y-61166120D01*
X107236283Y-61261358D01*
X107283902Y-61451834D01*
X107283902Y-61785167D01*
X107236283Y-61975643D01*
X107141045Y-62070881D01*
X107045807Y-62118500D01*
X106855331Y-62118500D01*
X107664855Y-61213739D02*
X107712474Y-61166120D01*
X107807712Y-61118500D01*
X108045807Y-61118500D01*
X108141045Y-61166120D01*
X108188664Y-61213739D01*
X108236283Y-61308977D01*
X108236283Y-61404215D01*
X108188664Y-61547072D01*
X107617236Y-62118500D01*
X108236283Y-62118500D01*
G04 #@! TO.C,Q1*
X78581261Y-33813999D02*
X78486023Y-33766380D01*
X78390785Y-33671141D01*
X78247928Y-33528284D01*
X78152690Y-33480665D01*
X78057452Y-33480665D01*
X78105071Y-33718760D02*
X78009833Y-33671141D01*
X77914595Y-33575903D01*
X77866976Y-33385427D01*
X77866976Y-33052094D01*
X77914595Y-32861618D01*
X78009833Y-32766380D01*
X78105071Y-32718760D01*
X78295547Y-32718760D01*
X78390785Y-32766380D01*
X78486023Y-32861618D01*
X78533642Y-33052094D01*
X78533642Y-33385427D01*
X78486023Y-33575903D01*
X78390785Y-33671141D01*
X78295547Y-33718760D01*
X78105071Y-33718760D01*
X79486023Y-33718760D02*
X78914595Y-33718760D01*
X79200309Y-33718760D02*
X79200309Y-32718760D01*
X79105071Y-32861618D01*
X79009833Y-32956856D01*
X78914595Y-33004475D01*
G04 #@! TO.C,R13*
X84955682Y-25227507D02*
X84479492Y-25560840D01*
X84955682Y-25798935D02*
X83955682Y-25798935D01*
X83955682Y-25417983D01*
X84003302Y-25322745D01*
X84050921Y-25275126D01*
X84146159Y-25227507D01*
X84289016Y-25227507D01*
X84384254Y-25275126D01*
X84431873Y-25322745D01*
X84479492Y-25417983D01*
X84479492Y-25798935D01*
X84955682Y-24275126D02*
X84955682Y-24846554D01*
X84955682Y-24560840D02*
X83955682Y-24560840D01*
X84098540Y-24656078D01*
X84193778Y-24751316D01*
X84241397Y-24846554D01*
X83955682Y-23941792D02*
X83955682Y-23322745D01*
X84336635Y-23656078D01*
X84336635Y-23513221D01*
X84384254Y-23417983D01*
X84431873Y-23370364D01*
X84527111Y-23322745D01*
X84765206Y-23322745D01*
X84860444Y-23370364D01*
X84908063Y-23417983D01*
X84955682Y-23513221D01*
X84955682Y-23798935D01*
X84908063Y-23894173D01*
X84860444Y-23941792D01*
G04 #@! TO.C,R15*
X82994752Y-25433247D02*
X82518562Y-25766580D01*
X82994752Y-26004675D02*
X81994752Y-26004675D01*
X81994752Y-25623723D01*
X82042372Y-25528485D01*
X82089991Y-25480866D01*
X82185229Y-25433247D01*
X82328086Y-25433247D01*
X82423324Y-25480866D01*
X82470943Y-25528485D01*
X82518562Y-25623723D01*
X82518562Y-26004675D01*
X82994752Y-24480866D02*
X82994752Y-25052294D01*
X82994752Y-24766580D02*
X81994752Y-24766580D01*
X82137610Y-24861818D01*
X82232848Y-24957056D01*
X82280467Y-25052294D01*
X81994752Y-23576104D02*
X81994752Y-24052294D01*
X82470943Y-24099913D01*
X82423324Y-24052294D01*
X82375705Y-23957056D01*
X82375705Y-23718961D01*
X82423324Y-23623723D01*
X82470943Y-23576104D01*
X82566181Y-23528485D01*
X82804276Y-23528485D01*
X82899514Y-23576104D01*
X82947133Y-23623723D01*
X82994752Y-23718961D01*
X82994752Y-23957056D01*
X82947133Y-24052294D01*
X82899514Y-24099913D01*
G04 #@! TO.C,R14*
X87109552Y-25227507D02*
X86633362Y-25560840D01*
X87109552Y-25798935D02*
X86109552Y-25798935D01*
X86109552Y-25417983D01*
X86157172Y-25322745D01*
X86204791Y-25275126D01*
X86300029Y-25227507D01*
X86442886Y-25227507D01*
X86538124Y-25275126D01*
X86585743Y-25322745D01*
X86633362Y-25417983D01*
X86633362Y-25798935D01*
X87109552Y-24275126D02*
X87109552Y-24846554D01*
X87109552Y-24560840D02*
X86109552Y-24560840D01*
X86252410Y-24656078D01*
X86347648Y-24751316D01*
X86395267Y-24846554D01*
X86442886Y-23417983D02*
X87109552Y-23417983D01*
X86061933Y-23656078D02*
X86776219Y-23894173D01*
X86776219Y-23275126D01*
G04 #@! TO.C,C4*
X26900142Y-28391166D02*
X26947761Y-28438785D01*
X26995380Y-28581642D01*
X26995380Y-28676880D01*
X26947761Y-28819738D01*
X26852523Y-28914976D01*
X26757285Y-28962595D01*
X26566809Y-29010214D01*
X26423952Y-29010214D01*
X26233476Y-28962595D01*
X26138238Y-28914976D01*
X26043000Y-28819738D01*
X25995380Y-28676880D01*
X25995380Y-28581642D01*
X26043000Y-28438785D01*
X26090619Y-28391166D01*
X26328714Y-27534023D02*
X26995380Y-27534023D01*
X25947761Y-27772119D02*
X26662047Y-28010214D01*
X26662047Y-27391166D01*
G04 #@! TO.C,D1*
X94015860Y-28167515D02*
X93015860Y-28167515D01*
X93015860Y-27929420D01*
X93063480Y-27786562D01*
X93158718Y-27691324D01*
X93253956Y-27643705D01*
X93444432Y-27596086D01*
X93587289Y-27596086D01*
X93777765Y-27643705D01*
X93873003Y-27691324D01*
X93968241Y-27786562D01*
X94015860Y-27929420D01*
X94015860Y-28167515D01*
X94015860Y-26643705D02*
X94015860Y-27215134D01*
X94015860Y-26929420D02*
X93015860Y-26929420D01*
X93158718Y-27024658D01*
X93253956Y-27119896D01*
X93301575Y-27215134D01*
G04 #@! TO.C,D2*
X84955682Y-27733235D02*
X83955682Y-27733235D01*
X83955682Y-27495140D01*
X84003302Y-27352282D01*
X84098540Y-27257044D01*
X84193778Y-27209425D01*
X84384254Y-27161806D01*
X84527111Y-27161806D01*
X84717587Y-27209425D01*
X84812825Y-27257044D01*
X84908063Y-27352282D01*
X84955682Y-27495140D01*
X84955682Y-27733235D01*
X84050921Y-26780854D02*
X84003302Y-26733235D01*
X83955682Y-26637997D01*
X83955682Y-26399901D01*
X84003302Y-26304663D01*
X84050921Y-26257044D01*
X84146159Y-26209425D01*
X84241397Y-26209425D01*
X84384254Y-26257044D01*
X84955682Y-26828473D01*
X84955682Y-26209425D01*
G04 #@! TO.C,U19*
X34311380Y-37996995D02*
X35120904Y-37996995D01*
X35216142Y-37949376D01*
X35263761Y-37901757D01*
X35311380Y-37806519D01*
X35311380Y-37616042D01*
X35263761Y-37520804D01*
X35216142Y-37473185D01*
X35120904Y-37425566D01*
X34311380Y-37425566D01*
X35311380Y-36425566D02*
X35311380Y-36996995D01*
X35311380Y-36711280D02*
X34311380Y-36711280D01*
X34454238Y-36806519D01*
X34549476Y-36901757D01*
X34597095Y-36996995D01*
X35311380Y-35949376D02*
X35311380Y-35758900D01*
X35263761Y-35663661D01*
X35216142Y-35616042D01*
X35073285Y-35520804D01*
X34882809Y-35473185D01*
X34501857Y-35473185D01*
X34406619Y-35520804D01*
X34359000Y-35568423D01*
X34311380Y-35663661D01*
X34311380Y-35854138D01*
X34359000Y-35949376D01*
X34406619Y-35996995D01*
X34501857Y-36044614D01*
X34739952Y-36044614D01*
X34835190Y-35996995D01*
X34882809Y-35949376D01*
X34930428Y-35854138D01*
X34930428Y-35663661D01*
X34882809Y-35568423D01*
X34835190Y-35520804D01*
X34739952Y-35473185D01*
G04 #@! TO.C,U18*
X106978180Y-51270995D02*
X107787704Y-51270995D01*
X107882942Y-51223376D01*
X107930561Y-51175757D01*
X107978180Y-51080519D01*
X107978180Y-50890042D01*
X107930561Y-50794804D01*
X107882942Y-50747185D01*
X107787704Y-50699566D01*
X106978180Y-50699566D01*
X107978180Y-49699566D02*
X107978180Y-50270995D01*
X107978180Y-49985280D02*
X106978180Y-49985280D01*
X107121038Y-50080519D01*
X107216276Y-50175757D01*
X107263895Y-50270995D01*
X107406752Y-49128138D02*
X107359133Y-49223376D01*
X107311514Y-49270995D01*
X107216276Y-49318614D01*
X107168657Y-49318614D01*
X107073419Y-49270995D01*
X107025800Y-49223376D01*
X106978180Y-49128138D01*
X106978180Y-48937661D01*
X107025800Y-48842423D01*
X107073419Y-48794804D01*
X107168657Y-48747185D01*
X107216276Y-48747185D01*
X107311514Y-48794804D01*
X107359133Y-48842423D01*
X107406752Y-48937661D01*
X107406752Y-49128138D01*
X107454371Y-49223376D01*
X107501990Y-49270995D01*
X107597228Y-49318614D01*
X107787704Y-49318614D01*
X107882942Y-49270995D01*
X107930561Y-49223376D01*
X107978180Y-49128138D01*
X107978180Y-48937661D01*
X107930561Y-48842423D01*
X107882942Y-48794804D01*
X107787704Y-48747185D01*
X107597228Y-48747185D01*
X107501990Y-48794804D01*
X107454371Y-48842423D01*
X107406752Y-48937661D01*
G04 #@! TO.C,U12*
X108329520Y-39861335D02*
X109139044Y-39861335D01*
X109234282Y-39813716D01*
X109281901Y-39766097D01*
X109329520Y-39670859D01*
X109329520Y-39480382D01*
X109281901Y-39385144D01*
X109234282Y-39337525D01*
X109139044Y-39289906D01*
X108329520Y-39289906D01*
X109329520Y-38289906D02*
X109329520Y-38861335D01*
X109329520Y-38575620D02*
X108329520Y-38575620D01*
X108472378Y-38670859D01*
X108567616Y-38766097D01*
X108615235Y-38861335D01*
X108424759Y-37908954D02*
X108377140Y-37861335D01*
X108329520Y-37766097D01*
X108329520Y-37528001D01*
X108377140Y-37432763D01*
X108424759Y-37385144D01*
X108519997Y-37337525D01*
X108615235Y-37337525D01*
X108758092Y-37385144D01*
X109329520Y-37956573D01*
X109329520Y-37337525D01*
G04 #@! TO.C,U1*
X28506495Y-86368380D02*
X28506495Y-87177904D01*
X28554114Y-87273142D01*
X28601733Y-87320761D01*
X28696971Y-87368380D01*
X28887447Y-87368380D01*
X28982685Y-87320761D01*
X29030304Y-87273142D01*
X29077923Y-87177904D01*
X29077923Y-86368380D01*
X30077923Y-87368380D02*
X29506495Y-87368380D01*
X29792209Y-87368380D02*
X29792209Y-86368380D01*
X29696971Y-86511238D01*
X29601733Y-86606476D01*
X29506495Y-86654095D01*
G04 #@! TO.C,R3*
X95257900Y-31322326D02*
X94781710Y-31655660D01*
X95257900Y-31893755D02*
X94257900Y-31893755D01*
X94257900Y-31512802D01*
X94305520Y-31417564D01*
X94353139Y-31369945D01*
X94448377Y-31322326D01*
X94591234Y-31322326D01*
X94686472Y-31369945D01*
X94734091Y-31417564D01*
X94781710Y-31512802D01*
X94781710Y-31893755D01*
X94257900Y-30988993D02*
X94257900Y-30369945D01*
X94638853Y-30703279D01*
X94638853Y-30560421D01*
X94686472Y-30465183D01*
X94734091Y-30417564D01*
X94829329Y-30369945D01*
X95067424Y-30369945D01*
X95162662Y-30417564D01*
X95210281Y-30465183D01*
X95257900Y-30560421D01*
X95257900Y-30846136D01*
X95210281Y-30941374D01*
X95162662Y-30988993D01*
G04 #@! TO.C,R2*
X94066640Y-31322326D02*
X93590450Y-31655660D01*
X94066640Y-31893755D02*
X93066640Y-31893755D01*
X93066640Y-31512802D01*
X93114260Y-31417564D01*
X93161879Y-31369945D01*
X93257117Y-31322326D01*
X93399974Y-31322326D01*
X93495212Y-31369945D01*
X93542831Y-31417564D01*
X93590450Y-31512802D01*
X93590450Y-31893755D01*
X93161879Y-30941374D02*
X93114260Y-30893755D01*
X93066640Y-30798517D01*
X93066640Y-30560421D01*
X93114260Y-30465183D01*
X93161879Y-30417564D01*
X93257117Y-30369945D01*
X93352355Y-30369945D01*
X93495212Y-30417564D01*
X94066640Y-30988993D01*
X94066640Y-30369945D01*
G04 #@! TO.C,R1*
X95257860Y-27596086D02*
X94781670Y-27929420D01*
X95257860Y-28167515D02*
X94257860Y-28167515D01*
X94257860Y-27786562D01*
X94305480Y-27691324D01*
X94353099Y-27643705D01*
X94448337Y-27596086D01*
X94591194Y-27596086D01*
X94686432Y-27643705D01*
X94734051Y-27691324D01*
X94781670Y-27786562D01*
X94781670Y-28167515D01*
X95257860Y-26643705D02*
X95257860Y-27215134D01*
X95257860Y-26929420D02*
X94257860Y-26929420D01*
X94400718Y-27024658D01*
X94495956Y-27119896D01*
X94543575Y-27215134D01*
G04 #@! TO.C,R10*
X100916542Y-40990780D02*
X100583209Y-40514590D01*
X100345114Y-40990780D02*
X100345114Y-39990780D01*
X100726066Y-39990780D01*
X100821304Y-40038400D01*
X100868923Y-40086019D01*
X100916542Y-40181257D01*
X100916542Y-40324114D01*
X100868923Y-40419352D01*
X100821304Y-40466971D01*
X100726066Y-40514590D01*
X100345114Y-40514590D01*
X101868923Y-40990780D02*
X101297495Y-40990780D01*
X101583209Y-40990780D02*
X101583209Y-39990780D01*
X101487971Y-40133638D01*
X101392733Y-40228876D01*
X101297495Y-40276495D01*
X102487971Y-39990780D02*
X102583209Y-39990780D01*
X102678447Y-40038400D01*
X102726066Y-40086019D01*
X102773685Y-40181257D01*
X102821304Y-40371733D01*
X102821304Y-40609828D01*
X102773685Y-40800304D01*
X102726066Y-40895542D01*
X102678447Y-40943161D01*
X102583209Y-40990780D01*
X102487971Y-40990780D01*
X102392733Y-40943161D01*
X102345114Y-40895542D01*
X102297495Y-40800304D01*
X102249876Y-40609828D01*
X102249876Y-40371733D01*
X102297495Y-40181257D01*
X102345114Y-40086019D01*
X102392733Y-40038400D01*
X102487971Y-39990780D01*
G04 #@! TO.C,R11*
X100814942Y-38793680D02*
X100481609Y-38317490D01*
X100243514Y-38793680D02*
X100243514Y-37793680D01*
X100624466Y-37793680D01*
X100719704Y-37841300D01*
X100767323Y-37888919D01*
X100814942Y-37984157D01*
X100814942Y-38127014D01*
X100767323Y-38222252D01*
X100719704Y-38269871D01*
X100624466Y-38317490D01*
X100243514Y-38317490D01*
X101767323Y-38793680D02*
X101195895Y-38793680D01*
X101481609Y-38793680D02*
X101481609Y-37793680D01*
X101386371Y-37936538D01*
X101291133Y-38031776D01*
X101195895Y-38079395D01*
X102719704Y-38793680D02*
X102148276Y-38793680D01*
X102433990Y-38793680D02*
X102433990Y-37793680D01*
X102338752Y-37936538D01*
X102243514Y-38031776D01*
X102148276Y-38079395D01*
G04 #@! TO.C,RN1*
X52723223Y-32997080D02*
X52389890Y-32520890D01*
X52151795Y-32997080D02*
X52151795Y-31997080D01*
X52532747Y-31997080D01*
X52627985Y-32044700D01*
X52675604Y-32092319D01*
X52723223Y-32187557D01*
X52723223Y-32330414D01*
X52675604Y-32425652D01*
X52627985Y-32473271D01*
X52532747Y-32520890D01*
X52151795Y-32520890D01*
X53151795Y-32997080D02*
X53151795Y-31997080D01*
X53723223Y-32997080D01*
X53723223Y-31997080D01*
X54723223Y-32997080D02*
X54151795Y-32997080D01*
X54437509Y-32997080D02*
X54437509Y-31997080D01*
X54342271Y-32139938D01*
X54247033Y-32235176D01*
X54151795Y-32282795D01*
G04 #@! TD*
M02*
